<svg width="234" height="233" viewBox="0 0 234 233" fill="none" xmlns="http://www.w3.org/2000/svg">
<path d="M197.41 198.839C145.506 198.839 93.6017 198.839 41.68 198.857C35.761 157.251 29.8419 115.662 23.9229 74.0554C24.7882 73.6224 25.792 73.1374 26.8997 72.6351C26.8997 72.6351 32.4899 70.0888 38.5128 68.3047C59.5757 62.1036 98.8631 68.374 98.8631 68.374C146.648 75.9781 144 80.2219 157.638 78.1087C164.786 77.0001 177.49 73.9688 196.528 74.1421C202.308 74.194 207.068 74.5231 210.252 74.8003C205.977 116.147 201.703 157.493 197.41 198.839Z" fill="#D9C459"/>
<path d="M155.008 186.125C150.698 185.19 142.772 182.886 134.845 176.651C126.312 169.964 122.107 162.135 120.255 158.082C123.924 148.347 127.576 138.613 131.245 128.878C134.205 126.799 145.143 119.698 160.477 120.927C176.434 122.226 186.317 131.701 188.757 134.196C196.978 149.473 194.52 167.436 183.634 177.776C172.471 188.377 157.171 186.437 155.008 186.125Z" fill="white"/>
<path d="M99.5558 142.198C95.904 144.658 88.7388 148.763 78.7525 150.166C68.022 151.673 59.4723 149.283 55.2666 147.793C50.8013 138.405 46.3361 129.016 41.8535 119.611C42.4247 116.043 44.8823 103.225 56.4089 93.0225C68.4201 82.4044 82.0755 81.8674 85.5715 81.8328C102.273 86.4922 113.505 100.731 113.384 115.748C113.263 131.147 101.269 140.83 99.5385 142.181L99.5558 142.198Z" fill="white"/>
<path d="M229.602 10.9186C229.602 10.9186 229.463 10.8147 229.394 10.7454C229.29 10.5895 229.239 10.4336 229.1 10.2777C222.212 3.08932 203.139 4.19791 194.278 3.57433C168.386 1.72093 142.356 1.49574 116.395 1.68627C90.798 1.87681 65.1141 2.5004 39.586 4.73487C30.8285 5.49702 9.78293 4.64825 3.37926 12.3217C0.471645 15.8033 1.2851 21.6406 1.37164 25.8151C1.61394 37.3512 2.92927 48.922 4.14078 60.3888C7.74068 94.5121 12.431 128.514 17.2424 162.482C19.475 178.262 21.8288 194.024 24.1825 209.787C26.5882 225.93 31.0016 227.455 46.7338 229.083C73.1101 231.82 99.6767 232.391 126.174 231.924C138.445 231.698 150.716 231.248 162.969 230.659C173.855 230.139 189.363 232.027 199.626 228.355C214.683 222.968 215.6 193.712 217.85 180.409C222.437 153.371 224.098 125.951 226.85 98.6866C228.633 81.0533 230.813 63.5413 231.679 45.8388C232.129 36.8835 235.642 18.8692 229.567 10.936L229.602 10.9186ZM225.327 45.8214C224.756 57.4268 223.787 68.9976 222.506 80.551C220.273 100.644 218.56 120.771 216.552 140.882C214.372 162.724 213.489 190.196 204.628 210.653C198.432 224.96 189.172 222.847 175.171 223.627C163.973 224.25 152.758 224.77 141.543 225.133C119.043 225.861 96.5094 225.965 74.0446 224.787C63.9372 224.25 53.7779 223.575 43.7224 222.362C31.7458 220.924 31.59 216.351 30.0843 206.409C27.9901 192.569 25.9652 178.729 23.9922 164.872C19.5269 133.659 15.252 102.428 11.7041 71.0935C10.4752 60.3022 9.31565 49.4936 8.50221 38.6503C8.19068 34.4412 5.4042 21.1903 7.94836 17.3449C12.3098 10.7454 34.7919 11.4902 42.0955 10.884C62.9853 9.16915 83.9617 8.51094 104.921 8.18183C129.964 7.78343 155.042 7.92202 180.069 9.1172C189.847 9.58489 199.678 10.1218 209.404 11.317C212.883 11.7501 221.433 11.8367 224.41 14.6428C228.719 21.3115 225.673 38.8755 225.344 45.8041L225.327 45.8214Z" fill="#333333" stroke="#323333" stroke-width="1.33336" stroke-miterlimit="10"/>
<path d="M104.557 88.9866C89.7424 72.9122 63.8508 80.3431 50.005 94.235C42.8052 102.082 37.89 109.374 39.7938 120.338C41.2995 128.999 46.5609 144 53.103 150.062C59.4028 155.899 74.8409 155.311 82.9753 154.929C93.9134 154.41 99.6594 147.741 106.046 139.305C111.013 132.741 119.026 123.422 118.767 114.588C118.49 105.407 110.459 95.4128 104.557 89.0039V88.9866ZM91.5597 88.2417C88.1328 92.728 84.8618 97.3355 81.4176 101.804C78.5792 105.477 75.0832 108.577 72.1929 112.163C70.0814 111.782 67.7795 112.024 64.9931 112.249C59.2471 112.682 53.4665 112.838 47.7205 113.479C48.6204 107.954 50.8358 102.74 54.5049 98.7385C63.6085 89.6101 79.1331 83.7728 91.5423 88.2244L91.5597 88.2417ZM67.5719 147.551C54.5222 145.039 47.5474 132.515 47.2705 119.905C54.7818 118.97 69.4583 115.54 74.3563 121.897C79.6523 128.774 81.8157 138.093 86.679 145.333C86.8521 145.576 87.0598 145.732 87.2675 145.905C81.608 148.313 75.1697 149.023 67.5719 147.568V147.551ZM104.644 130.298C101.009 135.703 97.046 139.964 92.5808 143.012C92.4942 142.7 92.4077 142.406 92.2 142.094C86.7309 133.97 84.2906 123.578 78.1119 115.956C77.9562 115.766 77.8177 115.644 77.662 115.471C80.5696 111.834 84.1695 108.646 87.0252 104.922C90.5039 100.384 93.8096 95.7419 97.271 91.2037C98.2229 91.8792 99.1575 92.6414 100.04 93.4901C104.09 97.4048 111.203 106.984 112.051 112.89C112.934 119.074 107.846 125.518 104.627 130.281L104.644 130.298Z" fill="#333333"/>
<path d="M177.698 121.516C162.416 113.635 136.126 113.254 126.105 129.848C121.051 138.232 115.323 152.366 117.555 162.274C119.424 170.536 128.753 176.477 135.157 181.206C143.845 187.632 152.048 193.141 162.987 189.936C170.498 187.736 184.638 183.752 189.588 177.257C195.022 170.138 195.974 149.075 194.399 140.795C192.565 131.164 185.798 126.124 177.68 121.534L177.698 121.516ZM174.479 127.042C180.259 130.298 183.894 133.97 186.005 138.838C185.971 138.838 185.936 138.838 185.901 138.838C179.861 140.085 173.942 141.956 167.971 143.48C165.617 144.069 162.796 144.207 160.494 145.091C156.721 142.649 152.568 140.778 148.864 138.18C144.641 135.218 140.522 132.117 136.316 129.138C146.735 121.031 162.952 121.118 174.479 127.059V127.042ZM123.613 159.312C122.695 153.353 126.936 141.938 129.636 136.95C130.293 135.755 131.038 134.663 131.834 133.624C131.955 133.745 132.041 133.884 132.197 134.005C136.714 137.192 141.128 140.518 145.645 143.705C149.037 146.096 152.827 147.862 156.341 150.01C155.146 154.081 154.818 159.468 154.091 163.452C153.07 169.081 152.395 174.97 150.664 180.444C150.422 181.189 150.525 181.812 150.733 182.367C147.099 181.31 143.637 179.491 140.141 176.997C134.845 173.221 124.72 166.57 123.613 159.329V159.312ZM185.053 171.593C181.973 176.477 170.533 180.86 164.908 182.349C161.792 183.181 158.919 183.441 156.168 183.285C156.427 182.973 156.652 182.592 156.808 182.124C159.577 173.325 161.429 162.915 162.589 153.769C163.004 150.426 162.173 151.725 164.942 150.703C166.863 149.993 169.252 149.75 171.242 149.231C176.677 147.81 182.077 146.147 187.58 145.004C187.632 145.004 187.667 144.952 187.719 144.935C188.013 146.684 188.238 148.521 188.307 150.564C188.498 155.813 188.013 166.881 185.019 171.61L185.053 171.593Z" fill="#333333"/>
<path d="M24.1303 57.3922C23.2303 52.3516 22.3476 47.2937 21.4477 42.2532C20.34 35.9828 17.9862 27.2874 27.3321 27.6685C31.4339 27.8417 31.4339 21.4501 27.3321 21.2768C6.37309 20.3934 15.8574 47.1551 17.9689 59.0896C18.6785 63.1256 24.8399 61.4281 24.1303 57.3922Z" fill="#333333"/>
<path d="M39.2573 26.8544C43.3591 26.8544 43.3764 20.4628 39.2573 20.4628C35.1382 20.4628 35.1382 26.8544 39.2573 26.8544Z" fill="#333333"/>
<path d="M194.728 69.8983C175.413 72.5658 157.846 74.4019 138.306 71.336C118.334 68.2008 98.4478 62.4674 78.1465 61.9304C66.0314 61.6013 53.7087 62.6753 41.6975 64.1129C36.0034 64.7885 26.8306 64.3381 22.5384 68.5126C17.4674 73.4492 20.0981 80.7762 20.8423 86.856C22.3826 99.6566 23.2133 112.526 24.6152 125.344C27.3498 150.634 33.1477 175.49 37.7341 200.485C38.0283 202.131 39.2398 202.789 40.5033 202.754C40.6071 202.754 40.6936 202.823 40.8148 202.841C92.9441 205.3 145.541 205.11 197.687 203.499C198.986 203.464 200.509 202.546 200.768 201.161C207.414 164.3 210.91 126.107 214.77 88.7961C216.708 70.1062 213.575 67.3174 194.745 69.9156L194.728 69.8983ZM208.366 88.7787C206.653 105.286 204.195 121.724 202.274 138.214C200.803 150.842 199.574 163.486 198.068 176.114C197.687 179.37 196.787 196.051 194.763 197.142C192.495 198.372 185.832 197.125 183.288 197.107C136.593 196.796 90.1404 198.597 43.4455 196.536C37.7168 165.426 31.8497 134.802 28.8728 103.242C28.3017 97.2143 25.3075 87.4277 26.5363 81.5903C29.0805 69.4826 37.3707 70.9203 46.7685 69.9503C59.8181 68.5992 73.162 67.6119 86.2462 68.8937C108.884 71.1281 130.864 78.0567 153.589 79.5637C163.436 80.2219 173.18 79.8408 182.924 78.3339C188.013 77.5371 193.482 75.8223 198.605 75.805C208.747 75.753 209.231 80.1873 208.331 88.7961L208.366 88.7787Z" fill="#333333"/>
</svg>
