<svg width="448" height="405" viewBox="0 0 448 405" fill="none" xmlns="http://www.w3.org/2000/svg">
<path d="M373.851 114.48C368.207 112.155 361.379 113.643 357.04 118.147C353.007 122.319 351.769 128.206 354.019 133.255C356.508 138.822 361.06 141.32 366.158 141.612C371.442 141.586 375.235 140.044 378.323 136.882C385.351 129.667 383.075 118.294 373.851 114.493V114.48ZM377.485 132.829C375.235 136.311 371.282 138.41 367.036 138.37C362.231 138.33 358.305 135.726 356.761 131.554C355.27 127.541 356.441 122.904 359.889 119.835C363.456 116.659 367.622 115.756 372.147 117.27C378.762 119.489 381.278 126.957 377.498 132.816L377.485 132.829Z" fill="#443731"/>
<path d="M98.5853 268.383C92.9418 266.058 86.1137 267.546 81.7746 272.05C77.7417 276.223 76.5038 282.109 78.7533 287.158C81.2422 292.725 85.7943 295.223 90.8921 295.515C96.1762 295.489 99.9696 293.947 103.057 290.785C110.085 283.57 107.809 272.197 98.5853 268.397V268.383ZM102.219 286.733C99.9696 290.214 96.0165 292.313 91.7705 292.273C86.9656 292.233 83.0391 289.629 81.4951 285.457C80.0044 281.444 81.1757 276.807 84.623 273.738C88.1901 270.562 92.3562 269.659 96.8816 271.174C103.497 273.392 106.012 280.86 102.232 286.719L102.219 286.733Z" fill="#443731"/>
<path d="M397.943 66.3284C393.311 66.2221 389.225 69.9159 389.132 74.3006C389.039 78.5258 392.552 82.0336 396.998 82.1399C401.696 82.2595 405.689 78.6321 405.743 74.1943C405.796 69.8627 402.402 66.4347 397.943 66.3284ZM397.104 79.0175C394.363 78.951 392.18 76.7985 392.313 74.2873C392.459 71.6565 395.028 69.4243 397.823 69.4907C400.605 69.5571 402.681 71.6299 402.562 74.2209C402.442 76.8916 399.939 79.0839 397.091 79.0175H397.104Z" fill="#443731"/>
<path d="M440.189 138.503C435.557 138.397 431.471 142.091 431.378 146.475C431.285 150.701 434.798 154.208 439.244 154.315C443.956 154.434 447.936 150.807 447.989 146.369C448.042 142.038 444.648 138.61 440.189 138.503ZM439.351 151.192C436.609 151.126 434.426 148.973 434.559 146.462C434.705 143.831 437.274 141.599 440.069 141.666C442.851 141.732 444.927 143.805 444.808 146.396C444.688 149.066 442.186 151.259 439.337 151.192H439.351Z" fill="#443731"/>
<path d="M78.9391 209.522C74.3072 209.416 70.221 213.11 70.1278 217.494C70.0346 221.72 73.5485 225.227 77.9941 225.334C82.7058 225.453 86.6856 221.826 86.7388 217.388C86.792 213.057 83.398 209.629 78.9391 209.522ZM78.1005 222.211C75.3587 222.145 73.1758 219.992 73.3089 217.481C73.4553 214.85 76.0242 212.618 78.8193 212.685C81.6011 212.751 83.6775 214.824 83.5577 217.415C83.4379 220.085 80.9356 222.278 78.0872 222.211H78.1005Z" fill="#443731"/>
<path d="M8.82189 331.563C4.18997 331.456 0.103771 335.15 0.0105998 339.535C-0.0825709 343.76 3.4313 347.268 7.87687 347.374C12.5753 347.494 16.5684 343.867 16.6216 339.429C16.6748 335.097 13.2808 331.669 8.82189 331.563ZM7.98335 344.252C5.24147 344.185 3.05861 342.033 3.19171 339.522C3.33813 336.891 5.90697 334.659 8.7021 334.725C11.4839 334.792 13.5603 336.864 13.4405 339.455C13.3207 342.126 10.8184 344.318 7.97004 344.252H7.98335Z" fill="#443731"/>
<path d="M420.57 272.831C416.87 261.63 404.864 254.163 391.807 257.431C380.946 260.142 373.426 269.536 373.213 280.325C373.626 282.517 373.852 284.776 374.491 286.902C377.911 298.262 389.425 305.078 401.657 303.085C415.952 300.76 425.029 286.304 420.584 272.831H420.57ZM403.094 299.445C391.341 302.7 379.442 295.645 377.046 283.965C376.793 282.743 376.753 281.467 376.62 280.218C376.62 268.234 387.694 258.561 400.365 260.049C409.549 261.125 416.111 267.901 417.895 275.103C420.53 285.746 414.075 296.389 403.107 299.445H403.094Z" fill="#443731"/>
<path d="M122.955 112.229C114.157 112.163 107.435 118.727 107.422 127.39C107.409 136.186 114.556 143.334 123.434 143.374C132.179 143.427 139.007 136.784 139.033 128.213C139.047 119.511 131.793 112.296 122.968 112.229H122.955ZM123.58 140.438C116.233 140.398 110.284 134.512 110.31 127.31C110.337 120.454 115.98 115.033 122.955 115.152C130.289 115.272 136.172 121.225 136.065 128.439C135.972 135.176 130.448 140.477 123.567 140.438H123.58Z" fill="#443731"/>
</svg>
