<svg width="31" height="31" viewBox="0 0 31 31" fill="none" xmlns="http://www.w3.org/2000/svg">
<g id="Graphic_Elements" clip-path="url(#clip0_355_1573)">
<path id="Vector" d="M6.85685 26.4613C9.23794 24.5864 11.6595 22.7591 14.0868 20.9614C13.3644 23.8507 12.6651 26.7401 12.0352 29.6532C11.8444 30.5313 13.1563 30.7093 13.7054 30.6262C14.5318 30.5016 15.4103 29.9855 15.601 29.1014C16.2252 26.2239 16.9129 23.3583 17.6296 20.5045C19.5136 23.6846 21.3977 26.8588 23.2818 30.0389C23.7615 30.8458 24.8307 31.178 25.7033 30.9229C26.4604 30.7034 27.1135 29.8846 26.6338 29.0777C24.6688 25.7612 22.6981 22.4387 20.7331 19.1221C22.9697 19.306 25.2121 19.4544 27.4545 19.5374C28.3445 19.5671 29.3617 18.956 29.5639 18.0245C29.7662 17.099 29.0149 16.4285 28.1711 16.3989C25.7958 16.3099 23.4205 16.1497 21.051 15.948C23.906 13.9485 26.7841 11.9847 29.6969 10.0802C30.2748 9.70049 31.1995 8.82241 30.9568 8.00958C30.714 7.19676 29.6333 7.56461 29.1594 7.87906C25.7611 10.098 22.4207 12.3881 19.1091 14.7317C20.3228 10.2226 21.6347 5.74317 23.0622 1.29935C23.6748 -0.605151 20.1263 -0.225439 19.6755 1.19255C18.5369 4.74643 17.4793 8.32997 16.4737 11.9254C15.6068 10.4659 14.7457 9.01226 13.8788 7.55274C13.3991 6.74585 12.3299 6.4136 11.4572 6.66279C10.7001 6.88231 10.0471 7.70107 10.5267 8.50796C11.8618 10.7625 13.1968 13.0111 14.5318 15.2597C10.521 14.7436 6.53321 14.0672 2.56857 13.2247C1.66121 13.0289 0.626702 13.4027 0.170133 14.2748C-0.222864 15.0343 0.10078 16.0429 0.985022 16.2327C5.29064 17.1524 9.63094 17.8821 13.9944 18.4339C11.1451 20.5342 8.31325 22.6641 5.5276 24.8534C5.04213 25.2331 4.29659 26.2536 4.78784 26.8825C5.30798 27.5411 6.41762 26.8054 6.85685 26.4613Z" fill="#333333"/>
</g>
<defs>
<clipPath id="clip0_355_1573">
<rect width="31" height="31" fill="white"/>
</clipPath>
</defs>
</svg>
