<svg width="81" height="137" viewBox="0 0 81 137" fill="none" xmlns="http://www.w3.org/2000/svg">
<g clip-path="url(#clip0_626_404)">
<path d="M40.7637 0.240569C51.341 0.35785 61.6847 1.66671 71.1033 6.96312C74.5419 8.89592 77.588 11.3213 77.9991 15.7639C78.1533 17.4387 78.0879 19.1181 77.247 20.5349C75.9295 22.7539 76.2331 24.7101 77.3264 26.9197C79.1578 30.6258 80.3772 34.5664 80.8771 38.6947C81.1247 40.7495 81.1153 42.8089 79.4848 44.3523C78.5878 45.2015 79.0503 46.0881 79.1017 46.9607C79.5175 54.1805 79.0036 61.3018 76.9106 68.2589C73.6075 79.2224 66.4594 86.4844 55.6345 89.909C46.2252 92.8833 36.6197 92.9583 27.1496 90.3031C13.8019 86.5548 6.18658 77.374 3.48152 63.8961C2.93022 61.147 2.48639 58.3698 2.45836 55.5457C2.44434 53.9929 2.03321 52.6183 1.31373 51.1453C-0.67185 47.0873 -0.078512 42.7386 0.968005 38.5493C2.15468 33.8064 3.63102 29.1339 5.03728 24.4474C5.37833 23.3074 5.19612 22.3786 4.6495 21.3371C2.36025 16.9695 3.2339 12.5457 7.00884 9.36504C12.2181 4.96934 18.5252 3.08346 25.0099 1.73708C30.1911 0.658089 35.447 0.0857576 40.7637 0.240569ZM73.8505 24.7758C70.3839 27.2199 66.5388 28.5851 62.507 29.5233C54.7141 31.3388 46.7905 31.6578 38.8529 31.5593C32.1673 31.4796 25.4817 31.1324 18.941 29.5046C18.0533 29.2841 17.1236 29.0589 17.4179 27.9095C17.717 26.7273 18.6654 27.0933 19.5297 27.2715C33.3446 30.0722 47.197 30.0206 61.0259 27.4686C65.3895 26.6617 69.6597 25.3528 73.1029 22.2941C76.7798 19.0337 76.8078 14.6755 73.2338 11.3166C71.1594 9.36973 68.7253 7.95767 66.0857 6.98189C50.0328 1.05215 33.8492 0.958329 17.6095 6.14685C13.9654 7.31028 10.5268 8.98036 7.81241 11.8186C4.91113 14.8538 4.97187 18.8367 7.93389 21.825C8.98975 22.8852 10.1951 23.7249 11.4986 24.438C12.1573 24.7992 12.7226 25.3012 12.3208 26.1128C11.849 27.0651 11.0407 26.8071 10.3213 26.413C9.37752 25.897 8.46649 25.32 7.42931 24.7054C5.99035 29.4295 4.47664 34.0082 3.21521 38.6572C2.35557 41.8331 2.04255 45.1264 2.6686 48.4103C3.26661 51.544 5.2335 52.2712 7.66291 50.2445C8.61132 49.4564 9.37285 48.4384 10.1858 47.4955C11.1015 46.4353 11.891 45.2484 12.9002 44.2867C16.1285 41.2092 19.7539 42.0114 21.3611 46.1585C22.0058 47.8239 22.4263 49.5737 22.9822 51.2766C23.6597 53.3595 25.094 54.2274 27.2711 54.0116C28.8923 53.8521 30.5321 53.7489 32.1626 53.7583C35.5124 53.7724 37.1336 55.2454 37.6055 58.5997C37.7923 59.9132 37.8437 61.2502 38.0867 62.5497C38.5912 65.2143 39.8994 66.481 42.1466 66.6311C44.7021 66.8046 46.4681 65.6365 47.4072 63.2534C48.0005 61.7428 47.8464 60.1806 47.8277 58.6278C47.7903 55.6582 47.6221 52.6652 48.8555 49.8646C49.6077 48.1569 50.7103 46.7965 52.7846 46.6511C54.7982 46.5056 56.2138 47.4392 57.237 49.0858C58.0172 50.3431 58.7414 51.6378 59.5356 52.8857C60.1663 53.8756 61.0306 54.4479 62.278 54.2509C63.4787 54.0632 63.9412 53.2094 64.2122 52.1773C64.3898 51.5018 64.5252 50.8122 64.6654 50.1273C65.1046 47.9927 65.1793 45.7785 66.0483 43.7378C67.3751 40.6087 69.9167 39.6892 72.846 41.3077C73.5281 41.683 74.1588 42.1521 74.8549 42.4899C77.2376 43.6487 78.6299 42.8042 78.6345 40.1771C78.6345 39.2483 78.5271 38.31 78.3636 37.3905C77.5927 32.9667 75.8594 28.89 73.8364 24.7805L73.8505 24.7758ZM76.8639 52.1164C76.8639 51.6472 76.8125 51.1734 76.8732 50.709C77.2797 47.4486 76.691 45.178 72.9628 43.9254C69.4448 42.7432 68.3189 42.8793 67.5947 46.698C67.2163 48.6917 67.0014 50.7231 66.5202 52.6887C66.0296 54.6872 64.927 56.2775 62.6845 56.5965C60.442 56.9155 58.7367 55.9819 57.5313 54.1195C56.7698 52.942 56.1204 51.6941 55.3822 50.5026C54.8309 49.6206 54.1582 48.8372 52.9622 49.0014C51.7988 49.1609 51.2756 50.0757 50.8972 51.0233C50.0375 53.1813 50.1403 55.4659 50.1964 57.7318C50.2431 59.6833 50.3318 61.6255 49.7759 63.5442C48.706 67.2409 46.0009 69.0799 41.8149 68.8829C38.638 68.7327 36.302 66.4387 35.7367 62.8499C35.5311 61.5411 35.4096 60.2134 35.2741 58.8952C35.0686 56.9249 34.0221 55.9444 32.0225 56.0617C30.4714 56.1508 28.9156 56.2447 27.3645 56.3338C23.9306 56.5308 21.9404 55.2501 20.7818 51.9756C20.1837 50.2868 19.824 48.5135 19.1793 46.8434C18.2823 44.5259 16.3761 44.1319 14.6008 45.9005C13.5029 46.9935 12.5825 48.2742 11.6201 49.4986C10.1017 51.4267 8.4805 53.2094 5.89224 53.6129C4.8831 53.7677 4.63549 54.3306 4.73827 55.2454C4.97187 57.3377 5.06064 59.4535 5.40636 61.5223C7.21441 72.3497 11.9751 81.2162 22.3702 85.9825C31.5179 90.1764 41.1234 90.8379 50.8878 88.7644C60.2971 86.7659 67.9731 82.1685 72.4302 73.2035C75.7286 66.5701 76.9293 59.4675 76.8639 52.1117V52.1164Z" fill="#333333"/>
<path d="M73.8507 24.7801C75.8736 28.8897 77.6069 32.9663 78.3778 37.3902C78.5367 38.305 78.6488 39.2479 78.6488 40.1768C78.6488 42.8039 77.2519 43.6483 74.8692 42.4896C74.173 42.1518 73.5377 41.6827 72.8602 41.3074C69.9356 39.6936 67.3894 40.6131 66.0625 43.7374C65.1936 45.7828 65.1188 47.9924 64.6796 50.1269C64.5395 50.8118 64.404 51.5015 64.2265 52.177C63.9555 53.2044 63.4883 54.0629 62.2923 54.2505C61.0449 54.4429 60.1759 53.8705 59.5498 52.8854C58.7556 51.6375 58.0315 50.3427 57.2512 49.0855C56.2281 47.4388 54.8172 46.5053 52.7989 46.6507C50.7245 46.8008 49.6219 48.1566 48.8698 49.8642C47.6364 52.6649 47.8092 55.6626 47.8419 58.6275C47.8606 60.1803 48.0148 61.7424 47.4215 63.253C46.4824 65.6362 44.7117 66.8043 42.1608 66.6307C39.9136 66.4806 38.6008 65.214 38.1009 62.5493C37.8533 61.2499 37.8019 59.9129 37.6197 58.5993C37.1478 55.2451 35.5267 53.7767 32.1769 53.7579C30.5464 53.7486 28.9112 53.8518 27.2853 54.0113C25.1082 54.2271 23.6739 53.3592 22.9965 51.2763C22.4405 49.5733 22.0247 47.8235 21.3753 46.1581C19.7682 42.0158 16.1381 41.2089 12.9144 44.2863C11.9053 45.248 11.1204 46.4349 10.2 47.4951C9.38709 48.4381 8.62089 49.4514 7.67716 50.2442C5.24775 52.2708 3.28085 51.5437 2.68284 48.4099C2.0568 45.1261 2.36982 41.8328 3.22946 38.6568C4.48622 34.0078 5.99993 29.4291 7.44356 24.7051C8.48074 25.3196 9.39177 25.8966 10.3355 26.4127C11.055 26.8067 11.8632 27.0648 12.3351 26.1124C12.7369 25.3009 12.1716 24.7989 11.5128 24.4377C10.2094 23.7199 8.99932 22.8849 7.94813 21.8246C4.98612 18.8363 4.92071 14.8534 7.82666 11.8182C10.5411 8.98001 13.9843 7.30993 17.6237 6.1465C33.8494 0.957983 50.0331 1.05181 66.0859 6.99092C68.7209 7.9667 71.1596 9.37877 73.234 11.3256C76.808 14.6799 76.78 19.038 73.1032 22.3031C69.6599 25.3571 65.3898 26.6707 61.0262 27.4776C47.1972 30.0296 33.3495 30.0812 19.5299 27.2806C18.6656 27.107 17.7172 26.7411 17.4182 27.9186C17.1238 29.0679 18.0536 29.2931 18.9412 29.5136C25.482 31.1415 32.1675 31.4839 38.8531 31.5684C46.7907 31.6669 54.7144 31.3479 62.5072 29.5324C66.5391 28.5941 70.3841 27.229 73.8507 24.7848V24.7801ZM41.0629 21.9701C43.2915 21.8434 46.6459 21.8012 49.963 21.4212C54.7471 20.877 59.5312 20.2155 63.8714 17.8652C65.2029 17.1428 66.3896 16.2702 66.7773 14.6939C67.0997 13.3757 66.5344 12.4703 65.2496 13.1036C64.2919 13.5774 63.8621 13.2068 63.236 12.8034C61.6522 11.776 59.9096 11.1192 58.1015 10.6407C49.7995 8.44052 41.3526 8.28102 32.873 9.03162C28.145 9.44914 23.473 10.2232 19.1468 12.3671C18.1377 12.8691 17.3434 13.9668 15.9045 12.9863C15.2224 12.5219 14.6851 13.3523 14.615 14.1545C14.4562 15.9277 15.3999 17.1287 16.7594 18.0294C18.3245 19.0709 20.0765 19.7042 21.8986 20.1405C27.8366 21.5619 33.8915 21.773 41.0629 21.9654V21.9701Z" fill="#F0CC44"/>
<path d="M76.8638 52.1208C76.9293 59.4767 75.7286 66.5792 72.4302 73.2127C67.9778 82.1729 60.3018 86.7751 50.8878 88.7735C41.1234 90.8471 31.5179 90.1856 22.3702 85.9916C11.9751 81.2253 7.21439 72.3589 5.40634 61.5315C5.06062 59.4579 4.97185 57.3469 4.73826 55.2546C4.63547 54.3398 4.88309 53.7768 5.89223 53.622C8.47582 53.2186 10.1017 51.4359 11.62 49.5078C12.5825 48.2834 13.5028 47.0074 14.6007 45.9096C16.3714 44.141 18.2776 44.5351 19.1793 46.8526C19.824 48.518 20.1837 50.2959 20.7817 51.9848C21.9404 55.2593 23.9306 56.5447 27.3645 56.3429C28.9156 56.2538 30.4714 56.16 32.0225 56.0709C34.022 55.9536 35.0686 56.934 35.2741 58.9044C35.4096 60.2273 35.5311 61.5502 35.7367 62.8591C36.302 66.4479 38.6379 68.7466 41.8149 68.892C46.0009 69.0891 48.706 67.2501 49.7759 63.5534C50.3318 61.6347 50.2477 59.6925 50.1963 57.7409C50.1403 55.4751 50.0375 53.1904 50.8971 51.0325C51.2756 50.0848 51.7988 49.17 52.9621 49.0105C54.1582 48.8463 54.8309 49.6251 55.3822 50.5117C56.125 51.7033 56.7745 52.9512 57.5313 54.1287C58.7367 55.9911 60.4419 56.9247 62.6845 56.6057C64.927 56.2867 66.0296 54.6963 66.5201 52.6979C67.0014 50.7322 67.2163 48.7009 67.5947 46.7071C68.3188 42.8885 69.4448 42.7524 72.9628 43.9346C76.691 45.1872 77.2796 47.4577 76.8732 50.7181C76.8171 51.1779 76.8638 51.6564 76.8638 52.1255V52.1208ZM71.5799 56.4086C71.5658 55.6393 71.094 54.945 70.3932 54.9919C69.4915 55.0575 69.328 55.7237 69.2486 56.479C68.6926 61.9678 67.4172 67.2313 64.4178 71.9554C64.016 72.5934 63.8711 73.3722 64.6 73.8272C65.4643 74.3667 66.0529 73.7662 66.4874 73.0438C69.5195 68.0054 71.08 62.5026 71.5845 56.4086H71.5799ZM58.0592 81.4083C58.8815 81.413 62.306 78.7296 62.535 77.9274C62.6845 77.4066 62.4882 77.0173 62.1425 76.6889C61.6566 76.2291 61.1521 76.3839 60.6849 76.7405C59.587 77.5802 58.4797 78.4106 57.4052 79.2831C56.98 79.6303 56.6343 80.0947 56.9613 80.6905C57.1903 81.108 57.5266 81.4223 58.0592 81.4083Z" fill="#BD9769"/>
<path d="M41.0631 21.97C33.887 21.7777 27.8321 21.5713 21.8987 20.1451C20.0767 19.7089 18.3247 19.0709 16.7596 18.0341C15.3954 17.1287 14.4563 15.9324 14.6152 14.1591C14.6852 13.3569 15.2272 12.5266 15.9046 12.991C17.3436 13.9715 18.1378 12.869 19.1469 12.3718C23.4732 10.2232 28.1451 9.4538 32.8731 9.03628C41.3527 8.29037 49.7996 8.44518 58.1017 10.6454C59.9097 11.1239 61.6524 11.7807 63.2362 12.808C63.8575 13.2115 64.2873 13.5821 65.2498 13.1083C66.5346 12.475 67.1045 13.3804 66.7775 14.6986C66.3897 16.2702 65.2031 17.1474 63.8715 17.8699C59.5313 20.2202 54.7472 20.8864 49.9631 21.4259C46.6461 21.8012 43.2963 21.8434 41.0631 21.9747V21.97ZM40.3296 10.8987C38.4655 10.9831 35.8866 10.9738 33.3403 11.2459C28.8553 11.7197 24.3936 12.3811 20.2729 14.4124C19.5114 14.7877 18.4508 15.163 18.5303 16.0825C18.5957 16.8425 19.6749 17.0114 20.399 17.2694C24.473 18.7331 28.7385 19.1225 33.0086 19.3429C41.8807 19.798 50.748 19.8684 59.3725 17.2225C60.5731 16.8519 62.5634 16.7534 62.5727 15.5055C62.5821 14.3468 60.6432 13.9527 59.4238 13.507C53.4811 11.3444 47.2628 11.077 40.3343 10.9034L40.3296 10.8987Z" fill="#333333"/>
<path d="M71.5799 56.4131C71.0753 62.5117 69.5148 68.0099 66.4827 73.0483C66.0483 73.7707 65.4596 74.3712 64.5953 73.8317C63.8665 73.3766 64.0113 72.5932 64.4131 71.9599C67.4125 67.2358 68.6879 61.9722 69.2439 56.4835C69.3186 55.7282 69.4868 55.062 70.3885 54.9963C71.094 54.9447 71.5612 55.6437 71.5752 56.4131H71.5799Z" fill="#333333"/>
<path d="M58.0595 81.4129C57.5315 81.427 57.1905 81.108 56.9615 80.6952C56.6345 80.0994 56.9802 79.635 57.4054 79.2878C58.4799 78.4152 59.5872 77.5849 60.6851 76.7451C61.1523 76.3886 61.6522 76.2338 62.1427 76.6935C62.4931 77.0219 62.6847 77.4113 62.5352 77.932C62.3063 78.7342 58.8817 81.4223 58.0595 81.4176V81.4129Z" fill="#333333"/>
<path d="M40.3248 10.8987C47.258 11.0723 53.4717 11.3397 59.4144 13.5024C60.6384 13.948 62.5773 14.3421 62.5633 15.5008C62.5493 16.7487 60.5637 16.8472 59.363 17.2178C50.7339 19.8637 41.8712 19.7933 32.9992 19.3383C28.7337 19.1178 24.4682 18.7284 20.3896 17.2648C19.6701 17.0067 18.5862 16.8379 18.5208 16.0779C18.4414 15.1584 19.5066 14.7831 20.2634 14.4078C24.3841 12.3765 28.8458 11.715 33.3309 11.2412C35.8771 10.9738 38.456 10.9785 40.3201 10.894L40.3248 10.8987Z" fill="#F0CC44"/>
</g>
<path d="M9.39453 130.217V115.537H11.2545V121.697H18.0945V115.537H19.9345V130.217H18.0945V123.297H11.2545V130.217H9.39453ZM29.3653 130.477C25.6853 130.477 23.1053 127.537 23.1053 122.837C23.1053 118.137 25.6853 115.277 29.3653 115.277C33.0453 115.277 35.6253 118.137 35.6253 122.837C35.6253 127.537 33.0453 130.477 29.3653 130.477ZM29.3653 128.857C31.9853 128.857 33.7253 126.497 33.7253 122.837C33.7253 119.157 31.9853 116.897 29.3653 116.897C26.7253 116.897 25.0053 119.157 25.0053 122.837C25.0053 126.497 26.7253 128.857 29.3653 128.857ZM38.7891 130.217V115.537H40.7091L46.0491 124.797L47.6091 127.817H47.7091C47.6091 126.337 47.4691 124.697 47.4691 123.177V115.537H49.2291V130.217H47.3291L41.9891 120.957L40.4091 117.937H40.3291C40.4091 119.417 40.5491 120.977 40.5491 122.517V130.217H38.7891ZM53.2227 130.217V115.537H61.6827V117.117H55.0827V121.717H60.6427V123.297H55.0827V128.637H61.9027V130.217H53.2227ZM67.3605 130.217V124.517L62.9605 115.537H64.9405L66.8205 119.697C67.3005 120.777 67.7405 121.797 68.2605 122.897H68.3405C68.8605 121.797 69.3605 120.777 69.8005 119.697L71.7005 115.537H73.6205L69.2205 124.517V130.217H67.3605Z" fill="black"/>
<defs>
<clipPath id="clip0_626_404">
<rect width="81" height="92" fill="white" transform="translate(0 0.216797)"/>
</clipPath>
</defs>
</svg>
