<svg width="60" height="60" viewBox="0 0 60 60" fill="none" xmlns="http://www.w3.org/2000/svg">
<path id="Intersect" fill-rule="evenodd" clip-rule="evenodd" d="M60 30C60 46.5685 46.5685 60 30 60C13.4315 60 0 46.5685 0 30C0 13.4315 13.4315 0 30 0C46.5685 0 60 13.4315 60 30ZM34.3174 25.6827C37.9704 29.3395 37.9203 35.2023 34.3394 38.803C34.3375 38.8051 34.3355 38.8073 34.3334 38.8094C34.3313 38.8116 34.3293 38.8137 34.3272 38.8158L34.3174 38.8256L30.2087 42.9343C26.5848 46.5582 20.6891 46.5577 17.0658 42.9343C13.4419 39.3111 13.4419 33.4146 17.0658 29.7914L19.3345 27.5227C19.9361 26.9211 20.9722 27.3209 21.0033 28.1712C21.0429 29.2547 21.2372 30.3433 21.5957 31.3946C21.7171 31.7506 21.6304 32.1443 21.3644 32.4103L20.5643 33.2104C18.8507 34.924 18.797 37.7141 20.4936 39.4444C22.2071 41.1918 25.0234 41.2021 26.7499 39.4756L30.8586 35.3675C32.5823 33.6439 32.575 30.8579 30.8586 29.1415C30.6323 28.9156 30.4044 28.7401 30.2264 28.6176C30.1004 28.5311 29.9964 28.4163 29.9227 28.2825C29.8489 28.1487 29.8075 27.9995 29.8016 27.8468C29.7774 27.2007 30.0063 26.535 30.5168 26.0244L31.8041 24.7371C32.1417 24.3995 32.6712 24.3581 33.0626 24.6313C33.5109 24.9443 33.9308 25.2961 34.3174 25.6827ZM42.9343 17.0653C39.311 13.442 33.4153 13.4415 29.7914 17.0653L25.6827 21.174L25.6826 21.1741C25.6783 21.1784 25.6737 21.183 25.6693 21.1875C25.6663 21.1906 25.6634 21.1937 25.6607 21.1966C22.0799 24.7974 22.0297 30.6602 25.6827 34.317C26.0693 34.7035 26.4891 35.0554 26.9374 35.3683C27.3288 35.6415 27.8584 35.6 28.1959 35.2625L29.4832 33.9752C29.9937 33.4647 30.2226 32.7989 30.1984 32.1528C30.1926 32.0001 30.1511 31.8509 30.0774 31.7171C30.0036 31.5833 29.8996 31.4685 29.7737 31.3821C29.5956 31.2595 29.3677 31.084 29.1414 30.8581C27.425 29.1417 27.4178 26.3558 29.1414 24.6321L33.2501 20.524C34.9767 18.7975 37.7929 18.8079 39.5064 20.5552C41.2031 22.2855 41.1494 25.0756 39.4358 26.7892L38.6356 27.5893C38.3697 27.8553 38.2829 28.2491 38.4043 28.605C38.7629 29.6563 38.9572 30.7449 38.9968 31.8284C39.0279 32.6787 40.0639 33.0785 40.6656 32.4769L42.9343 30.2082C46.5582 26.585 46.5582 20.6886 42.9343 17.0653Z" fill="#76502F"/>
</svg>
