<svg width="91" height="90" viewBox="0 0 91 90" fill="none" xmlns="http://www.w3.org/2000/svg">
<circle cx="45.5" cy="45" r="45" fill="#FEE500"/>
<path d="M45.63 21.7183C31.6295 21.7183 20.3389 30.7507 20.3389 41.7162C20.3389 48.8339 25.0358 55.0663 32.0812 58.6251L29.6966 67.5313C29.6516 67.6648 29.6447 67.808 29.6766 67.9452C29.7085 68.0824 29.778 68.208 29.8772 68.308C30.022 68.4356 30.2082 68.5062 30.4011 68.5067C30.5611 68.4938 30.7129 68.4306 30.8347 68.326L41.0956 61.4072C42.6103 61.6163 44.1371 61.7248 45.6661 61.7322C59.6485 61.7322 70.9572 52.6998 70.9572 41.7162C70.9572 30.7326 59.6124 21.7183 45.63 21.7183Z" fill="#392020"/>
<path d="M29.1904 38.5549H26.4264C26.0838 38.5648 25.7455 38.4771 25.4509 38.3019C25.3201 38.22 25.2076 38.1119 25.1206 37.9844C25.0335 37.8569 24.9738 37.7129 24.9451 37.5612C24.9363 37.4651 24.9363 37.3685 24.9451 37.2723C24.9365 37.0924 24.9714 36.913 25.0469 36.7495C25.1223 36.5859 25.2361 36.4431 25.3786 36.3329C25.6936 36.1048 26.0737 35.9843 26.4625 35.9896H34.7905C35.1358 35.9774 35.4765 36.0721 35.766 36.2606C35.8999 36.3389 36.0147 36.4461 36.1022 36.5742C36.1897 36.7022 36.2476 36.8481 36.2719 37.0013C36.2807 37.0914 36.2807 37.1822 36.2719 37.2723C36.2804 37.4548 36.2455 37.6367 36.1702 37.8031C36.0948 37.9696 35.9811 38.1156 35.8383 38.2296C35.531 38.4574 35.1546 38.5724 34.7725 38.5549H32.0988V48.0571C32.1097 48.2596 32.0784 48.462 32.0068 48.6517C31.9353 48.8414 31.8251 49.0142 31.6833 49.1591C31.5473 49.2976 31.3839 49.4062 31.2034 49.4777C31.023 49.5493 30.8295 49.5822 30.6356 49.5745C30.2963 49.5842 29.9642 49.4758 29.6962 49.2676C29.441 49.0642 29.2678 48.7754 29.2084 48.4545C29.1906 48.3226 29.1906 48.189 29.2084 48.0571L29.1904 38.5549Z" fill="#FEE500"/>
<path d="M37.0694 36.694C37.1488 36.3967 37.3354 36.1393 37.5933 35.9714C37.868 35.8157 38.181 35.7405 38.4965 35.7546H39.183C39.5177 35.7426 39.8492 35.8239 40.1404 35.9895C40.449 36.197 40.6683 36.5129 40.7546 36.8746L44.3677 47.0814C44.4613 47.3477 44.5397 47.6193 44.6025 47.8945C44.6087 48.0088 44.6087 48.1233 44.6025 48.2376C44.6086 48.4137 44.5762 48.589 44.5076 48.7512C44.4389 48.9135 44.3357 49.0588 44.2051 49.1771C44.0785 49.3068 43.9266 49.409 43.7587 49.4774C43.5909 49.5458 43.4107 49.5788 43.2296 49.5744C42.9509 49.6021 42.6711 49.5353 42.4351 49.3846C42.1992 49.2338 42.0208 49.008 41.9289 48.7435L41.1701 46.5215H36.419L35.6603 48.7435C35.5705 49.0132 35.3901 49.2434 35.1496 49.3949C34.9091 49.5465 34.6235 49.6099 34.3415 49.5744C34.0361 49.5824 33.7368 49.4869 33.4925 49.3034C33.2544 49.1141 33.0938 48.8444 33.0408 48.5448C33.0313 48.4427 33.0313 48.3398 33.0408 48.2376C33.0098 48.0583 33.0098 47.8751 33.0408 47.6958C33.0408 47.4971 33.1673 47.2802 33.2396 47.0814L37.0694 36.694ZM38.8759 39.0606L37.1597 44.4802H40.574L38.8759 39.0606Z" fill="#FEE500"/>
<path d="M45.0162 37.2725C44.9979 36.8671 45.1407 36.471 45.4136 36.1706C45.5524 36.0307 45.7189 35.9213 45.9025 35.8497C46.0861 35.7782 46.2827 35.7458 46.4795 35.7549C46.8179 35.751 47.1481 35.859 47.4189 36.0621C47.6698 36.274 47.8364 36.5688 47.8886 36.893C47.9064 37.0189 47.9064 37.1467 47.8886 37.2725V46.7748H52.8565C53.2008 46.7703 53.5393 46.8641 53.832 47.0456C53.9635 47.1267 54.0765 47.2347 54.1637 47.3623C54.2508 47.4899 54.3101 47.6343 54.3378 47.7863C54.3378 47.7863 54.3378 47.967 54.3378 48.0574C54.3464 48.2373 54.3115 48.4165 54.236 48.58C54.1605 48.7435 54.0467 48.8866 53.9042 48.9968C53.5893 49.2249 53.2092 49.3451 52.8203 49.3399H46.7143C46.3254 49.3649 45.9389 49.2637 45.6124 49.051C45.3203 48.8326 45.1257 48.5083 45.0704 48.1478C45.0572 47.9493 45.0572 47.75 45.0704 47.5515L45.0162 37.2725Z" fill="#FEE500"/>
<path d="M54.6628 37.2725C54.652 36.8683 54.7939 36.4748 55.0602 36.1705C55.331 35.9245 55.6783 35.7792 56.0436 35.7595C56.4088 35.7397 56.7698 35.8466 57.0655 36.062C57.3218 36.2721 57.4948 36.5667 57.5532 36.893C57.5621 37.0193 57.5621 37.1462 57.5532 37.2725V41.6983L62.1237 36.4233C62.2998 36.2433 62.4868 36.0745 62.6837 35.9176C62.8692 35.8071 63.082 35.7506 63.2979 35.7549C63.6136 35.7531 63.9224 35.8477 64.1831 36.0259C64.3059 36.1086 64.4108 36.2153 64.4915 36.3395C64.5722 36.4636 64.6271 36.6027 64.6528 36.7485C64.6601 36.7843 64.6601 36.8213 64.6528 36.857C64.644 36.8987 64.644 36.9417 64.6528 36.9834C64.6522 37.1735 64.6024 37.3603 64.5083 37.5254C64.4124 37.7003 64.2973 37.8637 64.165 38.013L61.1662 41.301L64.7792 46.9011V47.0817C64.9668 47.3406 65.1131 47.6272 65.2128 47.9309V48.0211C65.2337 48.2304 65.2035 48.4417 65.1249 48.6368C65.0462 48.8319 64.9214 49.0049 64.7612 49.1412C64.4598 49.3689 64.0911 49.4898 63.7134 49.4845C63.4624 49.4948 63.2132 49.4386 62.9908 49.3218C62.7502 49.1604 62.5519 48.9436 62.4127 48.6895L59.0526 43.27L57.4448 44.9501V47.9669C57.4556 48.3711 57.3137 48.7645 57.0474 49.0688C56.9046 49.2084 56.7348 49.3173 56.5484 49.3888C56.362 49.4603 56.1629 49.4928 55.9635 49.4845C55.6301 49.4915 55.3046 49.3829 55.0422 49.1773C54.787 48.9739 54.6138 48.6853 54.5544 48.3645C54.5366 48.2326 54.5366 48.0988 54.5544 47.9669L54.6628 37.2725Z" fill="#FEE500"/>
</svg>
