<svg width="178" height="25" viewBox="0 0 178 25" fill="none" xmlns="http://www.w3.org/2000/svg">
<g clip-path="url(#clip0_336_428)">
<path d="M10.4745 21.5664L13.9661 6.7032C14.1149 6.06491 14.195 5.42661 14.195 4.80134C14.195 4.52779 14.1607 4.11094 14.1035 3.53778C14.0462 2.96461 13.7829 2.30027 13.3365 1.55776C13.2678 1.44052 13.2334 1.33631 13.2334 1.2321C13.2334 1.19302 13.2334 1.14091 13.2678 1.04973C13.3021 0.958544 13.3479 0.867358 13.4509 0.776173C13.5425 0.724068 13.6455 0.684988 13.7371 0.684988C13.76 0.684988 13.8058 0.684988 13.8859 0.698015C13.9661 0.698015 14.0462 0.776173 14.1263 0.906438C14.6529 1.79224 14.9849 2.75619 15.1108 3.79831C15.1566 4.15002 15.1681 4.48871 15.1681 4.82739C15.1681 5.54385 15.0765 6.27333 14.9048 6.98978C14.756 7.61505 14.4812 8.73532 14.1035 10.3376C13.7371 11.9138 13.3365 13.5812 12.9243 15.3788C12.5122 17.1765 12.1459 18.7005 11.8483 19.9771C11.5506 21.2537 11.3904 21.9311 11.3675 21.9832C11.4819 22.2177 11.8254 22.4522 12.4092 22.6997C13.0617 22.9732 13.8745 23.1426 14.8361 23.2077C14.9964 23.2077 15.1681 23.2207 15.3398 23.2207C16.0839 23.2207 16.8967 23.1035 17.7896 22.869C18.6711 22.6345 19.5525 22.1656 20.4226 21.4752C20.4226 21.2668 20.4684 21.0453 20.5142 20.8239C21.2239 17.6845 21.9451 14.5451 22.6892 11.4188C23.067 9.84257 23.4448 8.26637 23.8111 6.69017C23.9599 6.05188 24.04 5.42661 24.04 4.80134C24.04 4.52779 24.0057 4.11094 23.9485 3.52475C23.8912 2.93856 23.6279 2.27421 23.1815 1.53171C23.1128 1.41447 23.0784 1.31026 23.0784 1.20605C23.0784 1.16697 23.0784 1.11486 23.1013 1.02368C23.1128 0.932491 23.1815 0.841306 23.2959 0.750121C23.3761 0.698015 23.4677 0.658936 23.5707 0.658936C23.605 0.658936 23.6508 0.658936 23.731 0.671962C23.8111 0.671962 23.8912 0.750121 23.9828 0.880385C24.5094 1.76618 24.8414 2.73014 24.9673 3.77225C25.0016 4.11094 25.0131 4.4366 25.0131 4.76226C25.0131 5.49174 24.933 6.23425 24.7727 6.96373C24.7727 6.96373 24.7383 7.02886 24.7155 7.15913C24.5666 7.8365 24.2461 9.20428 23.7653 11.2625C23.2845 13.3206 22.8151 15.3528 22.3458 17.3588C21.8764 19.3649 21.5902 20.6024 21.4758 21.0974C21.43 21.3058 21.3956 21.5012 21.3956 21.6706C21.3956 22.0223 21.4987 22.361 21.6933 22.6997C21.8879 23.0383 22.2656 23.2077 22.8037 23.2077C23.3761 23.2077 23.9256 22.9732 24.4407 22.5043C24.9559 22.0353 25.2993 21.4752 25.4596 20.8239C25.5053 20.6675 25.574 20.5503 25.6885 20.4721C25.7572 20.42 25.8373 20.407 25.9175 20.407C25.9633 20.407 26.009 20.407 26.0548 20.42C26.1922 20.4721 26.2952 20.5503 26.3639 20.6806C26.4097 20.7587 26.4212 20.8499 26.4212 20.9541C26.4212 21.0062 26.4212 21.0453 26.4097 21.0974C26.1693 22.0093 25.7114 22.7648 25.0245 23.3901C24.3377 24.0153 23.5936 24.328 22.8037 24.328C22.3 24.328 21.8535 24.1847 21.4529 23.8981C21.0522 23.6115 20.766 23.2077 20.5828 22.6866C19.667 23.338 18.694 23.7809 17.6866 24.0284C16.8738 24.2238 16.0953 24.328 15.3398 24.328C15.1566 24.328 14.9735 24.328 14.8018 24.3149C14.092 24.2759 13.3365 24.1456 12.5351 23.8981C11.7223 23.6506 11.1042 23.2728 10.6806 22.7518C9.76478 23.377 8.80318 23.8199 7.81868 24.0544C7.01734 24.2368 6.25034 24.328 5.51769 24.328C5.33453 24.328 5.15137 24.328 4.9682 24.3149C3.90357 24.2498 2.9992 24.0544 2.2551 23.7418C1.76285 23.5464 1.35073 23.2728 0.995857 22.9341C0.721112 22.6606 0.58374 22.3349 0.58374 21.9962C0.58374 21.905 0.58374 21.8139 0.618083 21.7227L4.13252 6.7032C4.28134 6.06491 4.36148 5.42661 4.36148 4.80134C4.36148 4.52779 4.32713 4.11094 4.26989 3.53778C4.21266 2.96461 3.94936 2.30027 3.5029 1.55776C3.44566 1.45355 3.41132 1.33631 3.41132 1.2321C3.41132 1.20605 3.41132 1.15394 3.43421 1.06275C3.44566 0.97157 3.51435 0.880385 3.62882 0.7892C3.70896 0.737094 3.80054 0.698015 3.90357 0.698015C3.92646 0.698015 3.97225 0.698015 4.05239 0.711041C4.13252 0.711041 4.21266 0.7892 4.29279 0.919464C4.83083 1.80526 5.16281 2.76922 5.27729 3.81133C5.32308 4.16305 5.33453 4.50173 5.33453 4.84042C5.33453 5.55687 5.24295 6.28635 5.07123 7.00281C4.93386 7.56294 4.70491 8.53993 4.38437 9.93376C4.01804 11.51 3.61738 13.2164 3.18236 15.0662C2.74735 16.9159 2.36958 18.5182 2.04904 19.8599C1.72851 21.2016 1.55679 21.9181 1.55679 21.9832C1.67127 22.2177 2.0147 22.4522 2.58708 22.6997C3.2396 22.9732 4.05239 23.1426 5.01399 23.2077C5.17426 23.2077 5.34598 23.2207 5.51769 23.2207C6.2389 23.2207 7.04023 23.1165 7.89881 22.8951C8.75739 22.6736 9.62741 22.2307 10.486 21.5664H10.4745Z" fill="#231815" stroke="#231815" stroke-width="1.33325" stroke-miterlimit="10"/>
<path d="M36.0145 17.9581C36.1175 17.5152 36.1633 17.0853 36.1633 16.6815C36.1633 16.2776 36.0946 15.7957 35.9458 15.2355C35.7969 14.6884 35.465 14.1804 34.9155 13.7245C34.3774 13.2685 33.6906 13.0471 32.8663 13.0471C31.5956 13.0471 30.4051 13.5551 29.2947 14.5712C28.1842 15.5872 27.4401 16.8117 27.0738 18.2577L26.4098 21.1235C26.3641 21.2798 26.2954 21.384 26.1809 21.4491C26.1008 21.5012 26.0206 21.5403 25.9405 21.5403C25.8947 21.5403 25.8604 21.5403 25.8146 21.5273C25.6772 21.4752 25.5742 21.397 25.5055 21.2668C25.4597 21.1886 25.4482 21.0974 25.4482 20.9932C25.4482 20.9411 25.4482 20.902 25.4597 20.8499L28.7566 6.71625C28.9054 6.07795 28.9856 5.43965 28.9856 4.81439C28.9856 4.54083 28.9512 4.12399 28.894 3.55082C28.8368 2.97766 28.5735 2.31331 28.1156 1.5708C28.0698 1.46659 28.0354 1.34935 28.0354 1.24514C28.0354 1.21909 28.0354 1.16698 28.0469 1.0758C28.0469 0.984615 28.1156 0.89343 28.23 0.802245C28.3216 0.750139 28.4132 0.71106 28.5048 0.71106C28.5391 0.71106 28.5849 0.71106 28.665 0.724086C28.7452 0.724086 28.8253 0.802245 28.9054 0.932509C29.4549 1.84436 29.7869 2.82134 29.9014 3.86346C29.9357 4.17609 29.9472 4.48873 29.9472 4.78833C29.9472 5.53084 29.8556 6.27335 29.6839 7.01585L27.9553 14.4539C28.6193 13.6984 29.3748 13.0992 30.2334 12.6433C31.0919 12.1873 31.962 11.9659 32.8663 11.9659C33.7707 11.9659 34.5034 12.2004 35.2017 12.6563C35.9 13.1122 36.4266 13.7896 36.7814 14.6754L38.636 6.72927C38.7733 6.09098 38.8535 5.45268 38.8535 4.82741C38.8535 4.56688 38.8306 4.15004 38.7733 3.57687C38.7161 3.00371 38.4643 2.33936 38.0178 1.58383C37.9606 1.46659 37.9262 1.36238 37.9262 1.25817C37.9262 1.21909 37.9262 1.16698 37.9377 1.0758C37.9491 0.984615 38.0063 0.89343 38.1208 0.802245C38.2124 0.750139 38.304 0.71106 38.3956 0.71106C38.4299 0.71106 38.4757 0.71106 38.5558 0.724086C38.636 0.724086 38.7161 0.802245 38.8077 0.932509C39.3457 1.83133 39.6777 2.80832 39.7922 3.86346C39.8265 4.17609 39.838 4.50175 39.838 4.82741C39.838 5.55689 39.7464 6.2994 39.5747 7.02888L36.9875 18.1795L36.3006 21.1495C36.2549 21.358 36.2205 21.5534 36.2205 21.7227C36.2205 22.0614 36.3235 22.4001 36.5182 22.7388C36.7128 23.0774 37.0905 23.2598 37.6286 23.2598C38.2124 23.2598 38.7619 23.0253 39.2656 22.5564C39.7807 22.0874 40.1127 21.5273 40.273 20.876C40.3188 20.7197 40.3875 20.6024 40.5019 20.5243C40.5706 20.4722 40.6508 20.4591 40.7423 20.4591C40.7881 20.4591 40.8225 20.4591 40.8683 20.4722C41.0056 20.5243 41.1087 20.6024 41.1774 20.7327C41.2231 20.8108 41.2346 20.902 41.2346 21.0062C41.2346 21.0583 41.2346 21.0974 41.2231 21.1495C40.9827 22.0614 40.5248 22.8169 39.838 23.4422C39.1511 24.0675 38.407 24.3801 37.6171 24.3801C36.7586 24.3801 36.1175 24.0284 35.6825 23.338C35.3848 22.869 35.236 22.348 35.236 21.7487C35.236 21.4752 35.2704 21.1756 35.3276 20.876L36.003 17.9971L36.0145 17.9581Z" fill="#231815" stroke="#231815" stroke-width="1.33325" stroke-miterlimit="10"/>
<path d="M44.52 6.98985C44.1422 8.57908 43.7644 10.1813 43.3981 11.7706C42.6769 14.8839 41.9443 17.9972 41.2231 21.1105C41.1773 21.3189 41.1429 21.5143 41.1429 21.6837C41.1429 22.0224 41.246 22.361 41.4406 22.6997C41.6352 23.0384 42.0129 23.2208 42.551 23.2208C43.1348 23.2208 43.6843 22.9863 44.188 22.5174C44.6917 22.0484 45.0351 21.4883 45.1954 20.8369C45.2412 20.6806 45.3099 20.5634 45.4244 20.4852C45.493 20.4331 45.5732 20.4201 45.6648 20.4201C45.7105 20.4201 45.7563 20.4201 45.8021 20.4331C45.9395 20.4852 46.0311 20.5634 46.0883 20.6937C46.1341 20.7718 46.1456 20.863 46.1456 20.9672C46.1456 21.0193 46.1456 21.0584 46.1341 21.1105C45.9052 22.0224 45.4472 22.7779 44.7604 23.4032C44.0735 24.0284 43.3294 24.3411 42.5281 24.3411C41.6695 24.3411 41.0284 23.9893 40.5934 23.2989C40.2958 22.83 40.147 22.3089 40.147 21.7097C40.147 21.4362 40.1813 21.1366 40.2386 20.8369L43.5355 6.70327C43.6843 6.078 43.7644 5.45273 43.7644 4.84049C43.7644 4.56694 43.7415 4.15009 43.6843 3.5639C43.6271 2.97771 43.3752 2.31336 42.9059 1.55783C42.8486 1.44059 42.8143 1.33638 42.8143 1.23217C42.8143 1.19309 42.8143 1.14098 42.8372 1.0498C42.8486 0.958614 42.9059 0.867429 43.0089 0.776244C43.1005 0.724138 43.2035 0.685059 43.2951 0.685059C43.318 0.685059 43.3638 0.685059 43.4439 0.698085C43.524 0.711111 43.6042 0.776244 43.6843 0.906508C44.2223 1.80533 44.5543 2.78231 44.6688 3.83746C44.7032 4.16312 44.7146 4.48878 44.7146 4.82746C44.7146 5.54392 44.6345 6.2734 44.4742 6.98985H44.52Z" fill="#231815" stroke="#231815" stroke-width="1.33325" stroke-miterlimit="10"/>
<path d="M46.1685 21.1105L45.9854 21.9963C45.9854 21.9963 46.0083 22.0744 46.0655 22.1135C46.1113 22.1656 46.18 22.2177 46.2601 22.2698C46.5578 22.5043 46.9813 22.6997 47.5308 22.8821C48.3092 23.1035 49.0991 23.2077 49.889 23.2077C50.6789 23.2077 51.4574 23.1035 52.2701 22.8951C53.2089 22.6346 54.1018 22.1786 54.9489 21.5143L55.796 17.9581C55.8991 17.4891 55.9449 17.0592 55.9449 16.6554C55.9449 16.2516 55.8762 15.7827 55.7273 15.2355C55.59 14.6884 55.2465 14.1804 54.6971 13.7245C54.1476 13.2686 53.4722 13.0471 52.6479 13.0471C51.9153 13.0471 51.1712 12.9689 50.4271 12.8387C49.683 12.7084 48.9847 12.4088 48.355 11.9529C47.8857 11.5751 47.6453 11.1583 47.6453 10.7023V10.6112C47.6453 10.6112 47.6682 10.507 47.6796 10.4548L48.5496 6.70324C48.6985 6.06494 48.7786 5.42664 48.7786 4.80138C48.7786 4.52782 48.7443 4.11098 48.687 3.53781C48.6298 2.96465 48.3665 2.3003 47.92 1.55779C47.8742 1.45358 47.8399 1.33635 47.8399 1.23213C47.8399 1.20608 47.8399 1.15398 47.8513 1.06279C47.8513 0.971605 47.92 0.88042 48.0345 0.789235C48.1261 0.737129 48.2177 0.69805 48.3092 0.69805C48.3436 0.69805 48.3894 0.69805 48.4695 0.711076C48.5496 0.711076 48.6298 0.789235 48.7099 0.919499C49.2937 1.87043 49.6257 2.92557 49.7173 4.05887C50.3927 3.04281 51.2284 2.23517 52.2129 1.6099C53.1974 0.984631 54.2277 0.671997 55.2923 0.671997C56.357 0.671997 57.1927 0.971605 57.9024 1.55779C58.6122 2.14398 59.093 2.91254 59.3563 3.86347C59.4936 4.35848 59.5509 4.86651 59.5509 5.40059C59.5509 5.93468 59.4936 6.44271 59.3677 7.00284C59.3334 7.15916 59.2647 7.26337 59.1388 7.3285C59.0701 7.38061 58.9899 7.39364 58.9098 7.39364C58.864 7.39364 58.8182 7.39364 58.7724 7.38061C58.6351 7.3285 58.5435 7.25034 58.4862 7.12008C58.4404 7.04192 58.429 6.95074 58.429 6.85955C58.429 6.80745 58.429 6.75534 58.4404 6.70324C58.5435 6.26034 58.5893 5.83046 58.5893 5.42664C58.5893 5.02283 58.5206 4.54085 58.3718 3.98071C58.2229 3.42057 57.891 2.91254 57.3415 2.45662C56.792 2.00069 56.1166 1.77924 55.2923 1.77924C54.0102 1.77924 52.8196 2.28727 51.7092 3.30334C50.5988 4.3194 49.8661 5.55691 49.4884 6.98982L48.6183 10.7284C48.6183 10.7284 48.7099 10.8847 48.8931 11.028C49.4082 11.4058 50.0035 11.6403 50.7018 11.7575C51.4001 11.8747 52.0412 11.9268 52.6365 11.9268C53.6668 11.9268 54.5368 12.2264 55.2465 12.8126C55.9563 13.3988 56.4371 14.1674 56.7004 15.1183C56.8378 15.6133 56.895 16.1213 56.895 16.6554C56.895 17.1504 56.8378 17.6845 56.7118 18.2447L56.0479 21.0844C56.0021 21.3059 55.9677 21.5143 55.9677 21.6967C55.9677 22.0484 56.0708 22.3871 56.2654 22.7127C56.46 23.0384 56.8263 23.2077 57.3644 23.2077C57.9482 23.2077 58.4977 22.9732 59.0014 22.5043C59.5165 22.0353 59.86 21.4752 60.0317 20.8239C60.0775 20.6676 60.1462 20.5503 60.2606 20.4722C60.3408 20.4201 60.4209 20.407 60.501 20.407C60.5468 20.407 60.5812 20.407 60.627 20.4201C60.7643 20.4722 60.8559 20.5503 60.9131 20.6806C60.9589 20.7718 60.9933 20.863 60.9933 20.9542C60.9933 21.0063 60.9933 21.0453 60.9818 21.0974C60.7414 22.0093 60.2835 22.7648 59.5967 23.3901C58.9098 24.0154 58.1657 24.328 57.3529 24.328C56.8149 24.328 56.3455 24.1717 55.9677 23.8721C55.59 23.5725 55.3152 23.1686 55.1435 22.6867C54.159 23.3901 53.1173 23.846 51.9954 24.0805C51.2742 24.2368 50.5415 24.328 49.8203 24.328C49.454 24.328 49.0762 24.3019 48.6985 24.2629C47.5537 24.1456 46.5463 23.7939 45.6648 23.1947C45.1955 22.83 44.9551 22.4261 44.9551 21.9572V21.866C44.9551 21.7878 44.9894 21.6706 45.0238 21.5143C45.0581 21.358 45.0924 21.2147 45.1268 21.0584C45.1497 20.9672 45.1611 20.889 45.1726 20.8109C45.2184 20.6545 45.2871 20.5503 45.4015 20.4852C45.4817 20.4331 45.5733 20.394 45.6648 20.394C45.6992 20.394 45.7335 20.394 45.7679 20.407C45.9052 20.4461 46.0083 20.5243 46.077 20.6545C46.1227 20.7327 46.1342 20.8239 46.1342 20.9281C46.1342 20.9802 46.1342 21.0323 46.1227 21.0844L46.1685 21.1105Z" fill="#231815" stroke="#231815" stroke-width="1.33325" stroke-miterlimit="10"/>
<path d="M60.0546 20.8369L63.3515 6.70318C63.5003 6.06489 63.5804 5.42659 63.5804 4.80132C63.5804 4.52777 63.5461 4.11092 63.4889 3.53776C63.4316 2.9646 63.1683 2.30025 62.7104 1.55774C62.6646 1.45353 62.6303 1.33629 62.6303 1.23208C62.6303 1.20603 62.6303 1.15392 62.6417 1.06274C62.6417 0.971553 62.7104 0.880368 62.8249 0.789183C62.9165 0.737077 63.0081 0.697998 63.0996 0.697998C63.134 0.697998 63.1798 0.697998 63.2599 0.711025C63.34 0.711025 63.4202 0.789183 63.5003 0.919447C64.0383 1.80524 64.3703 2.7692 64.4963 3.81132C64.5306 4.12395 64.542 4.44961 64.542 4.77527C64.542 5.50475 64.4505 6.24726 64.2787 7.00279L62.5501 14.4409C63.2141 13.6723 63.9697 13.0601 64.8282 12.6172C65.6868 12.1743 66.5568 11.9398 67.4612 11.9398H67.7245C68.606 11.8877 69.4531 11.7184 70.2659 11.4188C70.9756 11.1452 71.6511 10.7674 72.2692 10.2724L73.0935 6.71621C73.2423 6.09094 73.3224 5.46567 73.3224 4.85343C73.3224 4.57987 73.2881 4.15 73.2308 3.56381C73.1736 2.97762 72.9103 2.31328 72.4638 1.57077C72.418 1.46656 72.3837 1.34932 72.3837 1.24511C72.3837 1.21906 72.3837 1.16695 72.3952 1.07576C72.3952 0.98458 72.4638 0.893395 72.5783 0.80221C72.6699 0.750104 72.7615 0.711025 72.8531 0.711025C72.8874 0.711025 72.9332 0.711025 73.0133 0.724051C73.0935 0.724051 73.1736 0.80221 73.2537 0.932474C73.7918 1.81827 74.1238 2.78223 74.2382 3.82434C74.284 4.16303 74.2955 4.50172 74.2955 4.85343C74.2955 5.55686 74.2039 6.28634 74.0322 7.01582L73.1621 10.7674C73.1164 10.9107 73.0477 11.0149 72.9446 11.0931C72.212 11.6923 71.4221 12.1613 70.5635 12.4739C70.3346 12.5651 70.1171 12.6432 69.8881 12.6953C70.6551 13.2685 71.1817 14.0501 71.4793 15.0271C71.6396 15.5221 71.7197 16.0562 71.7197 16.6163C71.7197 17.1374 71.6511 17.6845 71.5022 18.2576L70.781 21.1365C70.7352 21.3319 70.7009 21.5142 70.7009 21.6966C70.7009 21.9441 70.7581 22.2046 70.8726 22.5042C70.9871 22.7908 71.2389 23.0123 71.6396 23.1686C71.7999 23.2207 71.9716 23.2337 72.1319 23.2337C72.6127 23.2337 73.1278 23.0253 73.6658 22.6085C74.2039 22.1916 74.5817 21.6054 74.7877 20.8499C74.8221 20.6936 74.8907 20.5763 75.0167 20.4982C75.0854 20.4461 75.1655 20.433 75.2571 20.433C75.3029 20.433 75.3372 20.433 75.383 20.4461C75.5204 20.4982 75.6119 20.5763 75.6692 20.7066C75.715 20.7848 75.7264 20.8759 75.7264 20.9671C75.7264 21.0192 75.7264 21.0713 75.715 21.1234C75.486 22.0353 75.0396 22.7908 74.3527 23.4161C73.6658 24.0414 72.9217 24.354 72.109 24.354C71.2504 24.354 70.6093 24.0023 70.1743 23.3119C69.8767 22.8429 69.7278 22.3219 69.7278 21.7227C69.7278 21.4491 69.7622 21.1495 69.8309 20.8369L70.5521 17.971C70.6666 17.5021 70.7238 17.0592 70.7238 16.6424C70.7238 16.2516 70.6551 15.7826 70.5063 15.2355C70.3575 14.6884 70.014 14.1934 69.4645 13.7375C68.9151 13.2815 68.2396 13.0601 67.4154 13.0601C66.1447 13.0601 64.9542 13.5681 63.8552 14.5842C62.7448 15.6002 62.0007 16.8247 61.6229 18.2707L60.9589 21.1365C60.9131 21.2928 60.8444 21.397 60.73 21.4621C60.6498 21.5142 60.5697 21.5533 60.4896 21.5533C60.4438 21.5533 60.4094 21.5533 60.3636 21.5403C60.2263 21.4882 60.1232 21.41 60.0546 21.2798C60.0088 21.2016 59.9973 21.1104 59.9973 21.0062C59.9973 20.9541 59.9973 20.915 60.0088 20.8629L60.0546 20.8369Z" fill="#231815" stroke="#231815" stroke-width="1.33325" stroke-miterlimit="10"/>
<path d="M82.2401 13.0471C80.9694 13.0471 79.7789 13.5551 78.6684 14.5711C77.558 15.5872 76.8139 16.8117 76.4361 18.2576L75.5661 21.9962C75.7035 22.2698 76.0011 22.4912 76.459 22.6606C76.9169 22.8299 77.3977 22.9732 77.89 23.0644C78.3822 23.1556 78.76 23.2077 79.0119 23.2207C79.1721 23.2207 79.3438 23.2337 79.5156 23.2337C80.2711 23.2337 81.0953 23.1165 81.9883 22.882C82.8812 22.6475 83.7512 22.1786 84.6098 21.4752C84.6327 21.2667 84.667 21.0583 84.7128 20.8499C84.7472 20.6936 84.8158 20.5763 84.9418 20.4982C85.0104 20.4461 85.0906 20.433 85.1707 20.433C85.2165 20.433 85.2623 20.433 85.3081 20.4461C85.4455 20.4982 85.537 20.5763 85.5943 20.7066C85.6401 20.7848 85.6515 20.8759 85.6515 20.9671C85.6515 21.0192 85.6515 21.0713 85.6401 21.1234C85.5943 21.3188 85.5828 21.5142 85.5828 21.6966C85.5828 22.0353 85.6744 22.374 85.869 22.7127C86.0636 23.0514 86.43 23.2337 86.968 23.2337C87.5518 23.2337 88.1013 22.9993 88.605 22.5303C89.1202 22.0613 89.4636 21.5012 89.6353 20.8499C89.6811 20.6936 89.7498 20.5763 89.8643 20.4982C89.933 20.4461 90.0131 20.433 90.0932 20.433C90.139 20.433 90.1848 20.433 90.2306 20.4461C90.368 20.4982 90.4595 20.5763 90.5168 20.7066C90.5626 20.7848 90.574 20.8759 90.574 20.9671C90.574 21.0192 90.574 21.0713 90.5626 21.1234C90.3336 22.0353 89.8872 22.7908 89.2003 23.4161C88.5134 24.0414 87.7693 24.354 86.9566 24.354C86.4185 24.354 85.9492 24.1977 85.5714 23.8981C85.1936 23.5985 84.9074 23.1946 84.7357 22.6996C83.8199 23.364 82.8468 23.8199 81.8394 24.0544C81.0267 24.2498 80.2482 24.354 79.4812 24.354C79.2981 24.354 79.1149 24.354 78.9432 24.341C78.5311 24.341 77.9587 24.2368 77.226 24.0674C76.4934 23.8981 75.8409 23.6245 75.2685 23.2467C74.7991 22.9341 74.5587 22.5303 74.5587 22.0483C74.5587 21.9571 74.5587 21.8529 74.5931 21.7487L78.1189 6.72924C78.2678 6.09094 78.3479 5.45265 78.3479 4.82738C78.3479 4.55382 78.3136 4.13698 78.2563 3.56381C78.1991 2.99065 77.9358 2.3263 77.4893 1.5838C77.4321 1.47958 77.3977 1.36235 77.3977 1.25813C77.3977 1.23208 77.3977 1.17998 77.4206 1.08879C77.4321 0.997606 77.5008 0.906421 77.6153 0.815236C77.6954 0.76313 77.787 0.724051 77.89 0.724051C77.9129 0.724051 77.9587 0.724051 78.0388 0.737077C78.1189 0.737077 78.1991 0.815236 78.2792 0.9455C78.863 1.89643 79.195 2.93854 79.2866 4.07184C79.962 3.06881 80.7977 2.26117 81.7822 1.6359C82.7667 1.01063 83.797 0.697998 84.8616 0.697998C85.9263 0.697998 86.762 0.997606 87.4717 1.5838C88.1815 2.16998 88.6623 2.93854 88.9256 3.88947C89.0629 4.38448 89.1202 4.89251 89.1202 5.42659C89.1202 5.96068 89.0629 6.46871 88.937 7.02884L88.067 10.7805C88.0212 10.9368 87.9525 11.041 87.838 11.1061C87.7693 11.1582 87.6892 11.1712 87.6091 11.1712C87.5633 11.1712 87.506 11.1713 87.4603 11.1582C87.3229 11.1061 87.2313 11.028 87.1741 10.8977C87.1283 10.8195 87.1168 10.7284 87.1168 10.6241C87.1168 10.572 87.1168 10.533 87.1283 10.4808L87.9983 6.72924C88.1013 6.27331 88.1471 5.84344 88.1471 5.42659C88.1471 5.0358 88.0784 4.55382 87.9296 4.00671C87.7922 3.4596 87.4488 2.95157 86.9108 2.49565C86.3727 2.03972 85.6859 1.81827 84.8616 1.81827C83.5909 1.81827 82.4004 2.3263 81.29 3.34236C80.1795 4.35843 79.4354 5.59594 79.0691 7.02884L77.3176 14.4409C77.9816 13.6854 78.7371 13.0861 79.5842 12.6302C80.4314 12.1873 81.3014 11.9528 82.2058 11.9528C82.3431 11.9528 82.4576 12.0049 82.5492 12.1092C82.6408 12.2134 82.698 12.3436 82.698 12.513C82.698 12.6693 82.6522 12.7996 82.5492 12.9038C82.4576 13.008 82.3317 13.0731 82.2058 13.0731L82.2401 13.0471Z" fill="#231815" stroke="#231815" stroke-width="1.33325" stroke-miterlimit="10"/>
<path d="M102.846 6.66419C102.995 6.03892 103.075 5.40063 103.075 4.76233C103.075 4.51483 103.052 4.11101 102.995 3.55087C102.938 2.99074 102.674 2.32639 102.205 1.55783C102.159 1.45362 102.125 1.33638 102.125 1.23217C102.125 1.20612 102.125 1.15401 102.136 1.06283C102.136 0.97164 102.205 0.880455 102.319 0.78927C102.411 0.737164 102.503 0.698085 102.594 0.698085C102.628 0.698085 102.674 0.698085 102.754 0.711112C102.835 0.711112 102.915 0.78927 102.995 0.919534C103.705 2.13099 104.071 3.42061 104.071 4.81444C104.071 5.51787 103.979 6.26037 103.785 7.01591C103.418 8.5921 103.052 10.1553 102.697 11.7315C101.976 14.8578 101.243 17.9972 100.499 21.1235C100.453 21.345 100.419 21.5534 100.419 21.7358C100.419 22.0875 100.522 22.4262 100.717 22.7518C100.911 23.0775 101.278 23.2468 101.816 23.2468C102.399 23.2468 102.949 23.0124 103.453 22.5434C103.968 22.0745 104.311 21.5143 104.483 20.863C104.529 20.7067 104.597 20.5894 104.712 20.5113C104.792 20.4592 104.872 20.4462 104.952 20.4462C104.998 20.4462 105.032 20.4462 105.078 20.4592C105.216 20.5113 105.307 20.5894 105.364 20.7197C105.41 20.8109 105.445 20.9021 105.445 20.9933C105.445 21.0454 105.445 21.0845 105.433 21.1366C105.193 22.0484 104.735 22.8039 104.048 23.4292C103.361 24.0545 102.617 24.3671 101.804 24.3671C101.266 24.3671 100.797 24.2108 100.419 23.9112C100.041 23.6116 99.7665 23.2078 99.5948 22.7258C98.6103 23.4292 97.5686 23.8851 96.4467 24.1196C95.7255 24.2759 94.9928 24.3671 94.2716 24.3671C93.9053 24.3671 93.5275 24.3411 93.1498 24.302C92.005 24.1847 90.9976 23.833 90.1161 23.2338C89.6468 22.8691 89.4064 22.4653 89.4064 21.9963V21.9051C89.4064 21.827 89.4407 21.7097 89.4751 21.5534C89.5094 21.3971 89.5437 21.2538 89.5781 21.0975C89.601 21.0063 89.6124 20.9281 89.6239 20.85C89.6697 20.6937 89.7384 20.5894 89.8528 20.5243C89.933 20.4722 90.0246 20.4331 90.1161 20.4331C90.1505 20.4331 90.1848 20.4331 90.2192 20.4462C90.3565 20.4852 90.4596 20.5634 90.5282 20.6937C90.574 20.7718 90.5855 20.863 90.5855 20.9672C90.5855 21.0193 90.5855 21.0714 90.574 21.1235L90.3909 22.0093C90.3909 22.0875 90.4596 22.1656 90.5855 22.2568C90.7229 22.348 90.8831 22.4392 91.0777 22.5304C91.2723 22.6216 91.4555 22.6997 91.6158 22.7649C91.776 22.83 91.8905 22.8691 91.9363 22.8951C92.7148 23.1166 93.5046 23.2208 94.2945 23.2208C95.0844 23.2208 95.8629 23.1166 96.6756 22.9082C97.6144 22.6476 98.5073 22.1917 99.3544 21.5274L101.85 10.7805C101.22 11.5491 100.488 12.1613 99.6521 12.6042C98.8164 13.0471 97.9234 13.2816 96.9618 13.2816C95.8629 13.2816 94.9585 12.969 94.2602 12.3567C93.5619 11.7445 93.104 10.9369 92.8636 9.94685C92.7605 9.4779 92.7148 9.00895 92.7148 8.51395C92.7148 7.92776 92.7834 7.32854 92.9323 6.70327C93.0811 6.06498 93.1612 5.42668 93.1612 4.80141C93.1612 4.52786 93.1269 4.11101 93.0696 3.53785C93.0124 2.96468 92.7491 2.30034 92.3026 1.55783C92.2454 1.44059 92.2111 1.33638 92.2111 1.23217C92.2111 1.19309 92.2111 1.14098 92.2225 1.0498C92.2339 0.958614 92.2912 0.867429 92.4057 0.776244C92.5087 0.724138 92.6003 0.685059 92.6919 0.685059C92.7262 0.685059 92.772 0.685059 92.8521 0.698085C92.9323 0.698085 93.0124 0.776244 93.0925 0.906508C93.6191 1.79231 93.9511 2.75626 94.077 3.79838C94.1228 4.15009 94.1343 4.48878 94.1343 4.82746C94.1343 5.54392 94.0427 6.2734 93.871 6.98985C93.7336 7.52394 93.6764 8.03197 93.6764 8.51395C93.6764 8.87868 93.7336 9.33461 93.8481 9.88172C93.9626 10.4288 94.2831 10.9499 94.8097 11.4319C95.3363 11.9138 96.046 12.1613 96.9504 12.1613C97.6258 12.1613 98.2669 12.0311 98.8622 11.7575C99.4574 11.484 100.018 11.1323 100.522 10.6763C101.632 9.60816 102.399 8.26644 102.812 6.66419H102.846Z" fill="#231815" stroke="#231815" stroke-width="1.33325" stroke-miterlimit="10"/>
<path d="M122.158 20.863C122.204 20.6936 122.273 20.5633 122.387 20.4852C122.456 20.4331 122.536 20.4201 122.616 20.4201C122.662 20.4201 122.719 20.4201 122.765 20.4331C122.902 20.4852 122.994 20.5633 123.051 20.6936C123.097 20.7718 123.108 20.863 123.108 20.9541C123.108 21.0062 123.108 21.0583 123.097 21.1105C123.051 21.3059 123.04 21.5012 123.04 21.6836C123.04 22.0223 123.131 22.361 123.326 22.6997C123.521 23.0384 123.887 23.2207 124.425 23.2207C125.009 23.2207 125.558 22.9863 126.062 22.5173C126.577 22.0484 126.921 21.4882 127.092 20.8369C127.138 20.6806 127.207 20.5633 127.321 20.4852C127.39 20.4331 127.47 20.4201 127.55 20.4201C127.596 20.4201 127.642 20.4201 127.688 20.4331C127.825 20.4852 127.916 20.5633 127.974 20.6936C128.019 20.7718 128.031 20.863 128.031 20.9541C128.031 21.0062 128.031 21.0583 128.019 21.1105C127.791 22.0223 127.344 22.7778 126.657 23.4031C125.97 24.0284 125.226 24.341 124.413 24.341C123.91 24.341 123.463 24.1977 123.063 23.9111C122.662 23.6246 122.376 23.2207 122.193 22.6867C121.277 23.351 120.304 23.8069 119.296 24.0414C118.484 24.2368 117.705 24.341 116.938 24.341C116.755 24.341 116.572 24.341 116.4 24.328C115.988 24.328 115.416 24.2238 114.683 24.0544C113.95 23.8851 113.298 23.6115 112.725 23.2338C112.256 22.9211 112.016 22.5173 112.016 22.0353C112.016 21.9441 112.016 21.8399 112.05 21.7357L115.576 6.71625C115.725 6.07795 115.805 5.43965 115.805 4.81439C115.805 4.54083 115.77 4.12399 115.713 3.55082C115.656 2.97766 115.393 2.31331 114.946 1.5708C114.889 1.46659 114.855 1.34935 114.855 1.24514C114.855 1.21909 114.855 1.16698 114.878 1.0758C114.889 0.984615 114.958 0.89343 115.072 0.802245C115.152 0.750139 115.244 0.71106 115.347 0.71106C115.37 0.71106 115.416 0.71106 115.496 0.724086C115.576 0.737112 115.656 0.802245 115.736 0.932509C116.274 1.81831 116.606 2.78226 116.721 3.82438C116.766 4.16306 116.778 4.50175 116.778 4.85347C116.778 5.55689 116.686 6.28637 116.515 7.01585L112.989 22.0093C113.126 22.2828 113.424 22.5043 113.882 22.6736C114.34 22.843 114.82 22.9863 115.313 23.0774C115.805 23.1686 116.183 23.2207 116.434 23.2338C116.595 23.2338 116.766 23.2468 116.927 23.2468C117.659 23.2468 118.472 23.1295 119.354 22.9081C120.235 22.6867 121.105 22.2307 121.964 21.5534L122.135 20.889L122.158 20.863Z" fill="#231815" stroke="#231815" stroke-width="1.33325" stroke-miterlimit="10"/>
<path d="M131.339 6.98985C130.961 8.57908 130.584 10.1813 130.217 11.7706C129.496 14.8839 128.763 17.9972 128.042 21.1105C127.996 21.3189 127.962 21.5143 127.962 21.6837C127.962 22.0224 128.065 22.361 128.26 22.6997C128.454 23.0384 128.832 23.2208 129.37 23.2208C129.954 23.2208 130.504 22.9863 131.007 22.5174C131.511 22.0484 131.854 21.4883 132.015 20.8369C132.06 20.6806 132.129 20.5634 132.244 20.4852C132.312 20.4331 132.392 20.4201 132.484 20.4201C132.53 20.4201 132.576 20.4201 132.621 20.4331C132.759 20.4852 132.85 20.5634 132.908 20.6937C132.953 20.7718 132.965 20.863 132.965 20.9672C132.965 21.0193 132.965 21.0584 132.953 21.1105C132.724 22.0224 132.266 22.7779 131.58 23.4032C130.893 24.0284 130.149 24.3411 129.347 24.3411C128.489 24.3411 127.848 23.9893 127.413 23.2989C127.115 22.83 126.966 22.3089 126.966 21.7097C126.966 21.4362 127.001 21.1366 127.058 20.8369L130.355 6.70327C130.504 6.078 130.584 5.45273 130.584 4.84049C130.584 4.56694 130.561 4.15009 130.504 3.5639C130.446 2.97771 130.194 2.31336 129.725 1.55783C129.668 1.44059 129.633 1.33638 129.633 1.23217C129.633 1.19309 129.633 1.14098 129.656 1.0498C129.668 0.958614 129.725 0.867429 129.828 0.776244C129.92 0.724138 130.023 0.685059 130.114 0.685059C130.137 0.685059 130.183 0.685059 130.263 0.698085C130.343 0.711111 130.423 0.776244 130.504 0.906508C131.042 1.80533 131.374 2.78231 131.488 3.83746C131.522 4.16312 131.534 4.48878 131.534 4.82746C131.534 5.54392 131.454 6.2734 131.293 6.98985H131.339Z" fill="#231815" stroke="#231815" stroke-width="1.33325" stroke-miterlimit="10"/>
<path d="M132.038 20.8369L135.335 6.70318C135.483 6.06489 135.563 5.42659 135.563 4.80132C135.563 4.52777 135.529 4.11092 135.472 3.53776C135.415 2.9646 135.151 2.30025 134.693 1.55774C134.648 1.45353 134.613 1.33629 134.613 1.23208C134.613 1.20603 134.613 1.15392 134.625 1.06274C134.625 0.971553 134.693 0.880368 134.808 0.789183C134.9 0.737077 134.991 0.697998 135.083 0.697998C135.117 0.697998 135.163 0.697998 135.243 0.711025C135.323 0.711025 135.403 0.789183 135.483 0.919447C136.021 1.80524 136.353 2.7692 136.479 3.81132C136.514 4.12395 136.525 4.44961 136.525 4.77527C136.525 5.50475 136.433 6.24726 136.262 7.00279L134.533 14.4409C135.197 13.6723 135.953 13.0601 136.811 12.6172C137.67 12.1743 138.54 11.9398 139.444 11.9398H139.708C140.589 11.8877 141.436 11.7184 142.249 11.4188C142.959 11.1452 143.634 10.7674 144.252 10.2724L145.076 6.71621C145.225 6.09094 145.305 5.46567 145.305 4.85343C145.305 4.57987 145.271 4.15 145.214 3.56381C145.157 2.97762 144.893 2.31328 144.447 1.57077C144.401 1.46656 144.367 1.34932 144.367 1.24511C144.367 1.21906 144.367 1.16695 144.378 1.07576C144.378 0.98458 144.447 0.893395 144.561 0.80221C144.653 0.750104 144.745 0.711025 144.836 0.711025C144.87 0.711025 144.916 0.711025 144.996 0.724051C145.076 0.724051 145.157 0.80221 145.237 0.932474C145.775 1.81827 146.107 2.78223 146.221 3.82434C146.267 4.16303 146.278 4.50172 146.278 4.85343C146.278 5.55686 146.187 6.28634 146.015 7.01582L145.145 10.7674C145.099 10.9107 145.031 11.0149 144.928 11.0931C144.195 11.6923 143.405 12.1613 142.547 12.4739C142.318 12.5651 142.1 12.6432 141.871 12.6953C142.638 13.2685 143.165 14.0501 143.462 15.0271C143.623 15.5221 143.703 16.0562 143.703 16.6163C143.703 17.1374 143.634 17.6845 143.485 18.2576L142.764 21.1365C142.718 21.3319 142.684 21.5142 142.684 21.6966C142.684 21.9441 142.741 22.2046 142.856 22.5042C142.97 22.7908 143.222 23.0123 143.623 23.1686C143.783 23.2207 143.955 23.2337 144.115 23.2337C144.596 23.2337 145.111 23.0253 145.649 22.6085C146.187 22.1916 146.565 21.6054 146.771 20.8499C146.805 20.6936 146.874 20.5763 147 20.4982C147.068 20.4461 147.149 20.433 147.24 20.433C147.286 20.433 147.32 20.433 147.366 20.4461C147.503 20.4982 147.595 20.5763 147.652 20.7066C147.698 20.7848 147.709 20.8759 147.709 20.9671C147.709 21.0192 147.709 21.0713 147.698 21.1234C147.469 22.0353 147.023 22.7908 146.336 23.4161C145.649 24.0414 144.905 24.354 144.092 24.354C143.233 24.354 142.592 24.0023 142.157 23.3119C141.86 22.8429 141.711 22.3219 141.711 21.7227C141.711 21.4491 141.745 21.1495 141.814 20.8369L142.535 17.971C142.65 17.5021 142.707 17.0592 142.707 16.6424C142.707 16.2516 142.638 15.7826 142.489 15.2355C142.34 14.6884 141.997 14.1934 141.448 13.7375C140.898 13.2815 140.223 13.0601 139.398 13.0601C138.128 13.0601 136.937 13.5681 135.838 14.5842C134.728 15.6002 133.984 16.8247 133.606 18.2707L132.942 21.1365C132.896 21.2928 132.827 21.397 132.713 21.4621C132.633 21.5142 132.553 21.5533 132.473 21.5533C132.427 21.5533 132.392 21.5533 132.347 21.5403C132.209 21.4882 132.106 21.41 132.038 21.2798C131.992 21.2016 131.98 21.1104 131.98 21.0062C131.98 20.9541 131.98 20.915 131.992 20.8629L132.038 20.8369Z" fill="#231815" stroke="#231815" stroke-width="1.33325" stroke-miterlimit="10"/>
<path d="M154.212 13.0471C152.941 13.0471 151.75 13.5551 150.64 14.5711C149.53 15.5872 148.785 16.8117 148.408 18.2576L147.538 21.9962C147.675 22.2698 147.973 22.4912 148.431 22.6606C148.889 22.8299 149.369 22.9732 149.862 23.0644C150.354 23.1556 150.732 23.2077 150.983 23.2207C151.144 23.2207 151.315 23.2337 151.487 23.2337C152.243 23.2337 153.067 23.1165 153.96 22.882C154.853 22.6475 155.723 22.1786 156.581 21.4752C156.604 21.2667 156.639 21.0583 156.684 20.8499C156.719 20.6936 156.787 20.5763 156.913 20.4982C156.982 20.4461 157.062 20.433 157.142 20.433C157.188 20.433 157.234 20.433 157.28 20.4461C157.417 20.4982 157.509 20.5763 157.566 20.7066C157.612 20.7848 157.623 20.8759 157.623 20.9671C157.623 21.0192 157.623 21.0713 157.612 21.1234C157.566 21.3188 157.554 21.5142 157.554 21.6966C157.554 22.0353 157.646 22.374 157.841 22.7127C158.035 23.0514 158.402 23.2337 158.94 23.2337C159.523 23.2337 160.073 22.9993 160.577 22.5303C161.092 22.0613 161.435 21.5012 161.607 20.8499C161.653 20.6936 161.721 20.5763 161.836 20.4982C161.905 20.4461 161.985 20.433 162.065 20.433C162.111 20.433 162.156 20.433 162.202 20.4461C162.34 20.4982 162.431 20.5763 162.488 20.7066C162.534 20.7848 162.546 20.8759 162.546 20.9671C162.546 21.0192 162.546 21.0713 162.534 21.1234C162.305 22.0353 161.859 22.7908 161.172 23.4161C160.485 24.0414 159.741 24.354 158.928 24.354C158.39 24.354 157.921 24.1977 157.543 23.8981C157.165 23.5985 156.879 23.1946 156.707 22.6996C155.791 23.364 154.818 23.8199 153.811 24.0544C152.998 24.2498 152.22 24.354 151.453 24.354C151.27 24.354 151.086 24.354 150.915 24.341C150.503 24.341 149.93 24.2368 149.198 24.0674C148.465 23.8981 147.812 23.6245 147.24 23.2467C146.771 22.9341 146.53 22.5303 146.53 22.0483C146.53 21.9571 146.53 21.8529 146.565 21.7487L150.091 6.72924C150.239 6.09094 150.319 5.45265 150.319 4.82738C150.319 4.55382 150.285 4.13698 150.228 3.56381C150.171 2.99065 149.907 2.3263 149.461 1.5838C149.404 1.47958 149.369 1.36235 149.369 1.25813C149.369 1.23208 149.369 1.17998 149.392 1.08879C149.404 0.997606 149.472 0.906421 149.587 0.815236C149.667 0.76313 149.759 0.724051 149.862 0.724051C149.884 0.724051 149.93 0.724051 150.01 0.737077C150.09 0.737077 150.171 0.815236 150.251 0.9455C150.835 1.89643 151.167 2.93854 151.258 4.07184C151.934 3.06881 152.769 2.26117 153.754 1.6359C154.738 1.01063 155.769 0.697998 156.833 0.697998C157.898 0.697998 158.734 0.997606 159.443 1.5838C160.153 2.16998 160.634 2.93854 160.897 3.88947C161.034 4.38448 161.092 4.89251 161.092 5.42659C161.092 5.96068 161.034 6.46871 160.909 7.02884L160.039 10.7805C159.993 10.9368 159.924 11.041 159.81 11.1061C159.741 11.1582 159.661 11.1712 159.581 11.1712C159.535 11.1712 159.478 11.1713 159.432 11.1582C159.294 11.1061 159.203 11.028 159.146 10.8977C159.1 10.8195 159.088 10.7284 159.088 10.6241C159.088 10.572 159.088 10.533 159.1 10.4808L159.97 6.72924C160.073 6.27331 160.119 5.84344 160.119 5.42659C160.119 5.0358 160.05 4.55382 159.901 4.00671C159.764 3.4596 159.42 2.95157 158.882 2.49565C158.344 2.03972 157.657 1.81827 156.833 1.81827C155.562 1.81827 154.372 2.3263 153.262 3.34236C152.151 4.35843 151.407 5.59594 151.041 7.02884L149.289 14.4409C149.953 13.6854 150.709 13.0861 151.556 12.6302C152.403 12.1873 153.273 11.9528 154.177 11.9528C154.315 11.9528 154.429 12.0049 154.521 12.1092C154.612 12.2134 154.67 12.3436 154.67 12.513C154.67 12.6693 154.624 12.7996 154.521 12.9038C154.429 13.008 154.303 13.0731 154.177 13.0731L154.212 13.0471Z" fill="#231815" stroke="#231815" stroke-width="1.33325" stroke-miterlimit="10"/>
<path d="M174.818 6.66419C174.966 6.03892 175.046 5.40063 175.046 4.76233C175.046 4.51483 175.024 4.11101 174.966 3.55087C174.909 2.99074 174.646 2.32639 174.176 1.55783C174.131 1.45362 174.096 1.33638 174.096 1.23217C174.096 1.20612 174.096 1.15401 174.108 1.06283C174.108 0.97164 174.176 0.880455 174.291 0.78927C174.382 0.737164 174.474 0.698085 174.566 0.698085C174.6 0.698085 174.646 0.698085 174.726 0.711112C174.806 0.711112 174.886 0.78927 174.966 0.919534C175.676 2.13099 176.042 3.42061 176.042 4.81444C176.042 5.51787 175.951 6.26037 175.756 7.01591C175.39 8.5921 175.024 10.1553 174.669 11.7315C173.947 14.8578 173.215 17.9972 172.471 21.1235C172.425 21.345 172.391 21.5534 172.391 21.7358C172.391 22.0875 172.494 22.4262 172.688 22.7518C172.883 23.0775 173.249 23.2468 173.787 23.2468C174.371 23.2468 174.921 23.0124 175.424 22.5434C175.939 22.0745 176.283 21.5143 176.455 20.863C176.5 20.7067 176.569 20.5894 176.683 20.5113C176.764 20.4592 176.844 20.4462 176.924 20.4462C176.97 20.4462 177.004 20.4462 177.05 20.4592C177.187 20.5113 177.279 20.5894 177.336 20.7197C177.382 20.8109 177.416 20.9021 177.416 20.9933C177.416 21.0454 177.416 21.0845 177.405 21.1366C177.164 22.0484 176.706 22.8039 176.02 23.4292C175.333 24.0545 174.589 24.3671 173.776 24.3671C173.238 24.3671 172.768 24.2108 172.391 23.9112C172.013 23.6116 171.738 23.2078 171.566 22.7258C170.582 23.4292 169.54 23.8851 168.418 24.1196C167.697 24.2759 166.964 24.3671 166.243 24.3671C165.877 24.3671 165.499 24.3411 165.121 24.302C163.977 24.1847 162.969 23.833 162.088 23.2338C161.618 22.8691 161.378 22.4653 161.378 21.9963V21.9051C161.378 21.827 161.412 21.7097 161.447 21.5534C161.481 21.3971 161.515 21.2538 161.55 21.0975C161.573 21.0063 161.584 20.9281 161.595 20.85C161.641 20.6937 161.71 20.5894 161.824 20.5243C161.905 20.4722 161.996 20.4331 162.088 20.4331C162.122 20.4331 162.156 20.4331 162.191 20.4462C162.328 20.4852 162.431 20.5634 162.5 20.6937C162.546 20.7718 162.557 20.863 162.557 20.9672C162.557 21.0193 162.557 21.0714 162.546 21.1235L162.362 22.0093C162.362 22.0875 162.431 22.1656 162.557 22.2568C162.694 22.348 162.855 22.4392 163.049 22.5304C163.244 22.6216 163.427 22.6997 163.587 22.7649C163.748 22.83 163.862 22.8691 163.908 22.8951C164.686 23.1166 165.476 23.2208 166.266 23.2208C167.056 23.2208 167.834 23.1166 168.647 22.9082C169.586 22.6476 170.479 22.1917 171.326 21.5274L173.822 10.7805C173.192 11.5491 172.459 12.1613 171.624 12.6042C170.788 13.0471 169.895 13.2816 168.933 13.2816C167.834 13.2816 166.93 12.969 166.232 12.3567C165.533 11.7445 165.076 10.9369 164.835 9.94685C164.732 9.4779 164.686 9.00895 164.686 8.51395C164.686 7.92776 164.755 7.32854 164.904 6.70327C165.053 6.06498 165.133 5.42668 165.133 4.80141C165.133 4.52786 165.098 4.11101 165.041 3.53785C164.984 2.96468 164.721 2.30034 164.274 1.55783C164.217 1.44059 164.183 1.33638 164.183 1.23217C164.183 1.19309 164.183 1.14098 164.194 1.0498C164.205 0.958614 164.263 0.867429 164.377 0.776244C164.48 0.724138 164.572 0.685059 164.663 0.685059C164.698 0.685059 164.744 0.685059 164.824 0.698085C164.904 0.698085 164.984 0.776244 165.064 0.906508C165.591 1.79231 165.923 2.75626 166.049 3.79838C166.094 4.15009 166.106 4.48878 166.106 4.82746C166.106 5.54392 166.014 6.2734 165.843 6.98985C165.705 7.52394 165.648 8.03197 165.648 8.51395C165.648 8.87868 165.705 9.33461 165.82 9.88172C165.934 10.4288 166.255 10.9499 166.781 11.4319C167.308 11.9138 168.018 12.1613 168.922 12.1613C169.597 12.1613 170.238 12.0311 170.834 11.7575C171.429 11.484 171.99 11.1323 172.494 10.6763C173.604 9.60816 174.371 8.26644 174.783 6.66419H174.818Z" fill="#231815" stroke="#231815" stroke-width="1.33325" stroke-miterlimit="10"/>
</g>
<defs>
<clipPath id="clip0_336_428">
<rect width="178" height="25" fill="white"/>
</clipPath>
</defs>
</svg>
