<svg width="340" height="123" viewBox="0 0 340 123" fill="none" xmlns="http://www.w3.org/2000/svg">
<g clip-path="url(#clip0_623_368)">
<path d="M121.257 78.9972C117.336 84.347 113.139 89.4855 108.72 94.4308C104.892 98.7144 100.971 103.715 95.3349 105.415C90.9716 106.73 86.3961 105.866 82.2911 103.871C77.402 101.5 73.1955 97.9146 69.4225 94.0631C65.3175 89.8715 61.6645 85.2479 58.3159 80.4404C56.7754 78.2251 55.2994 75.973 53.888 73.675C53.2331 72.6087 52.5873 71.5332 51.96 70.4485C51.2313 69.1984 50.5763 67.9023 49.7 66.7533C47.8827 64.3909 45.1798 62.911 42.1726 63.821C39.3867 64.6575 37.1451 66.882 35.3462 69.0513C33.2337 71.5976 31.5825 74.4379 29.7929 77.2048C27.5974 80.6058 25.2635 83.9242 22.8098 87.1415C17.9206 93.5576 12.5057 99.5968 6.68486 105.186C5.81773 106.013 4.93215 106.813 4.04658 107.631C3.62224 101.821 3.48386 95.9843 3.30859 90.1657C8.56671 86.02 12.8009 80.5875 16.7952 75.2744C21.2415 69.3639 25.365 63.2143 29.7191 57.221C31.6655 54.5369 33.6304 51.8161 35.9089 49.3985C38.252 46.8983 41.1025 44.6094 44.5618 43.966C50.521 42.8629 55.6961 48.0105 59.1738 52.2941C62.2549 56.0904 64.7271 60.3464 67.513 64.345C70.5387 68.6836 73.7582 72.9304 77.3835 76.7911C80.686 80.3025 84.5512 83.915 89.2097 85.5144C91.1192 86.1671 93.2501 86.3785 95.2058 85.7994C97.7426 85.0456 99.3938 83.1337 101.156 81.2861C105.98 76.2212 110.786 71.1288 115.076 65.6043C119.568 59.8224 123.424 53.6085 126.579 46.9994C126.57 49.0584 126.828 51.1267 127.594 53.0202C128.775 55.9433 131.182 58.2781 133.618 60.1993C133.673 60.2453 133.738 60.2912 133.793 60.3372C129.789 66.6614 125.694 72.9304 121.275 78.9696L121.257 78.9972Z" fill="#F0F2AA"/>
<path d="M11.6846 50.4648C13.8432 48.1668 15.928 45.8044 18.059 43.4788C23.1879 37.89 28.5014 32.2736 34.6543 27.7694C39.2852 24.3775 45.6133 20.526 51.591 22.4839C53.316 23.0539 54.792 24.1845 56.2495 25.2324C58.6203 26.9237 60.8988 28.753 62.9928 30.7844C67.3469 35.0128 70.8892 40.0501 74.3946 44.9771C78.3982 50.6027 83.6655 60.3831 92.1154 56.7614C95.0766 55.4929 97.4566 53.0846 99.486 50.6487C101.792 47.891 103.785 44.8944 105.75 41.8885C107.475 39.2412 109.209 36.6123 111.165 34.1488C114.532 29.9112 117.474 25.3611 120.721 21.0408C123.904 16.8032 127.492 12.7587 131.93 9.7896C136.265 6.89408 141.164 5.04646 146.246 3.95259C155.951 1.86598 165.831 2.83115 175.664 2.70246C185.479 2.57377 195.719 2.05901 205.266 4.79827C207.407 5.41414 209.473 6.21386 211.438 7.28015C211.585 7.36288 211.733 7.40884 211.881 7.42722C211.908 7.4548 211.927 7.49157 211.964 7.51914C213.458 8.79685 215.312 9.49545 216.816 10.7456C218.504 12.152 220.284 13.4573 221.899 14.9464C223.79 16.6837 225.349 19.0001 227.664 20.1308C227.268 20.3238 226.88 20.5168 226.493 20.7191C224.011 22.0335 221.604 23.4859 219.177 24.8923C217.72 25.738 216.318 26.6204 214.925 27.5396C213.762 24.8739 211.253 22.9527 209.132 21.0775C207.075 19.2667 205.423 16.6837 202.896 15.4887C201.355 14.7625 199.575 14.735 197.914 14.4316C196.106 14.1007 194.317 13.7055 192.518 13.3194C188.856 12.5381 185.147 11.7935 181.393 11.7291C179.511 11.7016 177.666 11.6372 175.793 11.4442C173.939 11.2512 172.085 11.0122 170.222 10.9386C166.412 10.7824 162.519 10.9478 158.727 11.2787C156.846 11.4442 154.982 11.6556 153.1 11.8119C151.182 11.9681 149.318 12.2623 147.492 12.8965C144.318 13.9996 141.173 15.599 138.368 17.4467C135.749 19.1656 133.35 21.3257 131.745 24.0374C130.952 25.3795 130.426 26.8318 130.057 28.3393C129.586 30.2421 129.134 32.1541 128.701 34.066C128.313 35.785 127.898 37.5039 127.539 39.232C127.225 39.3975 126.985 39.6916 126.837 40.0409C123.895 47.1832 120.233 54.0314 115.758 60.3464C111.773 65.9719 107.17 71.1195 102.447 76.1293C101.202 77.4529 99.9472 78.7674 98.6927 80.0819C98.1576 80.6426 97.641 81.2309 97.0691 81.764C96.5894 82.2145 96.5248 82.2696 96.0175 82.5913C95.8238 82.7108 95.6301 82.8211 95.4363 82.9222C95.3349 82.9774 95.2426 83.0234 95.1411 83.0693C95.1042 83.0877 95.0766 83.0969 95.0581 83.1061C95.0581 83.1061 95.0304 83.1061 95.0028 83.1245C94.5876 83.2807 94.1633 83.391 93.7298 83.483C93.6836 83.4922 93.5268 83.5105 93.4899 83.5197C93.4253 83.5197 93.3608 83.5289 93.2962 83.5381C93.0656 83.5565 92.8349 83.5565 92.6043 83.5565C92.3922 83.5565 92.1708 83.5381 91.9586 83.5197C91.9309 83.5197 91.811 83.5014 91.7556 83.4922C91.6911 83.483 91.5343 83.4554 91.4881 83.4462C90.9992 83.3543 90.5287 83.2256 90.0583 83.0785C89.8369 83.005 89.6155 82.9222 89.3941 82.8395C89.3572 82.8211 89.2373 82.7752 89.2096 82.766C89.0989 82.72 88.979 82.6649 88.8683 82.6097C87.8628 82.1409 86.9034 81.5802 85.9809 80.9551C83.9884 79.6039 82.1434 77.9401 80.3815 76.1568C76.6824 72.4248 73.4906 68.3251 70.4741 64.06C67.762 60.2269 65.3636 56.1731 62.5408 52.4227C58.7863 47.4314 53.8511 41.9621 47.2369 41.3003C39.9586 40.5649 34.5159 46.6868 30.5032 51.8712C26.1491 57.4968 22.2101 63.4257 18.059 69.1984C13.9263 74.9435 9.66441 80.7345 4.53544 85.6615C4.10187 86.0843 3.64986 86.4888 3.19784 86.8841C2.98568 81.4055 2.69971 75.9362 2.67203 70.4577C2.65358 65.9995 2.70893 61.5321 2.78273 57.074C6.45419 56.2926 9.24007 53.0846 11.7123 50.4464L11.6846 50.4648Z" fill="#FFCFCF"/>
<path d="M321.028 99.9002C318.731 106.831 313.833 113.486 306.167 114.7C304.848 114.911 303.492 114.929 302.164 114.929C301.601 114.929 301.232 115.223 301.047 115.619C300.614 115.674 300.18 115.711 299.747 115.738C299.405 115.757 299.138 115.876 298.935 116.06C298.797 116.088 298.658 116.115 298.511 116.133C298.105 116.207 297.819 116.225 297.367 116.281C296.592 116.372 295.872 116.611 295.088 116.621C293.428 116.63 291.749 116.547 290.088 116.547C289.295 116.547 288.492 116.501 287.708 116.593C287.007 116.676 286.325 116.887 285.614 116.952C284.489 117.044 283.363 117.135 282.238 117.273C279.591 117.604 276.952 118.027 274.314 118.441C271.703 118.854 269.093 119.268 266.464 119.535C263.752 119.81 261.049 119.774 258.327 119.7C255.366 119.617 252.414 119.461 249.453 119.387C247.83 119.351 246.206 119.342 244.573 119.351C243.31 119.351 242.092 119.084 240.856 118.827C239.371 118.514 237.876 118.183 236.354 118.147C234.814 118.11 233.365 117.549 231.834 117.393C231.105 117.319 230.395 117.328 229.685 117.154C229.067 116.998 228.485 116.759 227.913 116.483C226.576 115.839 225.247 115.233 223.781 114.966C223.615 114.938 223.458 114.938 223.301 114.957C223.218 114.938 223.126 114.92 223.033 114.92C222.554 114.92 222.065 114.92 221.585 114.92C220.921 114.755 220.368 114.359 219.731 113.9C218.559 113.054 217.351 112.273 216.198 111.4C215.128 110.581 214.141 109.653 213.126 108.78C212.102 107.907 211.087 107.015 210.22 105.985C209.445 105.057 208.901 103.954 208.182 102.989C207.388 101.932 206.475 101.095 205.414 100.314C203.661 99.0177 201.77 97.8963 200.147 96.4347C198.348 94.8077 197.296 92.859 196.503 90.5977C195.534 87.8309 194.713 84.9905 193.985 82.1501C192.509 76.3591 192.647 70.3107 192.758 64.3817C192.804 61.6517 192.721 58.9032 192.85 56.1732C192.952 53.9303 193.284 51.6506 194.114 49.5456C194.464 48.654 194.944 47.7624 195.571 47.0362C196.392 46.071 197.416 45.3264 198.219 44.3337C199.852 42.3022 200.922 39.8571 202.822 38.0371C204.824 36.1251 207.112 34.7279 209.492 33.3307C212.121 31.7956 214.51 29.9296 217.093 28.321C219.574 26.7767 222.148 25.3611 224.676 23.8904C226.834 22.6311 229.02 21.3625 231.419 20.5996C233.9 19.8091 236.428 19.708 238.955 20.333C240.413 20.6915 241.852 21.1603 243.319 21.5004C244.084 21.6751 244.859 21.8313 245.634 21.8589C246.372 21.8865 247.11 21.8038 247.839 21.9049C249.287 22.1163 250.68 22.6035 252.101 22.916C253.614 23.2469 255.173 23.4216 256.695 23.6698C258.125 23.8996 259.6 23.9915 261.021 24.304C262.359 24.5982 263.641 25.1037 264.932 25.5542C266.012 25.931 267.091 26.2344 268.198 26.4366C268.281 26.4734 268.364 26.5101 268.456 26.5285C272.266 27.2455 275.956 28.5232 279.535 29.9848C283.603 31.6393 287.561 33.5973 291.398 35.739C295.19 37.8532 298.88 40.1513 302.385 42.7067C303.852 43.7822 305.282 44.9036 306.647 46.0986C307.929 47.2292 309.359 48.4242 310.263 49.8857C310.927 50.9612 311.398 52.1378 312.182 53.1306C312.938 54.0865 313.916 54.7943 314.755 55.6676C316.499 57.4968 318.159 59.6018 319.303 61.8539C320.484 64.1795 320.761 66.7993 320.899 69.3547C320.973 70.6692 320.927 72.048 321.268 73.3349C321.609 74.6218 322.071 75.6881 322.006 77.0393C321.941 78.4457 321.812 79.7602 322.135 81.1482C322.329 81.9755 322.495 82.812 322.615 83.6577C322.855 85.2847 322.938 87.1047 322.91 88.8144C322.845 92.574 322.218 96.306 321.037 99.8726L321.028 99.9002Z" fill="#ABE1EF"/>
<path d="M301.001 94.2563C299.663 98.071 296.878 101.334 293.916 104.018C292.459 105.333 290.845 106.491 289.046 107.3C287.09 108.173 285.107 108.357 282.994 108.366C277.838 108.403 272.662 108.366 267.506 108.247C262.571 108.127 257.7 107.64 252.792 107.226C248.484 106.859 244.02 106.592 239.961 104.965C238.051 104.202 236.215 103.127 234.5 102.024C232.867 100.976 231.336 99.7807 229.943 98.4387C228.402 96.9496 227.138 95.2766 225.847 93.576C224.398 91.6733 222.904 89.8165 221.327 88.024C219.74 86.2132 218.08 84.4666 216.345 82.8029C214.805 81.3321 213.153 79.9625 211.936 78.1976C210.69 76.3868 209.98 74.438 210.063 72.2227C210.155 69.8144 210.81 67.4152 211.226 65.0437C211.65 62.6169 212.065 60.1902 212.554 57.7727C213.024 55.4563 213.449 53.0387 214.279 50.8142C215.718 46.9627 218.633 43.5892 221.566 40.7764C223.172 39.2413 224.869 37.789 226.705 36.5204C228.476 35.2887 230.431 34.011 232.479 33.2848C234.398 32.6046 236.483 32.5494 238.503 32.5862C240.542 32.623 242.627 32.6965 244.656 32.9355C246.999 33.2113 249.278 33.8547 251.584 34.3327C252.7 34.5625 253.807 34.7372 254.886 35.1141C255.91 35.4725 256.897 35.9413 257.903 36.3642C258.973 36.8146 260.061 37.2099 261.205 37.4213C262.469 37.6603 263.742 37.743 265.024 37.8625C267.248 38.0739 269.342 38.6714 271.325 39.6917C273.262 40.6845 275.061 41.9346 276.924 43.0469C278.908 44.2418 280.734 45.639 282.487 47.1466C284.221 48.6357 285.9 50.18 287.634 51.6599C289.184 52.9836 290.771 54.2705 292.21 55.7044C293.612 57.1016 294.793 58.6459 295.771 60.3649C295.955 60.6866 296.213 60.8704 296.49 60.944C296.813 61.7896 297.256 62.571 297.708 63.3523C298.141 64.0969 298.713 64.8966 298.898 65.7606C298.916 65.8709 298.925 66.3306 298.889 66.5971C298.833 66.9832 298.741 67.3601 298.649 67.737C298.437 68.6102 298.197 69.4743 298.068 70.3659C297.809 72.2227 298.51 74.1347 299.174 75.8536C299.94 77.8207 300.697 79.7787 301.25 81.8193C302.348 85.8638 302.44 90.2761 301.047 94.2655L301.001 94.2563Z" fill="#F0F2AA"/>
<path d="M286.786 79.1076C286.158 84.4942 283.456 89.7797 278.64 92.5649C276.463 93.8242 274.129 94.4125 271.62 94.5044C268.677 94.6147 265.698 94.4217 262.783 94.0081C256.621 93.144 250.551 91.3331 244.868 88.8145C240.081 86.6911 235.588 83.9794 232.286 79.8338C230.764 77.9218 229.592 75.7157 229.039 73.3257C228.421 70.6416 228.762 67.8656 229.408 65.2275C229.786 63.6924 230.238 62.2033 230.367 60.6222C230.496 59.0228 230.367 57.3774 230.69 55.7963C230.93 54.6014 231.4 53.434 232.221 52.5148C232.959 51.6967 233.835 51.0716 234.74 50.4557C236.889 49.0125 238.946 47.4866 241.474 46.7421C243.724 46.0803 246.058 46.0067 248.392 46.0251C249.499 46.0251 250.615 46.0527 251.722 46.0711C251.944 46.2641 252.22 46.3836 252.525 46.3468C253.982 46.163 255.375 47.027 256.805 47.2109C257.46 47.2936 258.124 47.2936 258.761 47.4499C259.517 47.6337 260.237 48.0014 260.956 48.2956C263.816 49.463 266.556 50.7866 269.166 52.4504C274.314 55.7136 278.705 59.8409 282.653 64.4553C284.304 66.3857 285.854 68.4447 286.5 70.945C287.173 73.5464 287.09 76.4511 286.776 79.0984L286.786 79.1076Z" fill="#FFCFCF"/>
<path d="M198.246 40.9234C198.043 41.2452 197.841 41.5577 197.628 41.8794C195.673 39.9031 193.8 37.8165 191.605 36.0884C189.059 34.0937 186.3 32.9998 183.053 32.7516C178.681 32.4115 174.382 32.7976 170.332 34.5717C166.79 36.1159 163.451 39.278 164.677 43.4789C165.425 46.0526 167.611 46.9075 170.102 47.0914C170.609 47.1281 171.116 47.1465 171.624 47.1649C171.864 47.1741 172.103 47.1833 172.352 47.2017C172.482 47.2017 172.611 47.2201 172.74 47.2292C172.768 47.2292 172.943 47.2568 172.998 47.2568C174.548 47.505 176.015 48.1576 177.472 48.7C179.114 49.3067 180.83 49.8398 182.546 50.1799C184.123 50.4925 185.682 50.4833 187.278 50.5936C188.505 50.6763 190.073 50.8877 191.512 50.7223C190.488 54.1969 190.599 58.0208 190.562 61.5782C190.562 62.2308 190.544 62.8743 190.535 63.5269C189.418 64.7587 187.739 65.2183 186.144 65.4664C184.234 65.7698 182.269 65.6319 180.35 65.7698C179.16 65.8525 177.961 65.9536 176.771 65.8433C175.581 65.733 174.391 65.3378 173.238 65.0252C170.904 64.3818 168.487 63.8578 166.273 62.8559C162.039 60.9347 158.137 58.4069 154.576 55.4286C152.768 53.9211 150.997 52.3676 149.143 50.9153C147.612 49.7203 145.905 48.6724 144.641 47.1741C143.71 46.071 143.267 44.7198 143.156 43.2674C143.082 42.2563 143.128 41.236 143.092 40.2248C143.045 39.0942 142.972 37.936 143.101 36.8054C143.211 35.877 143.544 35.1324 143.986 34.3235C144.005 34.2959 144.005 34.2775 144.014 34.2683C144.042 34.2499 144.079 34.2224 144.125 34.204C144.189 34.1764 144.245 34.158 144.309 34.1396C144.531 34.0569 144.761 33.9742 144.983 33.8914C146.053 33.4778 147.15 33.0642 148.137 32.4667C149.143 31.8508 150.01 31.0327 150.813 30.187C152.307 28.5968 153.599 26.6848 155.388 25.3979C156.145 24.8464 156.698 24.9199 157.593 24.874C158.82 24.8188 160.047 24.5614 161.255 24.3408C163.617 23.918 166.015 23.8812 168.413 23.8261C170.812 23.7709 173.063 23.9915 175.415 24.4511C177.933 24.9475 180.47 25.4163 183.035 25.5818C185.212 25.7196 187.5 25.3611 189.603 26.0781C190.645 26.4366 191.641 27.0617 192.582 27.6224C193.496 28.1739 194.39 28.7622 195.239 29.4149C197.232 30.9408 199.15 32.5862 201.125 34.1488C201.696 34.5992 202.25 35.0589 202.803 35.5368C202.01 36.1895 201.235 36.8881 200.562 37.651C199.658 38.653 198.975 39.7928 198.256 40.9326L198.246 40.9234Z" fill="#F0F2AA"/>
<path d="M287.358 66.7074C285.882 64.2255 283.825 62.001 281.86 59.8868C279.59 57.4509 277.1 55.2356 274.452 53.2133C271.879 51.2462 269.148 49.4721 266.251 48.029C264.729 47.266 263.152 46.6226 261.584 45.9791C260.864 45.685 260.145 45.3173 259.388 45.1334C258.632 44.9496 257.783 44.9404 256.981 44.8301C255.689 44.6555 254.527 44.012 253.235 43.9201C253.042 43.7638 252.774 43.6627 252.46 43.6627C249.693 43.6443 246.898 43.4697 244.149 43.773C241.391 44.0763 238.789 44.8944 236.419 46.3468C235.238 47.073 234.103 47.8911 232.959 48.6724C231.945 49.371 230.93 50.1156 230.136 51.0624C229.214 52.1746 228.559 53.4615 228.209 54.8587C227.775 56.5777 227.83 58.3425 227.747 60.0982C227.664 61.7712 227.166 63.3155 226.779 64.9333C226.41 66.4776 226.133 68.0494 226.068 69.6305C225.948 72.5536 226.566 75.3848 227.876 78.0045C230.303 82.8488 234.73 86.6543 239.426 89.2373C245.145 92.3718 251.547 94.5963 257.921 95.9384C261.159 96.6186 264.453 97.069 267.755 97.2069C270.569 97.3264 273.484 97.3632 276.205 96.5543C282.072 94.8169 286.5 89.8532 288.326 84.1265C289.249 81.231 289.581 78.0964 289.507 75.0722C289.424 72.1124 288.907 69.272 287.376 66.6982L287.358 66.7074ZM286.703 79.273C286.075 84.6596 283.373 89.9451 278.557 92.7303C276.38 93.9897 274.046 94.5779 271.537 94.6699C268.595 94.7802 265.615 94.5871 262.7 94.1735C256.538 93.3094 250.468 91.4986 244.785 88.9799C239.998 86.8566 235.505 84.1449 232.203 79.9992C230.681 78.0873 229.509 75.8811 228.956 73.4912C228.338 70.8071 228.679 68.0311 229.325 65.3929C229.703 63.8578 230.155 62.3687 230.284 60.7877C230.413 59.1882 230.284 57.5428 230.607 55.9618C230.847 54.7668 231.317 53.5994 232.138 52.6802C232.876 51.8621 233.753 51.237 234.657 50.6211C236.806 49.178 238.863 47.6521 241.391 46.9075C243.642 46.2457 245.975 46.1722 248.309 46.1905C249.416 46.1905 250.532 46.2181 251.639 46.2365C251.861 46.4295 252.138 46.549 252.442 46.5123C253.899 46.3284 255.292 47.1925 256.722 47.3763C257.377 47.4591 258.041 47.4591 258.678 47.6153C259.434 47.7992 260.154 48.1668 260.873 48.461C263.733 49.6284 266.473 50.9521 269.083 52.6158C274.231 55.8791 278.622 60.0063 282.57 64.6208C284.221 66.5511 285.771 68.6102 286.417 71.1104C287.09 73.7118 287.007 76.6165 286.694 79.2639L286.703 79.273Z" fill="black"/>
<path d="M161.79 78.0597C160.489 77.4714 159.235 76.7452 158.128 75.8536C156.938 74.8976 155.932 73.7486 154.825 72.7191C152.344 70.4026 149.632 68.3528 146.874 66.3765C144.272 64.5105 141.634 62.6904 138.977 60.9072C136.487 59.2342 134.024 57.4877 132.022 55.2264C131.118 54.1969 130.306 53.0846 129.854 51.7794C129.43 50.5476 129.227 49.2607 129.171 47.9554C129.051 45.1151 129.531 42.3298 130.131 39.563C130.915 35.9505 131.727 32.3472 132.621 28.7622C133.313 25.9862 134.863 23.679 136.975 21.7578C139.18 19.754 141.828 18.3384 144.466 17.0147C145.988 16.2517 147.538 15.5715 149.171 15.0843C150.803 14.5972 152.473 14.4593 154.161 14.3306C157.796 14.0548 161.393 13.6412 165.046 13.5585C166.855 13.5217 168.681 13.4573 170.489 13.5493C172.306 13.6412 174.114 13.871 175.922 14.0548C179.419 14.4133 182.915 14.2295 186.393 14.7718C189.852 15.3141 193.256 16.1782 196.697 16.8309C197.573 16.9963 198.449 17.1434 199.326 17.2721C200.064 17.3824 200.839 17.41 201.53 17.6949C202.637 18.1453 203.514 19.0645 204.316 19.9102C205.23 20.8846 206.115 21.8498 207.111 22.7414C208.283 23.7801 209.491 24.7821 210.598 25.8943C211.456 26.7676 212.323 27.7419 212.711 28.9185C212.711 28.9461 212.729 28.9645 212.739 28.9829C212.213 29.3414 211.687 29.6998 211.161 30.0583C209.141 31.4464 206.945 32.5586 204.916 33.919C203.172 32.4023 201.318 31.0419 199.529 29.5803C197.601 28.0085 195.747 26.4274 193.588 25.1773C192.472 24.5247 191.319 23.8628 190.073 23.486C188.976 23.1459 187.813 23.0447 186.669 23.0264C184.123 22.9804 181.66 22.916 179.142 22.5024C176.541 22.0704 173.967 21.381 171.319 21.2431C168.792 21.1144 166.2 21.2155 163.681 21.3902C162.325 21.4821 160.988 21.7486 159.65 21.9876C158.571 22.1807 157.528 22.2083 156.44 22.3002C154.051 22.5024 152.335 24.5155 150.85 26.2068C149.263 28.0177 147.787 29.8653 145.536 30.8672C144.66 31.2533 143.7 31.4923 142.852 31.9335C142.197 32.2736 141.809 32.8436 141.468 33.4686C140.269 35.6839 140.407 38.129 140.49 40.565C140.555 42.5413 140.453 44.5176 141.2 46.3928C141.892 48.1301 143.11 49.5089 144.558 50.6763C146.412 52.1746 148.34 53.5534 150.158 55.0885C152.104 56.7339 154.032 58.3977 156.08 59.9236C158.091 61.4219 160.268 62.6445 162.473 63.8394C164.594 64.9885 166.79 65.9628 169.133 66.5879C171.771 67.2865 174.483 68.3436 177.232 68.4631C178.478 68.5182 179.723 68.3988 180.959 68.316C182.02 68.2425 183.081 68.2701 184.142 68.2333C186.236 68.1598 188.367 67.8288 190.258 66.9188C190.332 66.882 190.396 66.8453 190.47 66.7993C190.424 70.2004 190.433 73.6015 190.756 76.9842C190.581 77.1313 190.433 77.3243 190.35 77.5909C190.35 77.6093 190.35 77.6093 190.35 77.6185C190.35 77.6185 190.332 77.6185 190.304 77.646C190.304 77.646 190.304 77.646 190.295 77.6552C190.202 77.7104 190.11 77.7655 190.018 77.8115C190.018 77.8023 189.667 77.931 189.603 77.9494C189.345 78.0229 189.077 78.0781 188.809 78.124C187.97 78.2711 186.918 78.2987 185.977 78.3538C184.889 78.4182 183.883 78.602 182.85 78.9513C181.411 79.4293 179.991 80.0728 178.459 80.1463C175.572 80.275 172.62 80.2015 169.742 79.9441C167.039 79.6959 164.272 79.1811 161.799 78.0505L161.79 78.0597Z" fill="#ABE1EF"/>
<path d="M300.623 70.5221C300.937 68.7664 301.776 66.9463 301.389 65.1447C301.001 63.3154 299.562 61.8998 298.935 60.1809C298.787 59.7765 298.483 59.4455 298.105 59.3077C298.077 59.2249 298.04 59.1514 297.994 59.0687C295.817 55.2355 292.57 52.5147 289.277 49.6835C285.614 46.549 282.164 43.1938 278.004 40.6844C276.076 39.5262 274.222 38.2393 272.202 37.2465C269.951 36.1435 267.635 35.5276 265.145 35.2886C263.927 35.1691 262.691 35.1048 261.492 34.8474C260.329 34.59 259.232 34.1488 258.152 33.6708C257.073 33.202 255.994 32.7148 254.859 32.3839C253.678 32.0346 252.442 31.8783 251.243 31.6209C248.854 31.097 246.465 30.4995 244.02 30.2881C241.88 30.1042 239.703 29.9755 237.553 29.9939C235.395 30.0031 233.153 30.1962 231.142 31.0418C228.956 31.9611 226.899 33.202 224.98 34.5808C221.226 37.2741 217.831 40.5097 215.082 44.2326C213.754 46.025 212.6 47.9462 211.807 50.0328C210.931 52.3216 210.497 54.8311 210.017 57.2302C209.51 59.7765 209.067 62.3411 208.625 64.8965C208.182 67.4059 207.499 69.943 207.453 72.4984C207.416 74.87 208.154 77.1404 209.436 79.1259C210.672 81.0379 212.287 82.5638 213.938 84.108C217.554 87.4999 220.857 91.2503 223.836 95.2122C225.201 97.0138 226.548 98.7971 228.181 100.36C229.712 101.83 231.4 103.127 233.19 104.276C235.017 105.452 236.945 106.518 238.946 107.346C241.059 108.219 243.291 108.715 245.542 109.065C247.867 109.414 250.21 109.616 252.553 109.809C255.007 110.021 257.46 110.306 259.923 110.489C265.237 110.885 270.56 110.885 275.892 110.931C278.594 110.949 281.297 111.004 284 110.967C286.269 110.94 288.41 110.462 290.467 109.515C294.35 107.723 297.524 104.459 300.116 101.132C302.865 97.6113 304.442 93.4197 304.617 88.9523C304.802 84.2919 303.52 79.9164 301.822 75.6237C301.186 74.0243 300.346 72.1307 300.623 70.5496V70.5221ZM301.011 94.2562C299.673 98.0709 296.887 101.334 293.926 104.018C292.468 105.333 290.854 106.491 289.055 107.3C287.1 108.173 285.116 108.357 283.004 108.366C277.847 108.403 272.672 108.366 267.515 108.247C262.58 108.127 257.71 107.64 252.802 107.226C248.494 106.859 244.029 106.592 239.97 104.965C238.061 104.202 236.225 103.127 234.509 102.024C232.876 100.976 231.345 99.7806 229.952 98.4386C228.412 96.9495 227.148 95.2765 225.856 93.576C224.408 91.6732 222.914 89.8164 221.336 88.0239C219.75 86.2131 218.089 84.4665 216.355 82.8028C214.814 81.332 213.163 79.9624 211.945 78.1975C210.7 76.3867 209.99 74.4379 210.073 72.2226C210.165 69.8143 210.82 67.4151 211.235 65.0436C211.659 62.6168 212.075 60.1901 212.563 57.7726C213.034 55.4562 213.458 53.0386 214.289 50.8141C215.728 46.9626 218.643 43.5891 221.576 40.7763C223.181 39.2412 224.879 37.7889 226.714 36.5204C228.485 35.2886 230.441 34.0109 232.489 33.2847C234.408 32.6045 236.493 32.5493 238.513 32.5861C240.551 32.6229 242.636 32.6964 244.666 32.9354C247.009 33.2112 249.287 33.8546 251.593 34.3326C252.71 34.5624 253.817 34.7371 254.896 35.114C255.92 35.4724 256.907 35.9412 257.912 36.3641C258.983 36.8145 260.071 37.2098 261.215 37.4212C262.479 37.6602 263.752 37.7429 265.034 37.8624C267.257 38.0738 269.351 38.6713 271.335 39.6916C273.272 40.6844 275.071 41.9345 276.934 43.0468C278.917 44.2417 280.744 45.639 282.496 47.1465C284.231 48.6356 285.91 50.1799 287.644 51.6598C289.194 52.9835 290.78 54.2704 292.219 55.7043C293.622 57.1015 294.802 58.6458 295.78 60.3648C295.965 60.6865 296.223 60.8703 296.5 60.9439C296.823 61.7895 297.265 62.5709 297.717 63.3522C298.151 64.0968 298.723 64.8965 298.907 65.7605C298.926 65.8708 298.935 66.3305 298.898 66.597C298.843 66.9831 298.751 67.36 298.658 67.7369C298.446 68.6101 298.206 69.4742 298.077 70.3658C297.819 72.2226 298.52 74.1346 299.184 75.8535C299.95 77.8206 300.706 79.7786 301.26 81.8192C302.357 85.8637 302.45 90.276 301.057 94.2654L301.011 94.2562Z" fill="black"/>
<path d="M273.687 67.6541C271.38 65.733 268.272 65.8341 265.707 64.4828C264.157 63.6647 262.848 62.3686 261.399 61.3851C260.071 60.4842 258.623 59.6937 257.054 59.2985C256.981 59.1882 256.898 59.087 256.796 58.9951C256.556 58.5815 256.132 58.416 255.698 58.4528C255.2 58.3057 254.674 58.223 254.259 58.1035C254.158 58.0759 253.946 57.9748 253.798 57.9472C253.697 57.8921 253.586 57.8369 253.475 57.8001C252.802 57.5611 252.018 57.4692 251.317 57.506C248.485 57.6531 246.058 59.6753 244.859 62.1572C243.522 64.9332 243.78 67.8472 245.256 70.5221C246.843 73.3992 249.638 75.2376 252.783 76.019C254.554 76.4602 256.289 76.7359 257.829 77.7747C259.112 78.6387 260.209 79.7602 261.51 80.615C263.705 82.0858 266.704 82.4167 269.268 82.0306C270.624 81.8284 271.943 81.3228 272.995 80.4404C274.231 79.4109 274.674 78.032 274.775 76.4786C274.821 75.734 274.904 75.0538 275.098 74.3276C275.329 73.4635 275.596 72.5811 275.615 71.6803C275.633 70.136 274.877 68.6377 273.696 67.6541H273.687ZM254.102 58.1862C254.287 58.3517 254.398 58.4712 254.102 58.1862V58.1862ZM253.946 58.0575C253.946 58.0575 253.936 58.0575 253.927 58.0483C253.927 58.0483 253.936 58.0483 253.946 58.0575ZM272.285 75.0814C272.146 76.1109 272.331 77.3334 271.611 78.1791C270.403 79.5947 268.05 79.7234 266.307 79.5487C265.394 79.4568 264.388 79.2178 263.595 78.8409C262.608 78.3721 261.777 77.6184 260.938 76.929C259.896 76.0741 258.826 75.2376 257.58 74.6953C256.141 74.0702 254.591 73.8404 253.079 73.436C250.708 72.8017 248.688 71.3953 247.498 69.2352C246.344 67.1485 246.215 64.9149 247.451 62.8374C248.549 61.0082 250.505 59.6937 252.663 60.2912C253.014 60.4659 253.411 60.5762 253.78 60.6773C254.066 60.7508 254.361 60.8244 254.656 60.9071C254.804 61.2472 255.145 61.5873 255.495 61.6425C258.226 62.0285 260.421 63.8302 262.543 65.448C263.484 66.165 264.379 66.7809 265.486 67.2313C266.464 67.6265 267.497 67.8747 268.512 68.1597C270.172 68.6193 272.653 69.2352 272.995 71.2666C273.198 72.5168 272.46 73.8772 272.294 75.1089L272.285 75.0814Z" fill="black"/>
<path d="M47.0433 101.638C45.8625 102.741 44.6356 103.954 43.833 105.36C43.75 105.517 43.667 105.673 43.5932 105.829C43.2611 105.397 42.9013 104.974 42.56 104.533C41.3331 102.961 40.4568 101.114 38.99 99.744C37.8185 98.6409 36.4624 97.9975 35.0142 97.6114C37.1543 96.683 39.2852 95.6902 40.9549 94.0356C42.2279 92.7763 43.1412 91.2137 43.7685 89.5407C43.8792 89.2465 43.9714 88.9432 44.0544 88.649C44.0729 88.6858 44.1006 88.7318 44.119 88.7685C45.0784 90.754 45.7702 92.859 46.8957 94.7618C47.7812 96.2693 48.9436 97.5378 50.521 98.3284C50.8623 98.503 51.2036 98.6317 51.5542 98.742C51.3143 98.8339 51.0653 98.9167 50.8254 99.027C49.414 99.652 48.1779 100.59 47.0525 101.638H47.0433Z" fill="#F7F000"/>
<path d="M52.3107 96.2969C50.9546 95.8281 49.9584 94.8261 49.2296 93.6311C48.178 91.903 47.4953 90.0002 46.6743 88.171C46.2777 87.2886 45.8349 86.4613 45.3275 85.6432C44.8663 84.8802 44.4881 84.2 44.5526 83.29C44.5342 81.6078 42.0804 81.6446 41.9513 83.29C41.9789 85.1928 41.9144 87.068 41.241 88.8696C40.7336 90.23 39.9126 91.4802 38.8425 92.4637C36.7577 94.3757 33.8335 95.2673 31.3059 96.4347C31.0291 96.5634 30.8539 96.8024 30.7524 97.0874C29.8945 97.0598 29.0366 97.0598 28.1971 97.069C26.5274 97.069 26.5182 99.6612 28.1971 99.6612H28.7322C28.7322 99.6612 28.7506 99.6612 28.7691 99.6612C31.721 99.6336 35.0788 99.5509 37.302 101.757C38.5658 103.016 39.3776 104.671 40.4661 106.077C41.0011 106.776 41.6007 107.383 42.0066 108.173C42.4033 108.945 42.6247 109.8 42.8737 110.627C43.2796 111.979 45.5212 111.786 45.429 110.287C45.346 108.964 45.4659 107.704 46.167 106.555C46.905 105.342 47.9935 104.312 49.0359 103.356C49.9307 102.538 50.927 101.812 52.0524 101.325C53.3623 100.764 54.8014 100.498 56.2035 100.249C57.209 100.066 57.3935 98.742 56.7755 98.0893C55.5763 96.8116 53.8604 96.8668 52.3107 96.3336V96.2969ZM47.0433 101.637C45.8626 102.741 44.6357 103.954 43.8331 105.36C43.7501 105.517 43.6671 105.673 43.5933 105.829C43.2612 105.397 42.9014 104.974 42.5601 104.533C41.3332 102.961 40.4569 101.114 38.9901 99.7439C37.8186 98.6409 36.4625 97.9974 35.0142 97.6113C37.1544 96.6829 39.2853 95.6902 40.955 94.0356C42.228 92.7763 43.1413 91.2136 43.7685 89.5406C43.8792 89.2465 43.9715 88.9432 44.0545 88.649C44.073 88.6858 44.1006 88.7317 44.1191 88.7685C45.0785 90.754 45.7703 92.859 46.8957 94.7618C47.7813 96.2693 48.9436 97.5378 50.5211 98.3283C50.8624 98.503 51.2037 98.6317 51.5543 98.742C51.3144 98.8339 51.0653 98.9166 50.8255 99.0269C49.4141 99.652 48.178 100.59 47.0526 101.637H47.0433Z" fill="black"/>
<path d="M85.9627 22.7046C87.042 21.813 87.7339 20.6272 88.1766 19.3127C89.053 20.8754 90.1323 22.2634 91.433 23.5411C92.6507 24.7361 93.9421 25.6277 95.5011 26.1517C93.6008 26.8779 92.0603 28.0177 90.8334 29.6631C89.9017 30.904 89.1914 32.2737 88.6471 33.7076C88.0752 32.2369 87.2542 30.8948 86.1933 29.6815C84.7635 28.0361 83.0384 26.9054 81.0551 26.0046C80.6585 25.8208 80.2526 25.6553 79.8467 25.4899C80.0773 25.4715 80.3171 25.4439 80.5478 25.4071C82.5034 25.0486 84.4406 23.9548 85.9627 22.6955V22.7046Z" fill="#F7F000"/>
<path d="M73.0848 25.9678C74.8744 27.0801 76.9777 27.2363 78.8872 28.036C80.7045 28.799 82.3096 29.709 83.6564 31.1614C86.4607 34.1672 86.8021 38.083 86.8113 41.9989C86.8113 43.6627 89.3942 43.6719 89.4127 41.9989C89.4496 38.1933 90.2706 34.2683 92.5583 31.1522C93.5454 29.8009 94.8737 28.9185 96.4696 28.4037C97.4382 28.0912 98.4345 27.8798 99.4123 27.5856C100.335 27.3099 101.294 27.4569 102.207 27.1536C102.955 26.9054 103.48 25.9862 102.982 25.2508C101.931 23.6882 100.243 24.5063 98.7297 24.2856C96.7833 24.0099 95.0121 23.6422 93.5177 22.3093C92.014 20.9581 90.7595 19.4782 89.837 17.6765C89.3573 16.7389 88.9053 15.7645 88.7208 14.7166C88.6378 14.2203 88.6101 13.7147 88.5917 13.2091C88.5917 13.0437 88.5917 12.8782 88.5917 12.7219C88.5917 12.6944 88.5917 12.676 88.5917 12.6484C88.5917 12.2715 88.5917 11.8946 88.5917 11.5178C88.5917 9.85398 85.9995 9.84479 85.9903 11.5178C85.9903 11.913 85.9903 12.2991 85.9903 12.6944C85.9903 12.7035 85.9903 12.7127 85.9903 12.7219C85.9903 14.2478 85.898 15.7829 85.5936 17.2812C85.2984 18.7428 84.8649 19.9929 83.6564 20.9305C82.3742 21.9325 80.7229 22.7781 79.0994 22.9712C78.1031 23.0907 77.0607 22.9712 76.0736 23.201C75.6401 23.3021 75.2988 23.4675 74.8467 23.4492C74.3394 23.4308 73.8505 23.4216 73.3708 23.5962C72.3376 23.9823 72.0609 25.3427 73.0571 25.9678H73.0848ZM101.017 26.8227C101.1 26.8227 101.11 26.8227 101.017 26.8227V26.8227ZM85.5844 22.7046C86.6637 21.813 87.3555 20.6272 87.7983 19.3127C88.6747 20.8754 89.754 22.2634 91.0547 23.5411C92.2723 24.7361 93.5638 25.6277 95.1228 26.1516C93.2225 26.8778 91.682 28.0177 90.4551 29.663C89.5234 30.904 88.8131 32.2736 88.2688 33.7076C87.6969 32.2368 86.8758 30.8948 85.815 29.6814C84.3852 28.036 82.6601 26.9054 80.6768 26.0046C80.2801 25.8207 79.8743 25.6553 79.4684 25.4898C79.699 25.4714 79.9388 25.4439 80.1694 25.4071C82.1251 25.0486 84.0623 23.9547 85.5844 22.6954V22.7046Z" fill="black"/>
<path d="M338.112 18.1453C338.002 14.2387 338.048 10.3228 338.343 6.42534C338.398 5.72674 337.707 5.12925 337.042 5.12925C336.72 5.12925 336.443 5.24875 336.231 5.43259C336.055 5.33148 335.852 5.27632 335.64 5.3039C334.109 5.50613 332.624 5.81866 331.212 6.44372C329.783 7.07798 328.491 8.17185 327.2 9.05429C325.807 10.0103 324.395 10.9754 323.27 12.244C322.209 13.4389 321.305 14.7718 320.096 15.8289C318.953 16.84 317.643 17.6581 316.6 18.7704C315.484 19.9562 314.617 21.3993 313.814 22.7965C312.975 24.2581 312.209 25.7564 311.379 27.2271C310.549 28.7163 309.608 30.1135 308.63 31.5107C306.619 34.3878 304.544 37.1914 302.117 39.7285C300.272 38.4507 298.381 37.2466 296.453 36.0884C292.468 33.6984 288.345 31.5199 284.101 29.6171C280.209 27.8706 276.214 26.2896 272.072 25.2325C271.371 25.0486 270.661 24.9015 269.951 24.7545C269.785 24.6809 269.6 24.6258 269.416 24.6074C266.62 24.2673 264.13 22.7414 261.353 22.3002C258.189 21.7946 254.97 21.528 251.861 20.7375C250.366 20.3514 248.854 19.901 247.304 19.8918C246.575 19.8918 245.856 19.9378 245.136 19.7999C244.333 19.6436 243.54 19.4414 242.747 19.2208C239.776 18.4027 236.944 17.6765 233.845 18.1085C232.849 18.2464 231.88 18.4854 230.93 18.7888C230.764 18.5038 230.505 18.2832 230.183 18.228C227.185 17.7317 225.552 14.6891 223.421 12.8323C221.834 11.4534 220.155 10.1665 218.541 8.82449C217.785 8.19023 217.01 7.64789 216.152 7.16071C215.34 6.7103 214.501 6.28746 213.79 5.68078C213.596 5.51532 213.357 5.39582 213.117 5.34986C213.025 5.23955 212.895 5.12925 212.739 5.04652C204.113 0.349336 193.662 0.0276117 184.05 0.0276117C179.188 0.0276117 174.317 0.19307 169.456 0.14711C164.456 0.0919567 159.502 -0.174615 154.512 0.202262C144.069 1.00198 133.784 4.05377 125.952 11.2512C121.967 14.9097 118.738 19.3035 115.629 23.6974C114.015 25.977 112.419 28.275 110.74 30.5179C109.578 32.0714 108.305 33.5421 107.18 35.114C103.231 40.6109 100.095 46.834 95.1412 51.5587C93.2317 53.3788 90.7502 55.1988 87.992 54.9598C84.2467 54.6381 81.8022 50.8509 79.8189 48.1025C76.3503 43.295 73.0202 38.3864 69.238 33.8087C65.419 29.1759 61.0095 25.3244 56.0558 21.9325C53.4452 20.1492 50.5302 19.184 47.3477 19.423C44.1743 19.662 41.1578 20.8202 38.3812 22.3277C31.6563 25.9586 25.9646 31.4555 20.6973 36.9065C16.2786 41.475 12.2474 46.4295 7.69959 50.8601C5.993 52.5239 4.19417 54.2428 1.75883 54.6565C1.31605 54.73 1.04853 54.969 0.919381 55.2632C0.513491 55.447 0.199849 55.8147 0.190624 56.3846C0.0614769 63.821 -0.0768946 71.2759 0.236748 78.7123C0.513491 85.3582 0.74411 91.9949 0.993179 98.6409C1.13155 102.428 1.28837 106.224 1.62046 110.002C1.62046 110.113 1.62969 110.223 1.66659 110.352C1.94333 111.363 3.1241 111.85 3.92666 111.197C4.03735 111.142 4.14805 111.078 4.24952 110.986C10.301 105.59 15.9281 99.7347 21.0847 93.4841C23.6769 90.3404 26.1584 87.0955 28.5014 83.768C30.7062 80.6335 32.6895 77.3703 34.7927 74.1714C36.361 71.7814 38.169 69.3363 40.4844 67.6082C40.9733 67.2497 41.4899 66.9188 42.0342 66.6522C42.4309 66.45 43.2057 66.2018 43.5286 66.165C44.6264 66.018 45.5304 66.3029 46.4436 67.0475C47.6336 68.0127 48.3624 69.3731 49.1004 70.6784C49.6908 71.7079 50.2904 72.7374 50.9084 73.7577C52.3014 76.0742 53.7589 78.3446 55.281 80.5783C58.6203 85.4869 62.2641 90.2301 66.3322 94.5687C70.1697 98.6592 74.45 102.52 79.3761 105.268C83.6656 107.668 88.5455 109.157 93.4807 108.467C95.9345 108.127 98.2961 107.236 100.418 105.949C103.102 104.312 105.233 102.088 107.346 99.8083C111.995 94.7894 116.45 89.5958 120.62 84.1724C125.048 78.409 129.134 72.4065 133.083 66.3121C134.024 64.8506 134.965 63.3798 135.896 61.9091C137.806 63.2511 139.771 64.5105 141.689 65.8525C144.549 67.8656 147.436 69.8511 150.149 72.0572C151.486 73.1419 152.787 74.2817 154.004 75.5042C155.167 76.6625 156.311 77.7655 157.657 78.6939C162.62 82.1134 168.829 82.7017 174.705 82.766C177.002 85.0457 178.607 87.3897 180.387 90.1841C182.306 93.1899 184.105 96.2693 186.088 99.2383C190.535 105.875 196.06 111.776 203.541 114.966C208.92 117.264 214.75 118.147 220.58 118.156C220.764 118.156 220.921 118.119 221.059 118.064C221.198 118.119 221.345 118.147 221.521 118.156C221.576 118.156 221.631 118.156 221.687 118.156C222.24 118.229 222.803 118.22 223.375 118.156C223.384 118.156 223.393 118.156 223.402 118.156C223.458 118.156 223.504 118.147 223.559 118.137C226.087 118.634 228.172 120.261 230.764 120.527C231.428 120.592 232.083 120.583 232.738 120.72C233.374 120.849 234.011 121.033 234.647 121.162C235.939 121.419 237.258 121.345 238.559 121.575C239.952 121.823 241.317 122.173 242.719 122.393C244.195 122.623 245.653 122.577 247.147 122.586C250.182 122.605 253.217 122.743 256.261 122.853C259.148 122.963 262.063 123.11 264.951 122.926C267.561 122.761 270.163 122.384 272.755 121.989C275.43 121.584 278.096 121.143 280.771 120.757C281.943 120.592 283.124 120.435 284.304 120.316C284.812 120.27 285.328 120.224 285.845 120.196C286.647 120.141 287.413 119.939 288.206 119.82C289.037 119.7 289.913 119.783 290.753 119.783C291.693 119.783 292.634 119.755 293.575 119.783C294.461 119.81 295.346 119.911 296.232 119.82C297.062 119.737 297.865 119.516 298.695 119.415C299.664 119.296 300.623 119.093 301.582 118.919C301.951 118.854 302.293 118.781 302.616 118.716C303.132 118.652 303.658 118.597 304.175 118.569C304.636 118.551 304.968 118.349 305.171 118.073C307.08 117.935 308.962 117.595 310.752 116.878C312.56 116.152 314.193 115.178 315.715 113.964C318.685 111.583 320.927 108.32 322.495 104.882C325.558 98.1721 326.683 90.3128 325.41 83.0142C325.456 82.9866 325.511 82.9499 325.558 82.9131C326.36 82.2697 327.117 81.6078 327.67 80.7346C328.297 79.7418 328.786 78.6572 329.395 77.6552C330.032 76.5889 330.751 75.5686 331.415 74.5115C332.162 73.3349 332.734 72.094 333.371 70.8622C334.026 69.6121 334.755 68.4079 335.428 67.1762C335.871 66.3581 336.258 65.5492 336.793 64.7862C337.734 63.4534 339.063 61.9458 339.339 60.2637C339.598 60.0523 339.782 59.7489 339.801 59.3353C340.677 45.5747 338.518 31.8968 338.149 18.1637L338.112 18.1453ZM309.7 34.4981C310.641 33.1837 311.6 31.8692 312.458 30.5087C313.316 29.1575 314.073 27.7419 314.829 26.3263C315.604 24.8832 316.388 23.4492 317.301 22.0887C318.178 20.7835 319.239 19.7999 320.475 18.8439C321.683 17.9063 322.753 16.932 323.722 15.7462C324.681 14.5696 325.613 13.4022 326.831 12.483C328.334 11.3615 329.902 10.3136 331.461 9.26571C332.67 8.44761 334.201 8.07992 335.631 7.89608C335.631 7.89608 335.631 7.89608 335.64 7.89608C335.114 16.9871 335.871 26.0597 336.544 35.1324C332.928 35.6563 330.115 38.3312 327.873 41.0429C326.775 42.3758 325.76 43.773 324.755 45.1794C323.344 47.1649 321.905 49.178 320.687 51.2922C320.216 52.1103 320.078 53.3972 319.368 54.0498C319.1 54.298 318.694 54.4175 318.399 54.6289C318.113 54.8403 317.883 55.0885 317.717 55.3827C316.886 54.4267 315.936 53.6178 315.041 52.7261C314.147 51.8345 313.676 50.6855 313.058 49.6008C312.505 48.6264 311.794 47.7716 311.01 46.9719C309.765 45.7033 308.427 44.5359 307.043 43.4145C306.121 42.6699 305.18 41.9529 304.23 41.2543C306.222 39.1402 308.003 36.8513 309.682 34.4889L309.7 34.4981ZM319.903 56.7431C319.903 56.7431 319.894 56.7615 319.884 56.7707C319.829 56.7891 319.847 56.7707 319.903 56.7431ZM11.6847 50.4649C13.8433 48.1668 15.9281 45.8045 18.059 43.4788C23.188 37.89 28.5014 32.2736 34.6544 27.7695C39.2852 24.3776 45.6134 20.5261 51.5911 22.484C53.3161 23.0539 54.792 24.1846 56.2496 25.2325C58.6203 26.9238 60.8989 28.753 62.9929 30.7845C67.347 35.0129 70.8893 40.0502 74.3947 44.9772C78.3982 50.6028 83.6656 60.3832 92.1155 56.7615C95.0766 55.493 97.4566 53.0846 99.4861 50.6487C101.792 47.8911 103.785 44.8944 105.75 41.8886C107.475 39.2413 109.209 36.6123 111.165 34.1488C114.532 29.9113 117.474 25.3611 120.721 21.0408C123.904 16.8033 127.492 12.7587 131.93 9.78966C136.265 6.89414 141.164 5.04652 146.246 3.95265C155.951 1.86604 165.831 2.83121 175.664 2.70252C185.479 2.57383 195.719 2.05907 205.267 4.79833C207.407 5.4142 209.473 6.21392 211.438 7.28021C211.585 7.36294 211.733 7.4089 211.881 7.42728C211.908 7.45486 211.927 7.49163 211.964 7.5192C213.458 8.79691 215.312 9.49551 216.816 10.7456C218.504 12.152 220.284 13.4573 221.899 14.9465C223.79 16.6838 225.349 19.0002 227.664 20.1308C227.268 20.3239 226.88 20.5169 226.493 20.7191C224.011 22.0336 221.604 23.4859 219.177 24.8923C217.72 25.738 216.318 26.6205 214.925 27.5397C213.763 24.874 211.253 22.9528 209.132 21.0776C207.075 19.2668 205.423 16.6838 202.896 15.4888C201.355 14.7626 199.575 14.735 197.914 14.4317C196.106 14.1008 194.317 13.7055 192.518 13.3194C188.856 12.5381 185.147 11.7935 181.393 11.7292C179.511 11.7016 177.666 11.6373 175.793 11.4442C173.939 11.2512 172.085 11.0122 170.222 10.9387C166.412 10.7824 162.519 10.9479 158.728 11.2788C156.846 11.4442 154.982 11.6557 153.1 11.8119C151.182 11.9682 149.318 12.2623 147.492 12.8966C144.318 13.9997 141.173 15.5991 138.368 17.4467C135.749 19.1656 133.35 21.3258 131.745 24.0375C130.952 25.3795 130.426 26.8319 130.057 28.3394C129.587 30.2422 129.134 32.1541 128.701 34.0661C128.313 35.785 127.898 37.504 127.539 39.2321C127.225 39.3975 126.985 39.6917 126.838 40.041C123.895 47.1833 120.233 54.0314 115.759 60.3464C111.773 65.972 107.17 71.1196 102.447 76.1293C101.202 77.453 99.9473 78.7675 98.6927 80.0819C98.1577 80.6427 97.6411 81.2309 97.0692 81.7641C96.5895 82.2145 96.5249 82.2697 96.0176 82.5914C95.8238 82.7109 95.6301 82.8212 95.4364 82.9223C95.3349 82.9775 95.2427 83.0234 95.1412 83.0694C95.1043 83.0878 95.0766 83.097 95.0582 83.1062C95.0582 83.1062 95.0305 83.1061 95.0028 83.1245C94.5877 83.2808 94.1634 83.3911 93.7298 83.483C93.6837 83.4922 93.5269 83.5106 93.49 83.5198C93.4254 83.5198 93.3608 83.529 93.2962 83.5382C93.0656 83.5566 92.835 83.5566 92.6044 83.5566C92.3922 83.5566 92.1708 83.5382 91.9587 83.5198C91.931 83.5198 91.8111 83.5014 91.7557 83.4922C91.6911 83.483 91.5343 83.4555 91.4882 83.4463C90.9993 83.3543 90.5288 83.2256 90.0583 83.0786C89.837 83.005 89.6156 82.9223 89.3942 82.8396C89.3573 82.8212 89.2374 82.7752 89.2097 82.766C89.099 82.7201 88.979 82.6649 88.8684 82.6098C87.8629 82.141 86.9035 81.5803 85.981 80.9552C83.9885 79.6039 82.1435 77.9402 80.3816 76.1569C76.6824 72.4249 73.4907 68.3252 70.4742 64.06C67.7621 60.2269 65.3636 56.1732 62.5409 52.4228C58.7864 47.4315 53.8511 41.9621 47.237 41.3003C39.9586 40.5649 34.516 46.6869 30.5032 51.8713C26.1491 57.4969 22.2102 63.4258 18.059 69.1984C13.9263 74.9435 9.66446 80.7346 4.53549 85.6616C4.10193 86.0844 3.64991 86.4889 3.1979 86.8841C2.98573 81.4056 2.69976 75.9363 2.67209 70.4578C2.65364 65.9996 2.70899 61.5322 2.78278 57.074C6.45424 56.2927 9.24012 53.0846 11.7124 50.4465L11.6847 50.4649ZM121.257 78.9973C117.336 84.3471 113.139 89.4855 108.72 94.4309C104.892 98.7144 100.971 103.715 95.3349 105.415C90.9716 106.73 86.3961 105.866 82.2911 103.871C77.402 101.5 73.1955 97.9147 69.4225 94.0632C65.3175 89.8716 61.6645 85.2479 58.3159 80.4404C56.7754 78.2251 55.2994 75.9731 53.888 73.675C53.2331 72.6087 52.5873 71.5332 51.96 70.4486C51.2313 69.1984 50.5763 67.9024 49.7 66.7533C47.8827 64.391 45.1798 62.911 42.1726 63.821C39.3867 64.6575 37.1451 66.882 35.3462 69.0514C33.2338 71.5976 31.5825 74.438 29.7929 77.2048C27.5974 80.6059 25.2636 83.9243 22.8098 87.1415C17.9206 93.5576 12.5057 99.5968 6.68486 105.186C5.81773 106.013 4.93216 106.813 4.04658 107.631C3.62224 101.821 3.48387 95.9843 3.3086 90.1657C8.56672 86.0201 12.8009 80.5875 16.7952 75.2745C21.2416 69.3639 25.365 63.2144 29.7191 57.2211C31.6655 54.537 33.6304 51.8161 35.9089 49.3986C38.252 46.8983 41.1025 44.6095 44.5618 43.966C50.521 42.863 55.6961 48.0106 59.1738 52.2941C62.2549 56.0905 64.7271 60.3464 67.513 64.345C70.5387 68.6837 73.7582 72.9305 77.3835 76.7912C80.686 80.3026 84.5512 83.9151 89.2097 85.5145C91.1192 86.1671 93.2501 86.3785 95.2058 85.7994C97.7426 85.0457 99.3938 83.1337 101.156 81.2861C105.98 76.2212 110.786 71.1288 115.076 65.6043C119.568 59.8225 123.424 53.6086 126.579 46.9994C126.57 49.0585 126.828 51.1267 127.594 53.0203C128.775 55.9434 131.182 58.2782 133.618 60.1993C133.673 60.2453 133.738 60.2913 133.793 60.3372C129.789 66.6614 125.694 72.9305 121.275 78.9697L121.257 78.9973ZM161.79 78.0597C160.489 77.4714 159.235 76.7452 158.128 75.8536C156.938 74.8976 155.932 73.7486 154.825 72.719C152.344 70.4026 149.632 68.3528 146.874 66.3765C144.272 64.5105 141.634 62.6904 138.977 60.9071C136.487 59.2342 134.024 57.4877 132.022 55.2264C131.118 54.1969 130.306 53.0846 129.854 51.7793C129.43 50.5476 129.227 49.2607 129.171 47.9554C129.051 45.115 129.531 42.3298 130.131 39.563C130.915 35.9505 131.727 32.3472 132.621 28.7622C133.313 25.9862 134.863 23.679 136.976 21.7578C139.18 19.7539 141.828 18.3384 144.466 17.0147C145.988 16.2517 147.538 15.5715 149.171 15.0843C150.803 14.5971 152.473 14.4593 154.161 14.3306C157.796 14.0548 161.394 13.6412 165.047 13.5584C166.855 13.5217 168.681 13.4573 170.489 13.5492C172.306 13.6412 174.114 13.871 175.923 14.0548C179.419 14.4133 182.915 14.2295 186.393 14.7718C189.852 15.3141 193.256 16.1782 196.697 16.8308C197.573 16.9963 198.449 17.1434 199.326 17.2721C200.064 17.3824 200.839 17.4099 201.53 17.6949C202.637 18.1453 203.514 19.0645 204.316 19.9102C205.23 20.8846 206.115 21.8497 207.111 22.7414C208.283 23.7801 209.491 24.782 210.598 25.8943C211.456 26.7675 212.323 27.7419 212.711 28.9185C212.711 28.9461 212.729 28.9645 212.739 28.9828C212.213 29.3413 211.687 29.6998 211.161 30.0583C209.141 31.4463 206.945 32.5586 204.916 33.919C203.173 32.4023 201.318 31.0419 199.529 29.5803C197.601 28.0085 195.747 26.4274 193.588 25.1773C192.472 24.5247 191.319 23.8628 190.073 23.4859C188.976 23.1458 187.813 23.0447 186.669 23.0263C184.123 22.9804 181.66 22.916 179.142 22.5024C176.541 22.0704 173.967 21.3809 171.319 21.2431C168.792 21.1144 166.2 21.2155 163.681 21.3901C162.325 21.4821 160.988 21.7486 159.65 21.9876C158.571 22.1807 157.528 22.2082 156.44 22.3002C154.051 22.5024 152.335 24.5155 150.85 26.2068C149.263 28.0177 147.787 29.8653 145.536 30.8672C144.66 31.2533 143.7 31.4923 142.852 31.9335C142.197 32.2736 141.809 32.8435 141.468 33.4686C140.269 35.6839 140.407 38.129 140.49 40.5649C140.555 42.5412 140.453 44.5176 141.2 46.3928C141.892 48.1301 143.11 49.5089 144.558 50.6763C146.412 52.1746 148.34 53.5534 150.158 55.0885C152.104 56.7339 154.032 58.3977 156.08 59.9236C158.091 61.4219 160.268 62.6445 162.473 63.8394C164.595 64.9884 166.79 65.9628 169.133 66.5879C171.771 67.2865 174.483 68.3436 177.232 68.4631C178.478 68.5182 179.723 68.3987 180.959 68.316C182.02 68.2425 183.081 68.27 184.142 68.2333C186.236 68.1597 188.367 67.8288 190.258 66.9188C190.332 66.882 190.396 66.8453 190.47 66.7993C190.424 70.2004 190.433 73.6015 190.756 76.9842C190.581 77.1313 190.433 77.3243 190.35 77.5909C190.35 77.6093 190.35 77.6093 190.35 77.6184C190.35 77.6184 190.332 77.6184 190.304 77.646C190.304 77.646 190.304 77.646 190.295 77.6552C190.202 77.7104 190.11 77.7655 190.018 77.8115C190.018 77.8023 189.667 77.931 189.603 77.9494C189.345 78.0229 189.077 78.078 188.81 78.124C187.97 78.2711 186.918 78.2987 185.978 78.3538C184.889 78.4182 183.883 78.602 182.85 78.9513C181.411 79.4293 179.991 80.0727 178.459 80.1463C175.572 80.275 172.62 80.2014 169.742 79.9441C167.039 79.6959 164.272 79.1811 161.799 78.0505L161.79 78.0597ZM193.201 47.0086C193.154 47.073 193.118 47.1465 193.071 47.2109C192.887 47.266 192.712 47.3671 192.582 47.5234C192.333 47.8175 192.278 47.8451 191.955 47.9462C191.512 48.0841 191.134 48.1209 190.673 48.1393C189.64 48.1852 188.616 48.0933 187.592 48.0198C186.522 47.937 185.442 47.983 184.382 47.8635C182.952 47.698 181.559 47.2936 180.184 46.8707C177.62 46.0802 175.148 44.7841 172.426 44.6003C171.485 44.5359 170.508 44.5635 169.594 44.444C168.819 44.3429 167.98 44.1591 167.519 43.5616C167.131 43.0468 167.002 42.2011 167.002 41.6404C167.002 40.9602 167.15 40.473 167.528 39.8479C168.248 38.6622 169.585 37.7797 171.006 37.0811C172.491 36.3641 174.197 35.8586 175.886 35.5368C176.744 35.3714 177.159 35.3162 178.026 35.2611C179.124 35.1967 180.23 35.2335 181.319 35.2611C182.86 35.2887 184.382 35.4081 185.867 35.8402C187.26 36.2538 188.496 36.9616 189.658 37.8349C192.001 39.609 193.948 41.861 196.014 43.9293C195.903 44.0579 195.793 44.1866 195.673 44.3061C194.787 45.1886 193.892 45.9515 193.191 47.0086H193.201ZM198.256 40.9142C198.053 41.236 197.85 41.5485 197.638 41.8702C195.682 39.8939 193.809 37.8073 191.614 36.0792C189.068 34.0845 186.31 32.9906 183.062 32.7424C178.69 32.4023 174.391 32.7884 170.342 34.5625C166.799 36.1068 163.46 39.2688 164.687 43.4697C165.434 46.0435 167.62 46.8983 170.111 47.0822C170.618 47.1189 171.126 47.1373 171.633 47.1557C171.873 47.1649 172.113 47.1741 172.362 47.1925C172.491 47.1925 172.62 47.2109 172.749 47.22C172.777 47.22 172.952 47.2476 173.007 47.2476C174.557 47.4958 176.024 48.1485 177.482 48.6908C179.124 49.2975 180.839 49.8306 182.555 50.1707C184.133 50.4833 185.692 50.4741 187.287 50.5844C188.514 50.6671 190.083 50.8785 191.522 50.7131C190.498 54.1877 190.608 58.0116 190.571 61.569C190.571 62.2216 190.553 62.8651 190.544 63.5177C189.428 64.7495 187.749 65.2091 186.153 65.4572C184.243 65.7606 182.278 65.6227 180.36 65.7606C179.17 65.8433 177.97 65.9444 176.78 65.8341C175.59 65.7238 174.4 65.3286 173.247 65.016C170.913 64.3726 168.497 63.8486 166.283 62.8467C162.048 60.9255 158.146 58.3977 154.586 55.4194C152.778 53.9119 151.006 52.3585 149.152 50.9061C147.621 49.7111 145.914 48.6632 144.651 47.1649C143.719 46.0618 143.276 44.7106 143.165 43.2582C143.092 42.2471 143.138 41.2268 143.101 40.2156C143.055 39.085 142.981 37.9268 143.11 36.7962C143.221 35.8678 143.553 35.1232 143.996 34.3143C144.014 34.2867 144.014 34.2683 144.023 34.2591C144.051 34.2407 144.088 34.2132 144.134 34.1948C144.199 34.1672 144.254 34.1488 144.318 34.1304C144.54 34.0477 144.77 33.965 144.992 33.8823C146.062 33.4686 147.16 33.055 148.147 32.4575C149.152 31.8416 150.019 31.0235 150.822 30.1778C152.316 28.5876 153.608 26.6756 155.397 25.3887C156.154 24.8372 156.707 24.9107 157.602 24.8648C158.829 24.8096 160.056 24.5522 161.264 24.3316C163.626 23.9088 166.024 23.872 168.423 23.8169C170.821 23.7617 173.072 23.9823 175.424 24.4419C177.943 24.9383 180.48 25.4071 183.044 25.5726C185.221 25.7104 187.509 25.352 189.612 26.0689C190.654 26.4274 191.651 27.0525 192.592 27.6132C193.505 28.1647 194.4 28.753 195.248 29.4057C197.241 30.9316 199.16 32.577 201.134 34.1396C201.706 34.59 202.259 35.0497 202.813 35.5276C202.019 36.1803 201.245 36.8789 200.571 37.6418C199.667 38.6438 198.984 39.7836 198.265 40.9234L198.256 40.9142ZM144.032 34.2499C144.032 34.2499 144.051 34.2499 144.069 34.2224C144.051 34.2407 144.042 34.2499 144.023 34.2591C144.023 34.2591 144.023 34.2591 144.023 34.2499H144.032ZM190.285 77.692C190.202 77.7655 190.239 77.7287 190.285 77.692V77.692ZM195.802 106.914C190.424 101.996 186.946 95.7453 183.062 89.5866C181.577 87.2334 180.018 84.8802 178.21 82.7569C178.902 82.7293 179.585 82.6649 180.258 82.527C181.78 82.2053 183.192 81.5159 184.686 81.1298C184.723 81.1207 185.193 81.0379 185.147 81.0287C185.313 81.0103 185.479 80.992 185.655 80.9828C186.19 80.946 186.734 80.9276 187.269 80.8908C188.394 80.8173 189.575 80.7346 190.645 80.3577C190.83 80.2934 190.996 80.2106 191.162 80.1279C191.162 80.1279 191.162 80.1371 191.162 80.1463C191.642 83.1613 192.536 86.112 193.422 89.0351C194.224 91.6916 195.036 94.4952 196.724 96.7473C198.136 98.6409 199.981 100.047 201.909 101.38C202.923 102.079 203.975 102.75 204.925 103.531C205.848 104.285 206.54 105.204 207.176 106.206C207.932 107.383 208.707 108.495 209.704 109.478C210.691 110.453 211.77 111.326 212.812 112.236C213.938 113.21 215.063 114.148 216.281 115.012C216.465 115.141 216.65 115.279 216.834 115.417C213.061 115.141 209.325 114.433 205.765 113.082C202.075 111.685 198.671 109.524 195.811 106.905L195.802 106.914ZM321.406 100.534C319.109 107.465 314.211 114.12 306.545 115.334C305.226 115.545 303.87 115.564 302.542 115.564C301.979 115.564 301.61 115.858 301.426 116.253C300.992 116.308 300.558 116.345 300.125 116.372C299.784 116.391 299.516 116.51 299.313 116.694C299.175 116.722 299.036 116.749 298.889 116.768C298.483 116.841 298.197 116.86 297.745 116.915C296.97 117.007 296.25 117.246 295.466 117.255C293.806 117.264 292.127 117.181 290.467 117.181C289.673 117.181 288.871 117.135 288.087 117.227C287.385 117.31 286.703 117.522 285.993 117.586C284.867 117.678 283.742 117.77 282.616 117.908C279.969 118.239 277.33 118.661 274.692 119.075C272.082 119.489 269.471 119.902 266.842 120.169C264.13 120.445 261.427 120.408 258.706 120.334C255.745 120.252 252.793 120.095 249.831 120.022C248.208 119.985 246.584 119.976 244.952 119.985C243.688 119.985 242.47 119.718 241.234 119.461C239.749 119.149 238.254 118.818 236.732 118.781C235.192 118.744 233.743 118.183 232.212 118.027C231.483 117.954 230.773 117.963 230.063 117.788C229.445 117.632 228.863 117.393 228.292 117.117C226.954 116.474 225.626 115.867 224.159 115.6C223.993 115.573 223.836 115.573 223.679 115.591C223.596 115.573 223.504 115.554 223.412 115.554C222.932 115.554 222.443 115.554 221.963 115.554C221.299 115.389 220.746 114.994 220.109 114.534C218.938 113.688 217.729 112.907 216.576 112.034C215.506 111.216 214.519 110.287 213.504 109.414C212.48 108.541 211.466 107.649 210.598 106.62C209.824 105.691 209.279 104.588 208.56 103.623C207.766 102.566 206.853 101.729 205.792 100.948C204.04 99.652 202.149 98.5306 200.525 97.069C198.726 95.442 197.675 93.4933 196.881 91.232C195.913 88.4652 195.092 85.6248 194.363 82.7844C192.887 76.9934 193.025 70.945 193.136 65.016C193.182 62.286 193.099 59.5375 193.228 56.8074C193.33 54.5646 193.662 52.2849 194.492 50.1799C194.843 49.2883 195.322 48.3966 195.95 47.6705C196.771 46.7053 197.794 45.9607 198.597 44.968C200.23 42.9365 201.3 40.4914 203.2 38.6714C205.202 36.7594 207.49 35.3622 209.87 33.965C212.499 32.4299 214.888 30.5639 217.471 28.9553C219.952 27.411 222.526 25.9954 225.054 24.5247C227.212 23.2653 229.399 21.9968 231.797 21.2339C234.278 20.4433 236.806 20.3422 239.334 20.9673C240.791 21.3258 242.23 21.7946 243.697 22.1347C244.463 22.3094 245.237 22.4656 246.012 22.4932C246.75 22.5208 247.488 22.438 248.217 22.5392C249.665 22.7506 251.058 23.2378 252.479 23.5503C253.992 23.8812 255.551 24.0559 257.073 24.304C258.503 24.5339 259.979 24.6258 261.399 24.9383C262.737 25.2325 264.019 25.738 265.311 26.1884C266.39 26.5653 267.469 26.8687 268.576 27.0709C268.659 27.1077 268.742 27.1444 268.834 27.1628C272.644 27.8798 276.334 29.1575 279.913 30.619C283.982 32.2736 287.939 34.2316 291.776 36.3733C295.568 38.4875 299.258 40.7855 302.763 43.341C304.23 44.4164 305.66 45.5379 307.025 46.7329C308.307 47.8635 309.737 49.0585 310.641 50.52C311.305 51.5955 311.776 52.7721 312.56 53.7649C313.316 54.7208 314.294 55.4286 315.134 56.3019C316.877 58.1311 318.538 60.2361 319.681 62.4882C320.862 64.8138 321.139 67.4336 321.277 69.989C321.351 71.3034 321.305 72.6823 321.646 73.9692C321.988 75.2561 322.449 76.3223 322.384 77.6736C322.32 79.08 322.191 80.3945 322.513 81.7825C322.707 82.6098 322.873 83.4463 322.993 84.2919C323.233 85.9189 323.316 87.739 323.288 89.4487C323.224 93.2083 322.596 96.9403 321.416 100.507L321.406 100.534ZM336.72 59.9971C336.655 60.181 336.627 60.2453 336.553 60.3924C336.369 60.7693 336.148 61.1186 335.917 61.4679C335.41 62.24 334.847 62.9754 334.321 63.7475C333.768 64.5564 333.371 65.4572 332.9 66.3213C332.264 67.4795 331.581 68.6101 330.973 69.7867C330.373 70.945 329.829 72.094 329.137 73.197C328.473 74.2449 327.753 75.2653 327.117 76.3407C326.535 77.3151 326.056 78.3354 325.475 79.3006C325.281 79.6223 325.253 79.6775 324.986 79.9532C324.939 79.9992 324.893 80.036 324.856 80.0727C324.838 79.5028 324.893 78.9237 324.93 78.363C325.032 76.929 324.903 75.6329 324.441 74.2725C323.999 72.9764 323.952 71.7447 323.879 70.3842C323.805 68.9962 323.703 67.6174 323.491 66.2478C323.067 63.5085 321.997 61.0266 320.41 58.7562C320.124 58.3425 319.811 57.9473 319.506 57.552C319.709 57.4049 319.866 57.1751 319.94 56.8442C319.958 56.7891 319.977 56.7431 319.986 56.7063C320.17 56.642 320.382 56.5133 320.558 56.403C321.093 56.0721 321.517 55.6125 321.858 55.0793C322.181 54.5554 322.384 53.9579 322.596 53.388C322.818 52.8089 323.141 52.3125 323.464 51.7885C324.875 49.5732 326.351 47.4039 327.891 45.2713C329.128 43.5616 330.447 41.8886 331.987 40.4271C333.288 39.1953 334.921 37.936 336.756 37.6878C336.996 40.997 337.199 44.3061 337.31 47.6153C337.43 51.3381 337.421 55.0609 337.199 58.7746C336.95 58.986 336.775 59.2985 336.766 59.7122C336.766 59.7397 336.766 59.7673 336.766 59.7857C336.747 59.85 336.738 59.9236 336.71 59.9879L336.72 59.9971Z" fill="black"/>
<path d="M193.191 47.0178C193.145 47.0822 193.108 47.1557 193.062 47.22C192.877 47.2752 192.702 47.3763 192.573 47.5326C192.324 47.8267 192.269 47.8543 191.946 47.9554C191.503 48.0933 191.125 48.1301 190.663 48.1484C189.63 48.1944 188.606 48.1025 187.582 48.0289C186.512 47.9462 185.433 47.9922 184.372 47.8727C182.942 47.7072 181.549 47.3028 180.175 46.8799C177.61 46.0894 175.138 44.7933 172.417 44.6095C171.476 44.5451 170.498 44.5727 169.585 44.4532C168.81 44.3521 167.97 44.1682 167.509 43.5708C167.122 43.056 166.993 42.2103 166.993 41.6496C166.993 40.9694 167.14 40.4822 167.518 39.8571C168.238 38.6713 169.576 37.7889 170.996 37.0903C172.481 36.3733 174.188 35.8677 175.876 35.546C176.734 35.3806 177.149 35.3254 178.016 35.2703C179.114 35.2059 180.221 35.2427 181.31 35.2703C182.85 35.2978 184.372 35.4173 185.857 35.8494C187.25 36.263 188.486 36.9708 189.649 37.8441C191.992 39.6181 193.938 41.8702 196.005 43.9384C195.894 44.0671 195.783 44.1958 195.663 44.3153C194.778 45.1978 193.883 45.9607 193.182 47.0178H193.191Z" fill="#FFCFCF"/>
<path d="M195.783 106.914C190.405 101.996 186.927 95.7454 183.044 89.5866C181.558 87.2335 179.999 84.8803 178.191 82.7569C178.883 82.7293 179.566 82.665 180.239 82.5271C181.761 82.2054 183.173 81.5159 184.667 81.1299C184.704 81.1207 185.175 81.038 185.128 81.0288C185.294 81.0104 185.461 80.992 185.636 80.9828C186.171 80.946 186.715 80.9276 187.25 80.8909C188.376 80.8173 189.556 80.7346 190.626 80.3577C190.811 80.2934 190.977 80.2107 191.143 80.1279C191.143 80.1279 191.143 80.1371 191.143 80.1463C191.623 83.1613 192.517 86.112 193.403 89.0351C194.206 91.6916 195.017 94.4952 196.706 96.7473C198.117 98.6409 199.962 100.047 201.89 101.38C202.905 102.079 203.956 102.75 204.906 103.531C205.829 104.285 206.521 105.204 207.157 106.206C207.914 107.383 208.688 108.495 209.685 109.478C210.672 110.453 211.751 111.326 212.794 112.236C213.919 113.21 215.044 114.148 216.262 115.012C216.447 115.141 216.631 115.279 216.816 115.417C213.043 115.141 209.307 114.433 205.746 113.082C202.056 111.685 198.652 109.524 195.792 106.905L195.783 106.914Z" fill="#F0F2AA"/>
<path d="M336.71 59.9879C336.645 60.1718 336.618 60.2361 336.544 60.3832C336.359 60.76 336.138 61.1093 335.907 61.4586C335.4 62.2308 334.837 62.9662 334.312 63.7383C333.758 64.5472 333.361 65.448 332.891 66.3121C332.254 67.4703 331.572 68.6009 330.963 69.7775C330.363 70.9357 329.819 72.0848 329.127 73.1878C328.463 74.2357 327.744 75.256 327.107 76.3315C326.526 77.3059 326.046 78.3262 325.465 79.2914C325.271 79.6131 325.244 79.6683 324.976 79.944C324.93 79.99 324.884 80.0268 324.847 80.0635C324.828 79.4936 324.884 78.9145 324.921 78.3538C325.022 76.9198 324.893 75.6237 324.432 74.2633C323.989 72.9672 323.943 71.7355 323.869 70.375C323.795 68.987 323.694 67.6082 323.482 66.2386C323.057 63.4993 321.987 61.0174 320.401 58.747C320.115 58.3333 319.801 57.9381 319.497 57.5428C319.7 57.3957 319.856 57.1659 319.93 56.835C319.949 56.7799 319.967 56.7339 319.976 56.6971C320.161 56.6328 320.373 56.5041 320.548 56.3938C321.083 56.0629 321.508 55.6033 321.849 55.0701C322.172 54.5462 322.375 53.9487 322.587 53.3788C322.808 52.7997 323.131 52.3033 323.454 51.7793C324.865 49.564 326.341 47.3947 327.882 45.2621C329.118 43.5524 330.437 41.8794 331.978 40.4178C333.278 39.1861 334.911 37.9268 336.747 37.6786C336.987 40.9878 337.19 44.2969 337.3 47.6061C337.42 51.3289 337.411 55.0517 337.19 58.7654C336.941 58.9768 336.765 59.2893 336.756 59.7029C336.756 59.7305 336.756 59.7581 336.756 59.7765C336.738 59.8408 336.728 59.9144 336.701 59.9787L336.71 59.9879Z" fill="#F0F2AA"/>
<path d="M309.7 34.498C310.641 33.1836 311.6 31.8691 312.458 30.5087C313.316 29.1574 314.072 27.7418 314.829 26.3262C315.604 24.8831 316.388 23.4491 317.301 22.0887C318.177 20.7834 319.238 19.7998 320.474 18.8438C321.683 17.9062 322.753 16.9319 323.721 15.7461C324.681 14.5695 325.613 13.4021 326.83 12.4829C328.334 11.3614 329.902 10.3135 331.461 9.26562C332.669 8.44752 334.201 8.07984 335.631 7.896C335.631 7.896 335.631 7.896 335.64 7.896C335.114 16.987 335.87 26.0597 336.544 35.1323C332.928 35.6563 330.114 38.3312 327.873 41.0428C326.775 42.3757 325.76 43.7729 324.755 45.1793C323.343 47.1648 321.904 49.1779 320.686 51.2921C320.216 52.1102 320.078 53.3971 319.367 54.0497C319.1 54.2979 318.694 54.4174 318.399 54.6288C318.113 54.8402 317.882 55.0884 317.716 55.3826C316.886 54.4266 315.936 53.6177 315.041 52.7261C314.146 51.8344 313.676 50.6854 313.058 49.6007C312.504 48.6264 311.794 47.7715 311.01 46.9718C309.764 45.7033 308.427 44.5359 307.043 43.4144C306.121 42.6699 305.18 41.9529 304.229 41.2543C306.222 39.1401 308.002 36.8512 309.681 34.4889L309.7 34.498Z" fill="#FFCFCF"/>
<path d="M272.284 75.0538C272.146 76.0834 272.33 77.3059 271.611 78.1516C270.402 79.5672 268.05 79.6959 266.307 79.5212C265.393 79.4293 264.388 79.1903 263.595 78.8134C262.608 78.3446 261.777 77.5909 260.938 76.9015C259.895 76.0466 258.825 75.2101 257.58 74.6678C256.141 74.0427 254.591 73.8129 253.078 73.4084C250.708 72.7742 248.687 71.3678 247.497 69.2076C246.344 67.121 246.215 64.8873 247.451 62.8099C248.549 60.9807 250.505 59.6662 252.663 60.2637C253.014 60.4383 253.41 60.5486 253.779 60.6498C254.065 60.7233 254.361 60.7968 254.656 60.8796C254.803 61.2197 255.145 61.5598 255.495 61.6149C258.226 62.001 260.421 63.8027 262.543 65.4205C263.484 66.1375 264.379 66.7533 265.486 67.2037C266.463 67.599 267.497 67.8472 268.511 68.1322C270.172 68.5918 272.653 69.2076 272.995 71.2391C273.198 72.4892 272.46 73.8497 272.294 75.0814L272.284 75.0538Z" fill="#ABE1EF"/>
</g>
<defs>
<clipPath id="clip0_623_368">
<rect width="340" height="123" fill="white"/>
</clipPath>
</defs>
</svg>
