<svg width="19" height="22" viewBox="0 0 19 22" fill="none" xmlns="http://www.w3.org/2000/svg">
<path d="M19 12.5714C19 10.0708 17.9991 7.67262 16.2175 5.90442C14.4359 4.13622 12.0196 3.14286 9.5 3.14286V0L5.39389 4.07524L5.24611 4.14857L9.5 8.38095V5.2381C11.4597 5.2381 13.339 6.01071 14.7247 7.38598C16.1104 8.76125 16.8889 10.6265 16.8889 12.5714C16.8889 14.5163 16.1104 16.3816 14.7247 17.7569C13.339 19.1321 11.4597 19.9048 9.5 19.9048C7.54034 19.9048 5.66095 19.1321 4.27527 17.7569C2.88958 16.3816 2.11111 14.5163 2.11111 12.5714C2.11111 10.5495 2.945 8.71619 4.28555 7.39619L2.78666 5.90857C1.05556 7.61619 0 9.95238 0 12.5714C0 15.072 1.00089 17.4702 2.78249 19.2384C4.56408 21.0066 6.98044 22 9.5 22C12.0196 22 14.4359 21.0066 16.2175 19.2384C17.9991 17.4702 19 15.072 19 12.5714Z" fill="white"/>
</svg>
