<svg width="130" height="115" viewBox="0 0 130 115" fill="none" xmlns="http://www.w3.org/2000/svg">
<g clip-path="url(#clip0_465_1304)">
<path d="M45.9152 3.1878C55.1019 -0.536511 66.2881 0.739174 74.139 6.40698C80.2578 10.8248 88.3587 16.5012 96.7526 14.3864C105.224 12.2546 110.636 6.06452 120.357 10.5423C126.657 13.4447 130.621 20.6964 128.613 27.109C128.208 28.4104 127.579 29.669 127.364 31.0046C127.053 32.8967 127.588 34.806 127.613 36.7152C127.726 44.044 121.503 46.2358 115.953 49.3693C109.852 52.8111 108.792 55.6707 106.25 61.7666C103.535 68.282 94.4085 70.8762 87.5141 68.5132C80.6111 66.1501 75.8281 60.1227 72.898 53.7614C71.5019 50.7392 70.4247 47.3659 71.2951 44.1381C72.0535 41.3299 76.7072 36.7751 79.9906 36.7751C81.9641 36.7751 83.7825 37.6655 85.5234 38.5303C85.2562 39.8231 84.989 41.1844 85.3941 42.4429C86.7299 46.5611 91.6593 43.5217 92.3315 40.7135C93.2106 37.0405 87.6951 33.3077 84.9287 31.9036C82.1106 30.4738 79.0168 29.2238 75.8023 29.4292C68.6063 29.8916 64.2628 36.9806 60.695 42.9395C57.1272 48.907 51.017 55.4138 44.071 53.6758C34.0827 51.1673 34.1775 41.5868 21.9659 47.6056C18.105 49.5063 14.3648 51.9892 10.0559 52.4344C5.74689 52.8796 0.70538 50.1827 0.869121 46.0902C2.12734 47.3145 4.29045 47.3231 5.96234 46.6381C7.64284 45.9447 8.97862 44.6947 10.3575 43.5474C14.2614 40.3197 18.829 37.8111 23.7153 36.1929C25.6975 35.5423 27.7658 35.02 29.4894 33.8899C35.1169 30.2169 30.2391 26.5097 30.0237 22.0149C29.6445 13.9584 38.6158 6.15013 45.9066 3.19637L45.9152 3.1878Z" fill="#333333" stroke="#040000" stroke-width="2.66638" stroke-miterlimit="10"/>
</g>
<path d="M38.4745 108.477C36.3945 108.477 34.6145 107.637 33.3345 106.297L34.4545 105.037C35.4945 106.137 36.9745 106.857 38.4945 106.857C40.4145 106.857 41.5745 105.897 41.5745 104.457C41.5745 102.957 40.5145 102.477 39.1345 101.857L37.0145 100.937C35.6545 100.357 34.0345 99.3168 34.0345 97.1768C34.0345 94.9168 35.9945 93.2768 38.6545 93.2768C40.3945 93.2768 41.9345 94.0168 42.9745 95.0968L41.9945 96.2768C41.0945 95.4368 40.0145 94.8968 38.6545 94.8968C36.9945 94.8968 35.9145 95.7368 35.9145 97.0568C35.9145 98.4768 37.1945 99.0168 38.3345 99.4968L40.4345 100.397C42.1345 101.137 43.4545 102.137 43.4545 104.317C43.4545 106.637 41.5345 108.477 38.4745 108.477ZM46.3281 108.217V93.5368H48.5681L51.3881 101.397C51.7281 102.417 52.0681 103.437 52.4281 104.457H52.5281C52.8681 103.437 53.1881 102.417 53.5281 101.397L56.3281 93.5368H58.5681V108.217H56.8281V100.097C56.8281 98.8368 56.9681 97.0568 57.0681 95.7768H56.9881L55.8281 99.1168L53.0481 106.737H51.8081L49.0281 99.1168L47.8681 95.7768H47.7881C47.8681 97.0568 48.0081 98.8368 48.0081 100.097V108.217H46.3281ZM67.9786 108.477C64.2986 108.477 61.7186 105.537 61.7186 100.837C61.7186 96.1368 64.2986 93.2768 67.9786 93.2768C71.6586 93.2768 74.2386 96.1368 74.2386 100.837C74.2386 105.537 71.6586 108.477 67.9786 108.477ZM67.9786 106.857C70.5986 106.857 72.3386 104.497 72.3386 100.837C72.3386 97.1568 70.5986 94.8968 67.9786 94.8968C65.3386 94.8968 63.6186 97.1568 63.6186 100.837C63.6186 104.497 65.3386 106.857 67.9786 106.857ZM77.4023 108.217V93.5368H79.2623V100.917H79.3223L85.4423 93.5368H87.5223L82.9423 99.1368L88.2423 108.217H86.1823L81.7823 100.577L79.2623 103.577V108.217H77.4023ZM92.3605 108.217V102.517L87.9605 93.5368H89.9405L91.8205 97.6968C92.3005 98.7768 92.7405 99.7968 93.2605 100.897H93.3405C93.8605 99.7968 94.3605 98.7768 94.8005 97.6968L96.7005 93.5368H98.6205L94.2205 102.517V108.217H92.3605Z" fill="black"/>
<defs>
<clipPath id="clip0_465_1304">
<rect width="130" height="70" fill="white" transform="translate(0 0.216797)"/>
</clipPath>
</defs>
</svg>
