<svg width="268" height="236" viewBox="0 0 268 236" fill="none" xmlns="http://www.w3.org/2000/svg">
<g clip-path="url(#clip0_336_442)">
<path d="M249.463 214.648C223.167 214.648 196.872 214.648 170.567 214.657C167.569 193.586 164.57 172.524 161.571 151.453C162.01 151.234 162.518 150.988 163.08 150.734C163.08 150.734 165.912 149.444 168.963 148.541C179.634 145.4 199.537 148.576 199.537 148.576C223.746 152.427 222.405 154.576 229.314 153.506C232.935 152.944 239.371 151.409 249.016 151.497C251.944 151.523 254.356 151.69 255.969 151.83C253.803 172.77 251.638 193.709 249.463 214.648Z" fill="#D9C459"/>
<path d="M227.981 208.209C225.798 207.736 221.782 206.569 217.766 203.411C213.444 200.025 211.313 196.06 210.375 194.007C212.234 189.077 214.084 184.147 215.943 179.217C217.442 178.165 222.983 174.568 230.752 175.191C238.836 175.849 243.843 180.647 245.079 181.91C249.244 189.647 247.999 198.744 242.484 203.981C236.828 209.35 229.077 208.367 227.981 208.209Z" fill="white"/>
<path d="M199.888 185.963C198.038 187.209 194.408 189.288 189.349 189.998C183.913 190.761 179.581 189.551 177.45 188.796C175.188 184.042 172.926 179.287 170.655 174.524C170.944 172.717 172.19 166.225 178.029 161.059C184.114 155.681 191.032 155.409 192.803 155.392C201.265 157.751 206.955 164.962 206.894 172.568C206.832 180.366 200.756 185.27 199.879 185.954L199.888 185.963Z" fill="white"/>
<path d="M265.772 119.478C265.772 119.478 265.702 119.425 265.666 119.39C265.614 119.311 265.588 119.232 265.517 119.154C262.028 115.513 252.365 116.074 247.876 115.759C234.759 114.82 221.572 114.706 208.419 114.802C195.451 114.899 182.44 115.215 169.507 116.346C165.07 116.732 154.408 116.303 151.164 120.189C149.691 121.952 150.103 124.908 150.147 127.022C150.269 132.865 150.936 138.724 151.549 144.532C153.373 161.813 155.749 179.033 158.187 196.235C159.318 204.227 160.51 212.21 161.703 220.192C162.922 228.368 165.158 229.14 173.128 229.965C186.49 231.351 199.949 231.64 213.373 231.403C219.59 231.289 225.807 231.061 232.014 230.763C237.53 230.5 245.386 231.456 250.585 229.596C258.214 226.868 258.678 212.052 259.818 205.315C262.142 191.621 262.983 177.735 264.378 163.927C265.281 154.997 266.385 146.128 266.824 137.163C267.052 132.628 268.832 123.505 265.754 119.487L265.772 119.478ZM263.606 137.154C263.317 143.032 262.826 148.891 262.177 154.743C261.046 164.918 260.178 175.112 259.161 185.296C258.056 196.358 257.609 210.271 253.119 220.631C249.98 227.877 245.289 226.807 238.196 227.201C232.523 227.517 226.841 227.78 221.16 227.965C209.761 228.333 198.345 228.386 186.964 227.789C181.843 227.517 176.696 227.175 171.602 226.561C165.535 225.833 165.456 223.517 164.693 218.482C163.632 211.473 162.606 204.464 161.606 197.446C159.344 181.638 157.179 165.822 155.381 149.953C154.759 144.488 154.171 139.014 153.759 133.522C153.601 131.391 152.189 124.68 153.478 122.733C155.688 119.39 167.078 119.768 170.778 119.461C181.361 118.592 191.988 118.259 202.606 118.092C215.294 117.89 227.999 117.96 240.677 118.566C245.631 118.803 250.612 119.075 255.539 119.68C257.302 119.899 261.633 119.943 263.141 121.364C265.325 124.741 263.781 133.637 263.615 137.145L263.606 137.154Z" fill="#333333" stroke="#323333" stroke-width="1.33336" stroke-miterlimit="10"/>
<path d="M202.422 159.015C194.917 150.874 181.799 154.637 174.785 161.673C171.137 165.647 168.647 169.34 169.612 174.892C170.375 179.279 173.04 186.875 176.354 189.946C179.546 192.902 187.367 192.604 191.488 192.411C197.03 192.147 199.941 188.77 203.176 184.498C205.693 181.173 209.752 176.454 209.621 171.98C209.48 167.331 205.412 162.269 202.422 159.023V159.015ZM195.837 158.637C194.101 160.909 192.444 163.243 190.699 165.506C189.261 167.366 187.49 168.936 186.026 170.752C184.956 170.559 183.79 170.682 182.378 170.796C179.467 171.015 176.539 171.094 173.628 171.419C174.084 168.62 175.206 165.98 177.065 163.953C181.677 159.33 189.542 156.374 195.828 158.629L195.837 158.637ZM183.685 188.674C177.073 187.402 173.54 181.059 173.4 174.673C177.205 174.199 184.64 172.463 187.122 175.682C189.805 179.165 190.901 183.884 193.365 187.551C193.452 187.674 193.557 187.753 193.663 187.84C190.796 189.06 187.534 189.419 183.685 188.682V188.674ZM202.466 179.937C200.625 182.673 198.617 184.831 196.355 186.375C196.311 186.217 196.267 186.068 196.162 185.91C193.391 181.796 192.155 176.533 189.024 172.673C188.945 172.577 188.875 172.515 188.796 172.427C190.269 170.585 192.093 168.971 193.54 167.085C195.302 164.787 196.977 162.436 198.731 160.138C199.213 160.48 199.686 160.866 200.134 161.295C202.185 163.278 205.789 168.129 206.219 171.12C206.666 174.252 204.088 177.515 202.457 179.928L202.466 179.937Z" fill="#333333"/>
<path d="M239.476 175.489C231.734 171.498 218.415 171.305 213.338 179.708C210.778 183.954 207.876 191.112 209.007 196.13C209.954 200.314 214.68 203.323 217.924 205.718C222.326 208.973 226.482 211.762 232.023 210.139C235.829 209.025 242.992 207.008 245.5 203.718C248.253 200.113 248.735 189.446 247.937 185.252C247.008 180.375 243.58 177.822 239.467 175.498L239.476 175.489ZM237.845 178.287C240.774 179.937 242.615 181.796 243.685 184.261C243.667 184.261 243.65 184.261 243.632 184.261C240.572 184.893 237.573 185.84 234.548 186.612C233.356 186.91 231.927 186.981 230.761 187.428C228.849 186.191 226.745 185.244 224.868 183.928C222.729 182.428 220.642 180.858 218.512 179.349C223.79 175.243 232.006 175.287 237.845 178.296V178.287ZM212.076 194.63C211.611 191.612 213.759 185.831 215.127 183.305C215.46 182.7 215.837 182.147 216.241 181.621C216.302 181.682 216.346 181.752 216.425 181.814C218.713 183.428 220.949 185.112 223.238 186.726C224.956 187.937 226.876 188.832 228.656 189.919C228.051 191.981 227.885 194.709 227.516 196.727C226.999 199.578 226.657 202.56 225.78 205.332C225.658 205.709 225.71 206.025 225.815 206.306C223.974 205.771 222.221 204.85 220.449 203.587C217.766 201.674 212.637 198.306 212.076 194.639V194.63ZM243.203 200.85C241.642 203.323 235.846 205.543 232.997 206.297C231.418 206.718 229.963 206.85 228.569 206.771C228.7 206.613 228.814 206.42 228.893 206.183C230.296 201.727 231.234 196.455 231.822 191.823C232.032 190.13 231.611 190.788 233.014 190.27C233.987 189.911 235.197 189.788 236.206 189.525C238.959 188.805 241.695 187.963 244.483 187.384C244.509 187.384 244.527 187.358 244.553 187.349C244.702 188.235 244.816 189.165 244.851 190.2C244.947 192.858 244.702 198.464 243.185 200.858L243.203 200.85Z" fill="#333333"/>
<path d="M161.677 143.014C161.221 140.461 160.773 137.9 160.318 135.347C159.756 132.172 158.564 127.768 163.299 127.961C165.377 128.049 165.377 124.812 163.299 124.724C152.681 124.277 157.485 137.83 158.555 143.874C158.915 145.918 162.036 145.058 161.677 143.014Z" fill="#333333"/>
<path d="M169.34 127.549C171.418 127.549 171.427 124.312 169.34 124.312C167.253 124.312 167.253 127.549 169.34 127.549Z" fill="#333333"/>
<path d="M248.104 149.348C238.319 150.699 229.419 151.628 219.52 150.076C209.401 148.488 199.327 145.584 189.042 145.312C182.904 145.146 176.661 145.69 170.576 146.418C167.691 146.76 163.044 146.532 160.87 148.646C158.301 151.146 159.634 154.857 160.011 157.936C160.791 164.418 161.212 170.936 161.922 177.428C163.307 190.235 166.245 202.823 168.568 215.482C168.717 216.315 169.331 216.648 169.971 216.631C170.024 216.631 170.068 216.666 170.129 216.675C196.539 217.92 223.185 217.824 249.603 217.008C250.261 216.99 251.032 216.526 251.164 215.824C254.531 197.156 256.302 177.814 258.257 158.918C259.239 149.453 257.652 148.041 248.113 149.356L248.104 149.348ZM255.013 158.909C254.145 167.269 252.9 175.594 251.927 183.945C251.182 190.34 250.559 196.744 249.796 203.139C249.603 204.788 249.147 213.236 248.121 213.789C246.973 214.411 243.597 213.78 242.308 213.771C218.652 213.613 195.118 214.525 171.462 213.482C168.56 197.727 165.587 182.217 164.079 166.234C163.79 163.181 162.273 158.225 162.895 155.269C164.184 149.137 168.384 149.865 173.145 149.374C179.756 148.69 186.517 148.19 193.145 148.839C204.614 149.97 215.75 153.479 227.262 154.243C232.251 154.576 237.188 154.383 242.124 153.62C244.702 153.216 247.473 152.348 250.068 152.339C255.206 152.313 255.452 154.558 254.996 158.918L255.013 158.909Z" fill="#333333"/>
<path d="M43.5699 51.1774C39.0894 66.713 31.4962 84.9769 38.3704 100.741C41.3779 107.636 42.1232 104.864 37.6339 109.855C35.9066 111.776 32.9605 113.153 30.9088 114.61C25.6479 118.338 20.0977 121.987 15.398 126.522C4.94635 136.61 1.32512 149.725 2.86831 164.199C5.27954 186.849 9.8565 210.157 14.1529 232.482C14.3808 233.684 15.5996 234.518 16.7044 234.535C47.0158 235.018 77.5464 237.579 107.814 234.535C108.919 234.421 110.129 233.754 110.365 232.482C114.662 210.148 119.239 186.832 121.65 164.199C123.307 148.672 118.739 134.873 107.156 124.794C102.123 120.408 96.5644 116.697 91.1633 112.855C90.0585 112.066 82.7283 107.943 82.6494 106.592C82.6143 106.057 86.6828 101.232 87.1738 100.1C93.8989 84.6084 85.4552 66.3007 80.9484 51.0546" fill="#9F6B24"/>
<path d="M63.1053 203.674C86.2234 203.674 104.964 190.639 104.964 174.559C104.964 158.479 86.2234 145.444 63.1053 145.444C39.9873 145.444 21.2463 158.479 21.2463 174.559C21.2463 190.639 39.9873 203.674 63.1053 203.674Z" fill="white"/>
<path d="M79.0194 48.6597C79.6419 48.6246 80.2031 48.5808 80.5889 48.5106C82.9387 48.0808 82.2899 46.9316 82.3863 46.3263C82.6318 44.7034 82.6757 43.0806 82.6669 41.4665C82.6669 40.8261 83.9471 39.1506 81.7463 38.6067C80.3872 38.2734 76.8098 38.3348 75.1526 38.2997C70.7773 38.2032 66.3582 38.1242 61.9654 38.133C57.0552 38.1769 47.6207 37.9049 43.3244 38.5804C40.5273 39.019 41.2638 39.8436 41.22 40.5717C41.1148 42.177 41.1236 43.7736 41.2463 45.3789C41.2989 46.0982 40.2993 47.6071 42.1757 48.2474C42.7632 48.4492 43.7628 48.5808 44.9377 48.6773" fill="#E1BA65"/>
<path d="M80.7905 39.6331C81.492 39.519 82.1057 39.3523 82.5441 39.0892C85.1746 37.5189 84.4468 33.3521 84.552 31.1415C84.8326 25.2378 84.8677 19.3253 84.8589 13.4216C84.8589 11.0794 86.2881 4.99141 83.8331 3.01766C82.3162 1.79831 78.3179 2.02639 76.4678 1.89481C71.5752 1.55269 66.6388 1.25443 61.7286 1.2983C56.2398 1.44742 45.7005 0.464931 40.8956 2.92993C37.7741 4.52649 38.5983 7.54414 38.5457 10.1846C38.423 16.0181 38.4405 21.8692 38.572 27.7028C38.6334 30.3345 37.5111 35.8259 39.6067 38.1681C40.2643 38.905 41.3778 39.3787 42.693 39.7383" fill="#76502F"/>
<path d="M110.103 125.004C104.798 120.627 98.9584 116.925 93.2679 113.083C92.1017 112.302 84.3945 108.179 84.3068 106.828C84.2718 106.293 88.5506 101.477 89.0679 100.354C96.1526 84.8974 87.2617 66.616 82.5094 51.4049C83.2284 51.247 83.8684 51.0277 84.3156 50.6768C87.025 48.5715 86.2797 42.9923 86.3849 40.0361C86.6742 32.1323 86.7181 24.2197 86.7093 16.3159C86.7093 13.1842 88.1824 5.02601 85.6484 2.38556C84.0789 0.753921 79.9491 1.06095 78.0464 0.885505C72.996 0.420576 67.9017 0.0345965 62.8337 0.08723C57.1695 0.288992 46.2883 -1.02685 41.3255 2.26275C38.0989 4.40318 38.9494 8.43842 38.8968 11.9649C38.774 19.7809 38.7828 27.597 38.9231 35.4131C38.9844 38.9308 37.827 46.2819 39.9928 49.4136C40.6679 50.3961 41.8253 51.0365 43.1756 51.5102C38.4671 67.0108 30.4706 85.2483 37.7043 100.977C40.8696 107.863 41.6587 105.091 36.9239 110.074C35.1089 111.986 32.005 113.363 29.8481 114.82C24.3066 118.539 18.467 122.179 13.5306 126.706C2.54414 136.794 -1.26122 149.882 0.360877 164.339C2.90363 186.945 7.71733 210.209 12.2329 232.499C12.4784 233.701 13.7586 234.526 14.9247 234.543C46.8231 235.026 78.9495 237.579 110.804 234.543C111.97 234.429 113.233 233.763 113.496 232.499C118.011 210.209 122.834 186.936 125.368 164.339C127.113 148.838 122.299 135.066 110.111 125.004H110.103ZM46.4987 46.1767C45.7534 45.9047 45.3501 45.8433 45.1397 45.8609C45.0871 45.7117 44.9906 45.5012 44.8328 45.2293C44.5084 44.6503 44.3768 43.6766 44.333 42.5888C51.1283 42.9046 57.7833 42.0098 64.5786 42.0011C69.9885 42.0011 75.3108 42.2818 80.7207 42.2028C80.7119 42.4046 80.7207 42.6063 80.7031 42.8081C80.6505 43.8081 80.6856 44.8696 80.519 45.8696C80.3524 45.8433 80.2034 45.817 79.9666 45.817C75.5826 45.7819 71.1284 46.203 66.7355 46.3433C61.9832 46.4925 57.2484 46.6416 52.4961 46.4837C50.7688 46.4223 48.1559 46.7995 46.4987 46.1854V46.1767ZM62.8337 5.67516C66.9021 5.6313 70.9793 5.91201 75.0302 6.22781C76.5909 6.35062 79.0986 7.12258 80.5892 6.71905C80.7031 6.72783 80.8171 6.74537 80.9311 6.76292C80.6593 11.6403 81.1503 16.737 81.124 21.588C81.0977 26.597 81.0451 31.6147 80.9048 36.6324C75.4335 36.7202 70.0499 36.4219 64.5786 36.4307C57.8359 36.4395 51.2335 37.3079 44.4996 37.0184C44.5084 36.7465 44.5171 36.4833 44.5171 36.2728C44.4382 32.3691 44.4119 28.4655 44.4031 24.553C44.3944 19.0265 43.5263 12.5087 44.5785 7.0524C46.2269 6.54361 48.1296 6.55238 49.8306 6.38571C54.1533 5.97341 58.5023 5.82428 62.8337 5.67516ZM113.724 197.463C112.724 203.726 111.874 210.025 110.839 216.279C109.48 224.525 110.059 227.508 102.089 229.701C91.3126 232.666 77.0732 230.21 65.9552 230.148C53.671 230.078 41.457 229.148 29.1817 229.017C20.3347 228.92 18.6249 229.675 15.6875 221.069C13.7235 215.332 13.6533 208.191 12.7239 202.2C9.16407 179.111 -2.83072 150.479 16.5205 131.513C22.6144 125.539 30.5407 121.179 37.5552 116.399C39.7736 114.89 46.2795 111.767 47.1563 108.767C47.4369 107.811 47.2878 107.1 47.4369 106.188C46.8144 104.556 45.8323 103.135 44.4908 101.907C41.8341 97.6084 40.5013 92.9328 40.4838 87.88C40.0366 75.9672 45.2799 63.8264 48.7083 52.4664C52.8994 52.6594 57.415 52.1769 59.8526 52.133C64.8592 52.0541 69.8833 51.8435 74.8899 51.633C75.3634 51.6155 76.0297 51.633 76.7663 51.6593C80.1069 62.8352 85.5958 74.5198 85.9553 86.2571C86.306 90.7397 85.4905 95.0732 83.5002 99.2488C81.8255 101.328 80.1771 103.416 78.555 105.53C78.4585 106.433 77.9412 107.1 78.2481 108.082C79.1863 111.056 83.5616 113.205 85.8763 114.837C92.9347 119.82 100.773 124.066 107.253 129.838C127.981 148.312 117.45 174.146 113.724 197.481V197.463Z" fill="#333333"/>
<path d="M65.5956 143.356C46.183 143.602 19.4314 149.988 18.0636 173.603C16.6782 197.428 41.606 205.543 61.229 205.876C78.9406 206.174 108.06 200.814 107.779 178.033C107.516 155.936 84.7188 144.453 65.5956 143.356ZM61.229 200.297C45.7884 200.086 23.5963 194.7 23.5086 175.436C23.4121 154.014 49.094 149.137 65.5956 148.927C81.2817 149.83 98.9232 157.769 101.685 175.077C105 195.77 76.2927 200.499 61.2203 200.297H61.229Z" fill="#333333"/>
<path d="M36.5116 130.645C39.5103 128.707 36.722 123.873 33.697 125.829C24.2713 131.926 14.6 138.812 11.9345 150.392C11.1279 153.883 16.5027 155.374 17.3094 151.874C19.6417 141.751 28.3046 135.952 36.5116 130.645Z" fill="#333333"/>
<path d="M41.0273 126.224C44.6134 126.224 44.6222 120.645 41.0273 120.645C37.4323 120.645 37.4323 126.224 41.0273 126.224Z" fill="#333333"/>
<path d="M42.8335 179.866L44.745 172.726C44.8239 172.436 44.8589 172.138 44.8589 171.857C44.8589 171.734 44.8414 171.55 44.8151 171.287C44.78 171.024 44.6485 170.734 44.4205 170.401C44.3592 170.313 44.3241 170.217 44.3241 170.12C44.3241 170.094 44.3241 170.041 44.3504 169.962C44.3679 169.884 44.4293 169.805 44.5345 169.717C44.6222 169.664 44.7187 169.638 44.8151 169.638C44.8414 169.638 44.8852 169.638 44.9642 169.655C45.0431 169.664 45.122 169.726 45.2009 169.84C45.5165 170.296 45.7094 170.796 45.7884 171.34C45.8147 171.515 45.8234 171.691 45.8234 171.866C45.8234 172.234 45.7708 172.603 45.6744 172.98C45.5867 173.287 45.4464 173.822 45.236 174.594C45.0343 175.357 44.8151 176.173 44.5871 177.042C44.3592 177.91 44.1575 178.656 43.9821 179.279L43.7454 180.173C43.7454 180.173 43.8944 180.244 44.1663 180.34C44.5082 180.463 44.9291 180.542 45.4376 180.568C45.5253 180.568 45.6218 180.568 45.7094 180.568C46.104 180.568 46.5337 180.515 46.9984 180.41C47.4631 180.305 47.9015 180.112 48.3048 179.822C48.3048 179.77 48.3223 179.682 48.3574 179.568C48.7432 178.042 49.1466 176.515 49.5587 174.989C49.7691 174.217 49.9708 173.454 50.1812 172.699C50.2601 172.41 50.3039 172.12 50.3039 171.84C50.3039 171.717 50.2864 171.524 50.2601 171.261C50.225 170.998 50.0935 170.708 49.8655 170.375C49.8042 170.287 49.7691 170.191 49.7691 170.094C49.7691 170.068 49.7691 170.015 49.7866 169.936C49.8042 169.857 49.8655 169.778 49.9795 169.691C50.0672 169.638 50.1549 169.612 50.2513 169.612C50.2776 169.612 50.3302 169.612 50.4004 169.629C50.4705 169.638 50.5582 169.699 50.6459 169.805C50.9616 170.269 51.1545 170.769 51.2334 171.313C51.2509 171.48 51.2597 171.655 51.2597 171.822C51.2597 172.191 51.1983 172.62 51.0755 173.103C51.0755 173.103 51.0755 173.068 51.0755 173.033C50.9879 173.357 50.8125 174.024 50.5495 175.024C50.2864 176.024 50.0234 177.007 49.7691 177.98C49.5148 178.954 49.3482 179.559 49.2868 179.796C49.2605 179.884 49.2518 179.954 49.2518 180.024C49.2518 180.147 49.2868 180.27 49.3658 180.384C49.4447 180.498 49.5937 180.559 49.8217 180.559C50.0847 180.559 50.3478 180.463 50.5933 180.261C50.8388 180.059 51.0054 179.822 51.0843 179.551C51.1194 179.428 51.1983 179.331 51.3035 179.252C51.3824 179.217 51.4613 179.191 51.5402 179.191C51.5753 179.191 51.6192 179.191 51.6718 179.208C51.8033 179.252 51.8997 179.322 51.9699 179.428C52.0137 179.507 52.04 179.586 52.04 179.673C52.04 179.717 52.04 179.752 52.0225 179.796C51.8822 180.287 51.6016 180.7 51.1895 181.033C50.7774 181.366 50.3215 181.533 49.8305 181.533C49.5148 181.533 49.2255 181.454 48.9712 181.287C48.7169 181.13 48.5591 180.972 48.4977 180.831C48.1119 181.077 47.6209 181.252 47.0422 181.375C46.5775 181.48 46.1303 181.524 45.7007 181.524C45.5955 181.524 45.4902 181.524 45.3938 181.524C44.9905 181.507 44.5521 181.437 44.0786 181.305C43.6051 181.173 43.2719 181.015 43.079 180.814C42.6494 181.077 42.1496 181.261 41.5797 181.384C41.1237 181.48 40.6941 181.524 40.2644 181.524C40.1592 181.524 40.0452 181.524 39.94 181.524C39.335 181.489 38.8177 181.393 38.3793 181.235C38.09 181.13 37.8357 180.98 37.6252 180.805C37.4236 180.63 37.3184 180.428 37.3184 180.182C37.3184 180.129 37.3184 180.068 37.3447 179.998L39.2912 172.699C39.3701 172.41 39.4139 172.112 39.4139 171.831C39.4139 171.708 39.3964 171.524 39.3701 171.261C39.335 170.998 39.2035 170.699 38.9755 170.366C38.9229 170.278 38.8879 170.182 38.8879 170.094C38.8879 170.068 38.8879 170.024 38.9054 169.945C38.9229 169.866 38.9843 169.787 39.0983 169.699C39.186 169.647 39.2737 169.62 39.3701 169.62C39.3964 169.62 39.4402 169.62 39.5192 169.638C39.5981 169.647 39.677 169.708 39.7559 169.813C40.0803 170.278 40.2732 170.778 40.3434 171.322C40.3697 171.498 40.3784 171.673 40.3784 171.848C40.3784 172.217 40.3258 172.585 40.2294 172.963C40.1592 173.226 40.0277 173.699 39.8436 174.375C39.6419 175.138 39.4227 175.971 39.1772 176.866C38.9405 177.77 38.73 178.542 38.5547 179.191L38.2916 180.138C38.2916 180.138 38.4407 180.226 38.7125 180.322C39.0544 180.445 39.4753 180.524 39.9839 180.551C40.0715 180.551 40.168 180.551 40.2557 180.551C40.6415 180.551 41.0623 180.498 41.5183 180.401C41.9742 180.305 42.4039 180.112 42.816 179.831L42.8335 179.866Z" fill="#231815" stroke="#231815" stroke-width="1.33336" stroke-miterlimit="10"/>
<path d="M56.9151 178.191C56.9677 177.989 56.994 177.805 56.994 177.621C56.994 177.436 56.9589 177.243 56.8888 176.998C56.8186 176.761 56.652 176.55 56.389 176.357C56.126 176.164 55.7928 176.068 55.3807 176.068C54.7318 176.068 54.1181 176.296 53.5394 176.761C52.9607 177.226 52.5749 177.787 52.382 178.436L52.0137 179.822C51.9786 179.954 51.8997 180.05 51.7945 180.112C51.7244 180.156 51.6367 180.182 51.549 180.182C51.5139 180.182 51.4701 180.182 51.4262 180.165C51.2947 180.129 51.1983 180.05 51.1194 179.945C51.0843 179.866 51.058 179.787 51.058 179.7C51.058 179.665 51.058 179.621 51.0755 179.586L52.8993 172.726C52.9782 172.436 53.022 172.138 53.022 171.857C53.022 171.734 53.0045 171.55 52.9782 171.287C52.9519 171.024 52.8116 170.734 52.5749 170.401C52.5223 170.305 52.496 170.217 52.496 170.12C52.496 170.094 52.496 170.05 52.5135 169.971C52.5223 169.892 52.5836 169.813 52.6976 169.726C52.7853 169.673 52.873 169.647 52.9694 169.647C52.9957 169.647 53.0483 169.647 53.1273 169.664C53.2062 169.682 53.2851 169.734 53.364 169.848C53.6884 170.322 53.8901 170.822 53.9602 171.366C53.9778 171.524 53.9865 171.682 53.9865 171.84C53.9865 172.226 53.9339 172.603 53.8375 172.971L53.0834 175.822C53.0834 175.822 53.3465 175.682 53.8462 175.454C54.346 175.226 54.8546 175.103 55.3894 175.103C55.9243 175.103 56.3715 175.226 56.7836 175.471C57.2044 175.717 57.4412 175.892 57.4938 176.015L58.3706 172.726C58.4407 172.436 58.4846 172.138 58.4846 171.857C58.4846 171.734 58.467 171.55 58.4407 171.296C58.4144 171.041 58.2829 170.743 58.0549 170.401C58.0023 170.313 57.9673 170.217 57.9673 170.12C57.9673 170.094 57.9673 170.041 57.9848 169.962C57.9936 169.883 58.0549 169.804 58.1689 169.717C58.2566 169.664 58.3443 169.638 58.4407 169.638C58.467 169.638 58.5197 169.638 58.5898 169.655C58.6599 169.664 58.7476 169.726 58.8353 169.831C59.1597 170.296 59.3526 170.805 59.4228 171.357C59.4403 171.524 59.4491 171.682 59.4491 171.848C59.4491 172.217 59.3965 172.594 59.3 172.971L57.8708 178.375L57.485 179.814C57.4587 179.901 57.4499 179.972 57.4499 180.042C57.4499 180.165 57.485 180.287 57.5639 180.401C57.6428 180.515 57.7919 180.577 58.0199 180.577C58.2917 180.577 58.546 180.48 58.7915 180.279C59.037 180.077 59.1948 179.84 59.2825 179.568C59.3176 179.436 59.3965 179.331 59.5105 179.27C59.5806 179.235 59.6595 179.208 59.7472 179.208C59.7823 179.208 59.8261 179.208 59.8699 179.226C60.0015 179.27 60.0979 179.34 60.1768 179.445C60.2119 179.524 60.2382 179.603 60.2382 179.691C60.2382 179.735 60.2382 179.77 60.2207 179.814C60.0804 180.305 59.7998 180.717 59.3877 181.051C58.9756 181.384 58.5197 181.551 58.0286 181.551C57.485 181.551 57.0729 181.349 56.7923 180.954C56.5994 180.691 56.503 180.393 56.503 180.059C56.503 179.91 56.5205 179.752 56.5644 179.586L56.9414 178.191H56.9151Z" fill="#231815" stroke="#231815" stroke-width="1.33336" stroke-miterlimit="10"/>
<path d="M62.0269 172.971C61.8165 173.743 61.6148 174.515 61.4044 175.296C61.0011 176.814 60.6065 178.322 60.2032 179.831C60.1769 179.919 60.1681 179.989 60.1681 180.059C60.1681 180.182 60.2032 180.305 60.2821 180.419C60.361 180.533 60.5101 180.594 60.738 180.594C61.0098 180.594 61.2641 180.498 61.5096 180.296C61.7551 180.094 61.9217 179.858 62.0006 179.586C62.0357 179.454 62.1146 179.349 62.2286 179.287C62.2988 179.252 62.3777 179.226 62.4654 179.226C62.5004 179.226 62.5443 179.226 62.5881 179.243C62.7196 179.287 62.8249 179.357 62.8862 179.472C62.9213 179.542 62.9476 179.621 62.9476 179.708C62.9476 179.752 62.9476 179.787 62.9301 179.831C62.7985 180.322 62.518 180.735 62.0971 181.068C61.6762 181.401 61.2291 181.568 60.7293 181.568C60.1856 181.568 59.7735 181.366 59.493 180.972C59.3001 180.708 59.2036 180.41 59.2036 180.077C59.2036 179.928 59.2211 179.77 59.265 179.603L61.0888 172.743C61.1677 172.454 61.2115 172.173 61.2115 171.884C61.2115 171.761 61.194 171.568 61.1677 171.305C61.1414 171.041 61.0098 170.743 60.7731 170.41C60.7205 170.322 60.6854 170.226 60.6854 170.129C60.6854 170.103 60.6854 170.05 60.703 169.971C60.7205 169.892 60.7819 169.813 60.8871 169.726C60.9835 169.673 61.08 169.647 61.1677 169.647C61.194 169.647 61.2378 169.647 61.3167 169.664C61.3956 169.682 61.4746 169.734 61.5535 169.848C61.8779 170.313 62.0708 170.813 62.1409 171.366C62.1585 171.533 62.1672 171.708 62.1672 171.875C62.1672 172.243 62.1234 172.612 62.0269 172.98V172.971Z" fill="#231815" stroke="#231815" stroke-width="1.33336" stroke-miterlimit="10"/>
<path d="M64.3154 174.7C64.3154 174.7 64.3242 174.7 64.333 174.7C64.333 174.7 64.3505 174.7 64.3593 174.7C64.6135 174.866 64.9204 174.971 65.2887 175.024C65.6569 175.077 65.9901 175.103 66.3058 175.103C66.9196 175.103 67.4456 175.261 67.8753 175.577C68.3049 175.893 68.5943 176.296 68.7521 176.805C68.831 177.068 68.8748 177.34 68.8748 177.621C68.8748 177.884 68.8398 178.165 68.7609 178.445L68.3926 179.823C68.3663 179.91 68.3575 179.998 68.3575 180.068C68.3575 180.191 68.3926 180.314 68.4715 180.428C68.5504 180.542 68.6995 180.594 68.9187 180.594C69.1905 180.594 69.4448 180.498 69.6903 180.296C69.9358 180.094 70.1024 179.858 70.1901 179.586C70.2251 179.463 70.3041 179.366 70.4093 179.287C70.4882 179.252 70.5671 179.226 70.6548 179.226C70.6898 179.226 70.7337 179.226 70.7775 179.244C70.909 179.287 71.0055 179.358 71.0669 179.463C71.1107 179.533 71.137 179.621 71.137 179.708C71.137 179.752 71.137 179.787 71.1195 179.831C70.9792 180.323 70.6986 180.735 70.2865 181.068C69.8744 181.402 69.4185 181.568 68.9187 181.568C68.5767 181.568 68.2786 181.48 68.0331 181.314C67.7876 181.138 67.6385 180.998 67.5947 180.875C67.1738 181.138 66.639 181.331 65.9989 181.454C65.578 181.533 65.1659 181.577 64.7538 181.577C64.5346 181.577 64.3242 181.568 64.1225 181.542C63.4561 181.48 62.8687 181.296 62.3514 180.989C62.0269 180.77 61.8604 180.507 61.8604 180.2V180.147C61.8691 180.094 61.8867 180.024 61.9042 179.945C61.9217 179.866 61.9393 179.796 61.9568 179.717C61.9656 179.682 61.9743 179.638 61.9831 179.603C62.0182 179.472 62.0971 179.366 62.2023 179.305C62.2812 179.261 62.3689 179.235 62.4566 179.235C62.4917 179.235 62.5267 179.235 62.5706 179.252C62.7021 179.279 62.7985 179.349 62.8774 179.463C62.9125 179.542 62.9388 179.621 62.9388 179.708C62.9388 179.744 62.9388 179.787 62.9388 179.823L62.8599 180.156L62.895 180.173C63.044 180.279 63.2545 180.366 63.5351 180.445C63.9384 180.551 64.3593 180.594 64.7801 180.594C65.201 180.594 65.6131 180.551 66.0427 180.454C66.5425 180.34 66.9897 180.138 67.393 179.858L67.8402 178.208C67.8928 177.998 67.9191 177.805 67.9191 177.621C67.9191 177.436 67.884 177.243 67.8139 177.007C67.7438 176.77 67.5772 176.559 67.3229 176.366C67.0598 176.173 66.7267 176.077 66.3146 176.077C65.8937 176.077 65.4728 176.033 65.0432 175.971C64.6135 175.91 64.2014 175.752 63.8244 175.507C63.5 175.278 63.3422 175.015 63.3422 174.708V174.638C63.3422 174.638 63.3597 174.577 63.3685 174.542L63.8507 172.717C63.9296 172.428 63.9735 172.129 63.9735 171.849C63.9735 171.726 63.9559 171.542 63.9296 171.278C63.8946 171.015 63.763 170.717 63.5351 170.384C63.4825 170.296 63.4561 170.199 63.4561 170.112C63.4561 170.085 63.4561 170.041 63.4737 169.963C63.4912 169.884 63.5438 169.805 63.6578 169.717C63.7455 169.664 63.8332 169.638 63.9296 169.638C63.9559 169.638 64.0085 169.638 64.0874 169.655C64.1664 169.673 64.2453 169.726 64.333 169.84C64.6749 170.331 64.8503 170.691 64.8766 170.927C65.0432 170.699 65.4202 170.427 65.9901 170.112C66.5688 169.796 67.1651 169.629 67.7876 169.629C68.4101 169.629 68.9275 169.787 69.3571 170.103C69.7867 170.419 70.0761 170.822 70.2339 171.322C70.3128 171.585 70.3567 171.857 70.3567 172.138C70.3567 172.401 70.3216 172.682 70.2427 172.971C70.2164 173.103 70.1375 173.208 70.0147 173.27C69.9446 173.314 69.8656 173.331 69.7867 173.331C69.7429 173.331 69.7078 173.331 69.6552 173.314C69.5237 173.278 69.4272 173.199 69.3659 173.094C69.322 173.024 69.2957 172.945 69.2957 172.857C69.2957 172.813 69.2957 172.77 69.3133 172.717C69.3659 172.524 69.3922 172.34 69.3922 172.156C69.3922 171.971 69.3571 171.77 69.2869 171.533C69.2168 171.296 69.0502 171.077 68.7959 170.884C68.5417 170.691 68.1997 170.594 67.7876 170.594C67.13 170.594 66.5162 170.831 65.9375 171.296C65.3588 171.761 64.9818 172.322 64.7889 172.98L64.333 174.7H64.3154Z" fill="#231815"/>
<path d="M64.333 174.7C64.3242 174.7 64.3154 174.7 64.3154 174.7H64.333ZM64.333 174.7C64.333 174.7 64.3505 174.7 64.3593 174.7C64.6135 174.866 64.9204 174.971 65.2887 175.024C65.6569 175.077 65.9901 175.103 66.3058 175.103C66.9196 175.103 67.4456 175.261 67.8753 175.577C68.3049 175.893 68.5943 176.296 68.7521 176.805C68.831 177.068 68.8748 177.34 68.8748 177.621C68.8748 177.884 68.8398 178.165 68.7609 178.445L68.3926 179.823C68.3663 179.91 68.3575 179.998 68.3575 180.068C68.3575 180.191 68.3926 180.314 68.4715 180.428C68.5504 180.542 68.6995 180.594 68.9187 180.594C69.1905 180.594 69.4448 180.498 69.6903 180.296C69.9358 180.094 70.1024 179.858 70.1901 179.586C70.2251 179.463 70.3041 179.366 70.4093 179.287C70.4882 179.252 70.5671 179.226 70.6548 179.226C70.6898 179.226 70.7337 179.226 70.7775 179.244C70.909 179.287 71.0055 179.358 71.0669 179.463C71.1107 179.533 71.137 179.621 71.137 179.708C71.137 179.752 71.137 179.787 71.1195 179.831C70.9792 180.323 70.6986 180.735 70.2865 181.068C69.8744 181.402 69.4185 181.568 68.9187 181.568C68.5767 181.568 68.2786 181.48 68.0331 181.314C67.7876 181.138 67.6385 180.998 67.5947 180.875C67.1738 181.138 66.639 181.331 65.9989 181.454C65.578 181.533 65.1659 181.577 64.7538 181.577C64.5346 181.577 64.3242 181.568 64.1225 181.542C63.4561 181.48 62.8687 181.296 62.3514 180.989C62.0269 180.77 61.8604 180.507 61.8604 180.2V180.147C61.8691 180.094 61.8867 180.024 61.9042 179.945C61.9217 179.866 61.9393 179.796 61.9568 179.717C61.9656 179.682 61.9743 179.638 61.9831 179.603C62.0182 179.472 62.0971 179.366 62.2023 179.305C62.2812 179.261 62.3689 179.235 62.4566 179.235C62.4917 179.235 62.5267 179.235 62.5706 179.252C62.7021 179.279 62.7985 179.349 62.8774 179.463C62.9125 179.542 62.9388 179.621 62.9388 179.708C62.9388 179.744 62.9388 179.787 62.9388 179.823L62.8599 180.156L62.895 180.173C63.044 180.279 63.2545 180.366 63.5351 180.445C63.9384 180.551 64.3593 180.594 64.7801 180.594C65.201 180.594 65.6131 180.551 66.0427 180.454C66.5425 180.34 66.9897 180.138 67.393 179.858L67.8402 178.208C67.8928 177.998 67.9191 177.805 67.9191 177.621C67.9191 177.436 67.884 177.243 67.8139 177.007C67.7438 176.77 67.5772 176.559 67.3229 176.366C67.0598 176.173 66.7267 176.077 66.3146 176.077C65.8937 176.077 65.4728 176.033 65.0432 175.972C64.6135 175.91 64.2014 175.752 63.8244 175.507C63.5 175.278 63.3422 175.015 63.3422 174.708V174.638C63.3422 174.638 63.3597 174.577 63.3685 174.542L63.8507 172.717C63.9296 172.428 63.9735 172.129 63.9735 171.849C63.9735 171.726 63.9559 171.542 63.9296 171.278C63.8946 171.015 63.763 170.717 63.5351 170.384C63.4825 170.296 63.4561 170.199 63.4561 170.112C63.4561 170.085 63.4561 170.041 63.4737 169.963C63.4912 169.884 63.5438 169.805 63.6578 169.717C63.7455 169.664 63.8332 169.638 63.9296 169.638C63.9559 169.638 64.0085 169.638 64.0874 169.655C64.1664 169.673 64.2453 169.726 64.333 169.84C64.6749 170.331 64.8503 170.691 64.8766 170.927C65.0432 170.699 65.4202 170.427 65.9901 170.112C66.5688 169.796 67.1651 169.629 67.7876 169.629C68.4101 169.629 68.9275 169.787 69.3571 170.103C69.7867 170.419 70.0761 170.822 70.2339 171.322C70.3128 171.585 70.3567 171.857 70.3567 172.138C70.3567 172.401 70.3216 172.682 70.2427 172.971C70.2164 173.103 70.1375 173.208 70.0147 173.27C69.9446 173.314 69.8656 173.331 69.7867 173.331C69.7429 173.331 69.7078 173.331 69.6552 173.314C69.5237 173.278 69.4272 173.199 69.3659 173.094C69.322 173.024 69.2957 172.945 69.2957 172.857C69.2957 172.813 69.2957 172.77 69.3133 172.717C69.3659 172.524 69.3922 172.34 69.3922 172.156C69.3922 171.971 69.3571 171.77 69.2869 171.533C69.2168 171.296 69.0502 171.077 68.7959 170.884C68.5417 170.691 68.1997 170.594 67.7876 170.594C67.13 170.594 66.5162 170.831 65.9375 171.296C65.3588 171.761 64.9818 172.322 64.7889 172.98L64.333 174.7Z" stroke="#231815" stroke-width="1.33336" stroke-miterlimit="10"/>
<path d="M70.1989 179.586L72.0226 172.726C72.1015 172.436 72.1454 172.138 72.1454 171.857C72.1454 171.734 72.1278 171.55 72.1015 171.287C72.0752 171.024 71.9349 170.734 71.6982 170.401C71.6456 170.305 71.6193 170.217 71.6193 170.12C71.6193 170.094 71.6193 170.05 71.6368 169.971C71.6456 169.892 71.707 169.813 71.821 169.726C71.9086 169.673 71.9963 169.647 72.0928 169.647C72.1191 169.647 72.1717 169.647 72.2506 169.664C72.3295 169.682 72.4084 169.734 72.4873 169.84C72.8118 170.305 73.0047 170.805 73.0836 171.348C73.1011 171.515 73.1099 171.673 73.1099 171.84C73.1099 172.217 73.0573 172.594 72.9608 172.971L72.2068 175.814C72.2068 175.814 72.4698 175.682 72.9696 175.454C73.4694 175.226 73.9779 175.112 74.504 175.112H74.6355C75.1002 175.085 75.5474 175.006 75.9858 174.866C76.3628 174.743 76.696 174.577 76.9766 174.384L77.415 172.726C77.4939 172.445 77.5378 172.164 77.5378 171.875C77.5378 171.752 77.5202 171.559 77.4939 171.296C77.4589 171.033 77.3273 170.734 77.0994 170.392C77.0468 170.305 77.0204 170.208 77.0204 170.12C77.0204 170.094 77.0205 170.05 77.038 169.971C77.0468 169.892 77.1081 169.813 77.2221 169.726C77.3098 169.673 77.3975 169.647 77.4939 169.647C77.5202 169.647 77.5728 169.647 77.6518 169.664C77.7307 169.682 77.8096 169.734 77.8885 169.84C78.2129 170.305 78.4058 170.805 78.476 171.348C78.5023 171.524 78.511 171.699 78.511 171.875C78.511 172.234 78.4584 172.603 78.362 172.98L77.8797 174.813C77.8359 174.928 77.7745 175.024 77.6781 175.085C77.2572 175.392 76.8012 175.629 76.3102 175.787C76.2576 175.805 76.2313 175.813 76.2313 175.822C76.2489 175.822 76.3015 175.814 76.3979 175.787C76.582 175.91 76.7662 176.235 76.9503 176.761C77.0468 177.024 77.0906 177.305 77.0906 177.603C77.0906 177.884 77.0468 178.164 76.9591 178.463L76.5645 179.858C76.5382 179.928 76.5294 179.998 76.5294 180.068C76.5294 180.156 76.5557 180.243 76.5996 180.349C76.6434 180.454 76.7399 180.524 76.8977 180.577C76.9678 180.594 77.038 180.603 77.1081 180.603C77.3273 180.603 77.5728 180.515 77.8359 180.34C78.0989 180.165 78.2743 179.919 78.3707 179.603C78.397 179.463 78.476 179.357 78.5987 179.296C78.6689 179.261 78.7478 179.235 78.8355 179.235C78.8705 179.235 78.9144 179.235 78.9582 179.252C79.0897 179.296 79.1949 179.366 79.2563 179.472C79.2914 179.542 79.3177 179.621 79.3177 179.708C79.3177 179.752 79.3177 179.796 79.3002 179.84C79.1686 180.322 78.8881 180.735 78.476 181.068C78.0639 181.401 77.6079 181.568 77.1081 181.568C76.5645 181.568 76.1436 181.366 75.8718 180.963C75.6789 180.7 75.5825 180.41 75.5825 180.077C75.5825 179.928 75.6088 179.761 75.6526 179.586L76.0472 178.2C76.0998 177.998 76.1349 177.805 76.1349 177.612C76.1349 177.445 76.0998 177.243 76.0297 177.007C75.9595 176.778 75.7929 176.568 75.5299 176.375C75.2668 176.182 74.9249 176.085 74.5215 176.085C73.8727 176.085 73.2589 176.314 72.6802 176.778C72.1015 177.243 71.7157 177.805 71.5228 178.454L71.1546 179.84C71.1195 179.972 71.0406 180.068 70.9354 180.129C70.8652 180.173 70.7776 180.2 70.6899 180.2C70.6548 180.2 70.611 180.2 70.5671 180.182C70.4356 180.147 70.3391 180.068 70.2602 179.963C70.2252 179.884 70.1989 179.805 70.1989 179.717C70.1989 179.682 70.1989 179.638 70.2164 179.603L70.1989 179.586Z" fill="#231815" stroke="#231815" stroke-width="1.33336" stroke-miterlimit="10"/>
<path d="M79.1949 180.165C79.1949 180.165 79.2124 180.165 79.2387 180.182C79.265 180.2 79.3264 180.226 79.4229 180.27C79.5193 180.314 79.6157 180.349 79.7034 180.384C79.7911 180.419 79.8525 180.437 79.87 180.437C80.2734 180.542 80.6855 180.586 81.1063 180.586C81.5272 180.586 81.9393 180.542 82.3689 180.445C82.8687 180.331 83.3159 180.13 83.7192 179.849L84.8679 175.507C84.8679 175.507 84.6136 175.621 84.1401 175.84C83.6666 176.059 83.1493 176.173 82.5794 176.173C81.9218 176.173 81.3869 176.007 80.966 175.682C80.5452 175.357 80.2558 174.928 80.1155 174.392C80.0542 174.156 80.0191 173.91 80.0191 173.647C80.0191 173.349 80.0629 173.033 80.1506 172.708C80.2295 172.419 80.2734 172.129 80.2734 171.849C80.2734 171.726 80.2558 171.541 80.2295 171.278C80.1944 171.015 80.0629 170.726 79.835 170.392C79.7823 170.305 79.7473 170.208 79.7473 170.112C79.7473 170.085 79.7473 170.033 79.7648 169.954C79.7736 169.875 79.835 169.796 79.9489 169.708C80.0454 169.655 80.1418 169.629 80.2295 169.629C80.2558 169.629 80.2997 169.629 80.3786 169.647C80.4575 169.655 80.5364 169.717 80.6241 169.831C80.931 170.287 81.1239 170.787 81.2028 171.331C81.2291 171.506 81.2379 171.682 81.2379 171.857C81.2379 172.226 81.1852 172.594 81.0888 172.971C81.0186 173.208 80.9836 173.436 80.9836 173.647C80.9836 173.805 81.0099 174.006 81.0713 174.243C81.1326 174.48 81.2817 174.7 81.536 174.901C81.7902 175.103 82.1322 175.208 82.5794 175.208C82.9213 175.208 83.2545 175.147 83.5702 175.024C83.8858 174.901 84.1664 174.743 84.4207 174.533C84.9994 174.042 85.4027 173.428 85.6131 172.682C85.6921 172.392 85.7359 172.103 85.7359 171.813C85.7359 171.699 85.7184 171.515 85.6921 171.27C85.6658 171.024 85.5255 170.717 85.2887 170.366C85.2361 170.278 85.2098 170.182 85.2098 170.094C85.2098 170.068 85.2098 170.024 85.2273 169.945C85.2449 169.866 85.2975 169.787 85.4115 169.699C85.4992 169.647 85.5868 169.62 85.6833 169.62C85.7096 169.62 85.7622 169.62 85.8411 169.638C85.92 169.655 85.9989 169.708 86.0866 169.822C86.5075 170.445 86.7092 171.12 86.7092 171.831C86.7092 172.199 86.6565 172.577 86.5426 172.954C86.3409 173.708 86.1392 174.471 85.9376 175.235C85.5342 176.752 85.1309 178.27 84.7276 179.796C84.7013 179.884 84.6925 179.972 84.6925 180.042C84.6925 180.165 84.7276 180.287 84.8065 180.401C84.8854 180.515 85.0344 180.568 85.2537 180.568C85.5255 180.568 85.7797 180.472 86.0252 180.27C86.2708 180.068 86.4373 179.831 86.525 179.559C86.5601 179.437 86.639 179.34 86.7442 179.261C86.8231 179.226 86.9021 179.2 86.9897 179.2C87.0248 179.2 87.0686 179.2 87.1125 179.217C87.244 179.261 87.3405 179.331 87.4018 179.437C87.4457 179.507 87.472 179.594 87.472 179.682C87.472 179.726 87.472 179.761 87.4544 179.805C87.3142 180.296 87.0336 180.708 86.6215 181.042C86.2094 181.375 85.7534 181.542 85.2537 181.542C84.9117 181.542 84.6136 181.454 84.3681 181.287C84.1226 181.112 83.9735 180.972 83.9297 180.849C83.5088 181.112 82.9739 181.305 82.3339 181.428C81.913 181.507 81.5009 181.551 81.0888 181.551C80.8696 181.551 80.6592 181.542 80.4575 181.516C79.7911 181.454 79.2036 181.27 78.6863 180.963C78.3619 180.744 78.1953 180.48 78.1953 180.173V180.121C78.2041 180.068 78.2216 179.998 78.2392 179.919C78.2567 179.84 78.2742 179.77 78.2918 179.691C78.3005 179.656 78.3093 179.612 78.3181 179.577C78.3531 179.445 78.4321 179.34 78.5373 179.279C78.6162 179.235 78.7039 179.208 78.7915 179.208C78.8266 179.208 78.8617 179.208 78.9055 179.226C79.037 179.252 79.1335 179.322 79.2124 179.437C79.2475 179.515 79.2738 179.594 79.2738 179.682C79.2738 179.717 79.2738 179.761 79.2738 179.796L79.1861 180.147L79.1949 180.165Z" fill="#231815" stroke="#231815" stroke-width="1.33336" stroke-miterlimit="10"/>
<path d="M187.578 31.8871C187.472 33.8696 188.884 35.5715 190.752 35.6943C192.619 35.8171 194.224 34.2995 194.338 32.3345C194.452 30.352 193.031 28.6501 191.164 28.5273C189.296 28.4133 187.692 29.9133 187.578 31.8871ZM174.759 77.8099C174.531 81.7661 177.372 85.1698 181.107 85.4066C184.833 85.6523 188.042 82.6434 188.279 78.6783C188.507 74.722 185.666 71.3184 181.931 71.0728C178.205 70.8359 174.995 73.8448 174.759 77.8011V77.8099ZM236.434 86.6084C236.32 88.5822 237.74 90.2928 239.608 90.4068C241.475 90.5296 243.08 89.0208 243.194 87.0471C243.308 85.0645 241.887 83.3627 240.02 83.2487C238.161 83.1259 236.548 84.6347 236.434 86.6172V86.6084Z" fill="white" stroke="#323333" stroke-width="4.00009" stroke-miterlimit="10"/>
</g>
<defs>
<clipPath id="clip0_336_442">
<rect width="268" height="236" fill="white"/>
</clipPath>
</defs>
</svg>
