<svg width="130" height="137" viewBox="0 0 130 137" fill="none" xmlns="http://www.w3.org/2000/svg">
<path d="M30.9109 130.217L26.2309 115.537H28.1709L30.5509 123.497C31.0709 125.217 31.4109 126.617 31.9709 128.337H32.0509C32.5909 126.617 32.9509 125.217 33.4709 123.497L35.8309 115.537H37.7109L33.0509 130.217H30.9109ZM41.9619 122.017L41.2419 124.257H45.6819L44.9819 122.017C44.4419 120.357 43.9819 118.757 43.5019 117.057H43.4219C42.9619 118.777 42.4819 120.357 41.9619 122.017ZM37.4819 130.217L42.4619 115.537H44.5219L49.5019 130.217H47.5419L46.1419 125.737H40.7819L39.3619 130.217H37.4819ZM51.5703 130.217V115.537H53.4903L58.8303 124.797L60.3903 127.817H60.4903C60.3903 126.337 60.2503 124.697 60.2503 123.177V115.537H62.0103V130.217H60.1103L54.7703 120.957L53.1903 117.937H53.1103C53.1903 119.417 53.3303 120.977 53.3303 122.517V130.217H51.5703ZM66.0039 130.217V115.537H67.8639V130.217H66.0039ZM71.8633 130.217V115.537H73.7233V128.637H80.1233V130.217H71.8633ZM82.7227 130.217V115.537H84.5827V128.637H90.9827V130.217H82.7227ZM96.1806 122.017L95.4606 124.257H99.9006L99.2006 122.017C98.6606 120.357 98.2006 118.757 97.7206 117.057H97.6406C97.1806 118.777 96.7006 120.357 96.1806 122.017ZM91.7006 130.217L96.6806 115.537H98.7406L103.721 130.217H101.761L100.361 125.737H95.0006L93.5806 130.217H91.7006Z" fill="black"/>
<g clip-path="url(#clip0_626_423)">
<mask id="mask0_626_423" style="mask-type:luminance" maskUnits="userSpaceOnUse" x="0" y="0" width="130" height="93">
<path d="M130 0.219971H0V92.22H130V0.219971Z" fill="white"/>
</mask>
<g mask="url(#mask0_626_423)">
<mask id="mask1_626_423" style="mask-type:luminance" maskUnits="userSpaceOnUse" x="1" y="-1" width="128" height="94">
<path d="M129 -0.780029H1V92.4367H129V-0.780029Z" fill="white"/>
</mask>
<g mask="url(#mask1_626_423)">
<path d="M56.2905 43.752C55.4552 42.2926 53.9114 41.4667 53.8176 40.0966C53.6158 37.2248 51.781 37.2952 49.7868 37.4359C48.3884 37.5345 46.976 37.6236 45.5964 37.8536C36.6433 39.3458 28.7506 42.8745 22.5613 49.7723C21.1958 51.2927 21.5524 51.8792 23.1807 52.7286C30.3226 56.4637 37.9055 57.2614 45.7184 56.0836C50.2466 55.4032 55.2394 55.3094 57.4776 50.0257C57.8577 49.1342 59.2279 48.4678 58.632 47.4167C58.0314 46.3562 56.6659 46.7223 55.596 46.7176C54.0006 46.7082 52.5459 47.3229 51.11 47.9423C49.6038 48.5945 48.1397 49.3312 46.6241 49.9553C42.537 51.6446 38.5296 51.2504 34.6115 49.3688C33.7387 48.9512 32.8143 48.4538 33.3727 47.2619C33.8466 46.2577 34.7898 46.3422 35.5969 46.7692C39.6699 48.9136 43.6115 48.0268 47.5485 46.3609C50.2795 45.2066 53.0245 44.0757 56.2811 43.752H56.2905ZM58.5475 53.4465C58.1346 54.2395 57.8202 54.6947 57.6419 55.1968C53.7049 66.2897 54.1273 77.0729 59.8426 87.537C60.8562 89.3905 61.6023 89.3999 63.0194 87.9452C70.6446 80.1276 73.934 70.6912 73.8167 59.8986C73.7932 57.8152 73.0565 56.1634 71.6112 54.6947C69.8985 52.9538 67.5101 53.301 66.5481 55.5769C65.7316 57.5101 65.6143 59.5138 66.1962 61.5362C66.8015 63.6338 67.4772 65.7125 68.0544 67.8194C68.7113 70.2266 68.7207 72.6104 67.5101 74.8768C67.1065 75.6323 66.4965 76.1344 65.6002 75.7074C64.7228 75.2944 64.5914 74.5343 65.0231 73.7366C66.4073 71.1698 65.6519 68.6875 64.6524 66.2944C63.4933 63.5165 62.5361 60.7432 63.0053 57.6791C63.1226 56.9189 63.0147 56.5435 62.1044 56.5294C60.3306 56.4966 59.2702 55.422 58.5522 53.4512L58.5475 53.4465ZM59.4438 34.1841C58.2988 33.1658 57.3322 32.3916 56.4641 31.5235C51.767 26.8311 49.0172 21.1814 48.243 14.5791C48.1256 13.6031 47.9802 12.5473 49.3175 12.4441C50.5235 12.3502 50.8566 13.284 50.9083 14.3211C50.9223 14.5557 50.9458 14.7903 50.9833 15.0202C52.1424 21.8665 55.4177 27.4176 60.9078 31.73C62.5408 33.011 63.2024 32.6215 63.9016 30.9322C64.4365 29.6418 64.9668 28.1872 65.9428 27.2862C67.3974 25.9395 67.2989 24.635 66.6279 23.1287C62.6112 14.1287 56.5814 6.99146 47.5109 2.73543C44.9911 1.55294 44.7424 1.74063 44.3482 4.54201C42.9874 14.2272 45.6011 22.9645 50.8332 31.0167C53.7941 35.5684 53.8645 35.5261 59.4438 34.1841ZM73.7134 29.8905C76.116 25.8926 78.9783 22.622 82.5352 19.9989C83.2907 19.4405 84.1447 18.3706 85.116 19.6C86.1202 20.8717 85.0081 21.5662 84.1353 22.2278C81.0383 24.5552 78.4997 27.3848 76.5054 30.7023C75.093 33.0579 75.1446 33.1658 77.9179 33.7055C80.4048 34.1841 83.1358 33.9917 84.933 36.3285C85.4023 36.9385 85.8011 36.3848 86.078 36.1268C93.5155 29.1444 98.9352 21.0875 99.6766 10.539C99.7611 9.31421 99.4889 8.94351 98.1516 9.12182C87.9878 10.4873 80.189 15.8696 73.6665 23.4197C71.1608 26.3196 71.2124 26.3665 73.7087 29.8952L73.7134 29.8905ZM76.7401 56.4215C86.4393 63.1645 96.4389 66.0832 107.701 63.8261C109.531 63.4601 109.751 62.7281 108.907 61.1655C103.858 51.8042 96.0025 45.9527 86.0733 42.5695C84.0039 41.8656 82.6337 42.3067 81.1744 43.8833C79.7432 45.4318 80.1984 45.8119 81.9205 46.3609C86.5238 47.8297 90.5733 50.2979 94.041 53.667C94.7684 54.3756 96.0447 55.1029 94.9279 56.3511C93.8064 57.5993 93.0087 56.459 92.2251 55.7317C88.748 52.5174 84.8533 50.0304 80.0811 48.7118C79.9825 51.654 81.2589 55.0325 76.7401 56.4215ZM73.69 37.1779C70.7244 39.1815 68.3265 38.3228 65.6941 36.4318C66.2759 39.8056 65.4782 42.0204 62.2358 43.7144C65.7692 44.1743 67.5288 45.6712 68.1201 48.6696C69.5841 45.6195 72.2259 45.399 75.0179 45.4318C73.5226 42.8103 73.08 40.059 73.69 37.1779ZM77.6269 43.8411C78.3543 43.034 79.0957 42.241 79.8136 41.4245C80.799 40.303 82.9341 39.3082 82.2255 37.8583C81.5123 36.3848 79.1942 36.7274 77.5284 36.4599C77.3735 36.4365 77.2187 36.4412 77.0638 36.4412C76.6274 36.4365 76.3084 36.5866 76.2661 37.0746C76.0597 39.4349 74.5909 42.0064 77.6269 43.8458V43.8411ZM73.1128 34.7143C72.0899 32.9828 71.0481 31.1763 69.9595 29.4025C69.6029 28.816 69.082 28.0089 68.3265 28.7503C67.022 30.0313 66.5622 31.8379 65.7739 33.4427C65.7175 33.5553 65.8818 33.9166 66.0038 33.9542C68.3172 34.6064 70.4194 37.0887 73.1081 34.7143H73.1128ZM59.9036 43.1889C61.4568 40.9459 64.4131 39.6273 63.0851 36.2722C62.5126 36.4036 61.8932 36.4834 61.316 36.6898C59.6268 37.2999 56.8536 36.6617 56.4641 38.6044C56.0981 40.4297 58.5428 41.6216 59.8989 43.1889H59.9036ZM70.1847 50.6827C71.2968 51.1472 72.4324 51.6305 73.5774 52.0904C74.6895 52.5362 75.8391 53.8501 76.9653 52.9866C78.0023 52.1936 77.3548 50.6874 77.2093 49.4814C77.1624 49.0966 77.092 48.7118 77.0357 48.3318C76.9794 47.9423 76.9278 47.4918 76.3694 47.6654C74.1592 48.3505 71.1091 47.2009 70.18 50.6874L70.1847 50.6827ZM61.302 51.532C61.4568 52.3156 60.9453 53.6107 62.6065 53.5967C63.5074 53.5873 66.8907 51.5601 66.8062 51.0909C66.7827 50.9595 66.642 50.8281 66.52 50.7343C65.6049 50.0163 65.3422 48.9418 65.009 47.9188C64.5773 46.6049 63.376 46.4126 62.3859 46.436C61.0627 46.4689 61.8088 47.7217 61.6633 48.4256C61.4568 49.4063 61.424 50.4199 61.302 51.532Z" fill="#F7DC70"/>
<path d="M77.6734 43.8413C78.4007 43.0342 79.1421 42.2412 79.86 41.4247C80.8455 40.3032 82.9805 39.3084 82.272 37.8584C81.5587 36.385 79.2406 36.7276 77.5748 36.4601C77.42 36.4366 77.2651 36.4413 77.1103 36.4413C76.6739 36.4366 76.3548 36.5868 76.3126 37.0748C76.1061 39.4351 74.6374 42.0065 77.6734 43.846V43.8413ZM73.1593 34.7145C72.1363 32.983 71.0946 31.1764 70.006 29.4027C69.6493 28.8161 69.1285 28.009 68.373 28.7504C67.0685 30.0315 66.6086 31.8381 65.8203 33.4429C65.764 33.5555 65.9282 33.9168 66.0502 33.9543C68.3636 34.6066 70.4658 37.0889 73.1546 34.7145H73.1593ZM59.9501 43.189C61.5033 40.946 64.4595 39.6275 63.1315 36.2724C62.5591 36.4038 61.9397 36.4836 61.3625 36.69C59.6732 37.3 56.9 36.6619 56.5105 38.6045C56.1445 40.4299 58.5893 41.6218 59.9454 43.189H59.9501ZM70.2312 50.6828C71.3433 51.1474 72.4789 51.6307 73.6238 52.0906C74.7359 52.5363 75.8856 53.8502 77.0117 52.9868C78.0488 52.1938 77.4012 50.6875 77.2557 49.4816C77.2088 49.0968 77.1384 48.712 77.0821 48.3319C77.0258 47.9425 76.9742 47.492 76.4158 47.6656C74.2057 48.3507 71.1556 47.2011 70.2265 50.6875L70.2312 50.6828ZM61.3484 51.5322C61.5033 52.3158 60.9918 53.6109 62.6529 53.5968C63.5539 53.5874 66.9371 51.5603 66.8526 51.0911C66.8292 50.9597 66.6884 50.8283 66.5664 50.7344C65.6514 50.0165 65.3886 48.9419 65.0554 47.919C64.6237 46.6051 63.4225 46.4127 62.4324 46.4362C61.1091 46.469 61.8552 47.7219 61.7097 48.4258C61.5033 49.4065 61.4704 50.4201 61.3484 51.5322Z" fill="#F2BE37"/>
<path d="M73.7462 37.1777C70.7806 39.1813 68.3828 38.3226 65.7503 36.4316C66.3322 39.8054 65.5345 42.0202 62.292 43.7142C65.8254 44.1741 67.5851 45.671 68.1763 48.6694C69.6403 45.6193 72.2822 45.3988 75.0742 45.4316C73.5788 42.8101 73.1362 40.0588 73.7462 37.1777Z" fill="white"/>
<path d="M50.1815 34.8037C45.5032 28.2296 42.5657 21.3317 41.5991 13.6643C41.0735 9.51148 41.3785 5.41969 42.3733 1.34197C42.8895 -0.788391 43.9828 -1.11686 45.8973 -0.497464C53.2551 1.8769 58.839 6.58341 63.4001 12.6554C65.9903 16.0997 67.9799 19.8959 69.8099 24.1425C71.9919 21.2613 74.2396 18.7181 76.8251 16.5032C83.3241 10.9427 90.4848 6.94003 99.3112 6.61625C101.395 6.54118 102.188 7.0855 102.15 9.29094C102.033 16.5736 99.5364 23.021 95.637 29.0273C95.1349 29.8063 94.5906 30.557 94.0369 31.3735C94.9473 31.8568 95.6136 31.2562 96.2705 31.0263C103.788 28.4267 111.291 25.7802 118.794 23.1289C119.714 22.8052 121.023 22.5893 120.61 21.1816C120.136 19.5721 118.846 20.1915 117.903 20.6185C114.322 22.2468 111.174 20.4824 111.319 16.8645C111.371 15.5084 111.985 14.4667 113.074 13.7112C116.542 11.3134 122.238 11.4729 125.453 14.0256C128.789 16.6815 129.939 21.496 128.174 25.7473C127.367 27.6947 125.922 29.093 124.054 30.0737C123.43 30.4022 122.708 30.4913 123.106 31.7208C124.022 34.5409 122.83 36.4648 119.981 37.4314C112.671 39.9184 105.364 42.4148 97.8002 44.9956C99.4989 46.4362 101.038 47.6938 102.521 49.0077C106.735 52.7381 110.052 57.1021 112.061 62.428C112.727 64.1923 112.412 65.0604 110.517 65.647C101.747 68.378 93.2439 67.416 84.8679 64.0797C82.0337 62.9489 79.3543 61.5224 76.4966 59.5234C76.1963 63.2445 76.0602 66.7075 75.286 70.0813C73.4935 77.8661 70.2557 84.8531 64.2635 90.3245C61.0116 93.2995 60.3594 93.2009 57.9991 89.5408C54.7989 84.5716 53.1002 79.0673 52.7342 73.2206C52.4808 69.1851 52.6873 65.1261 52.6873 60.917C50.0173 61.2784 47.4787 62.2028 44.9354 63.0756C32.3034 67.3926 19.676 71.7237 7.03934 76.0454C3.41679 77.2842 1.03773 75.9656 0.9955 72.7419C0.97673 71.0855 1.64775 69.8655 3.20563 69.232C4.14412 68.8519 5.12014 68.5563 6.06801 68.195C7.05811 67.8196 7.43351 67.2987 7.08627 66.0881C6.23225 63.1084 7.10504 61.574 10.0566 60.537C14.322 59.0354 18.6015 57.5901 23.2845 55.9853C21.7126 54.9717 20.5207 54.1553 19.2819 53.4232C17.9962 52.6631 17.8929 51.8466 18.7329 50.6031C22.2991 45.3194 27.1699 41.6499 32.8758 39.0175C38.244 36.5399 43.9265 35.2589 50.1768 34.8037H50.1815ZM56.3427 43.8225C55.5074 42.3632 53.9636 41.5373 53.8698 40.1671C53.668 37.2954 51.8332 37.3657 49.839 37.5065C48.4406 37.6051 47.0282 37.6942 45.6486 37.9242C36.6955 39.4163 28.8028 42.945 22.6135 49.8429C21.248 51.3633 21.6046 51.9498 23.2329 52.7991C30.3748 56.5343 37.9577 57.332 45.7706 56.1542C50.2988 55.4738 55.2916 55.38 57.5299 50.0963C57.9099 49.2047 59.2801 48.5384 58.6842 47.4873C58.0836 46.4268 56.7181 46.7928 55.6482 46.7881C54.0528 46.7788 52.5981 47.3935 51.1622 48.0129C49.656 48.6651 48.1919 49.4018 46.6763 50.0259C42.5892 51.7152 38.5818 51.321 34.6637 49.4394C33.7909 49.0217 32.8665 48.5243 33.4249 47.3325C33.8988 46.3283 34.842 46.4128 35.6491 46.8398C39.7221 48.9842 43.6637 48.0973 47.6007 46.4315C50.3317 45.2772 53.0767 44.1463 56.3333 43.8225H56.3427ZM58.5997 53.5171C58.1868 54.3101 57.8724 54.7653 57.6941 55.2674C53.7571 66.3603 54.1795 77.1434 59.8948 87.6076C60.9084 89.4611 61.6545 89.4704 63.0716 88.0158C70.6968 80.1982 73.9862 70.7618 73.8689 59.9692C73.8454 57.8857 73.1087 56.234 71.6634 54.7653C69.9507 53.0244 67.5623 53.3716 66.6003 55.6474C65.7838 57.5807 65.6665 59.5844 66.2484 61.6068C66.8537 63.7043 67.5294 65.7831 68.1066 67.89C68.7635 70.2972 68.7729 72.681 67.5623 74.9474C67.1587 75.7029 66.5487 76.205 65.6524 75.7779C64.775 75.365 64.6436 74.6048 65.0753 73.8071C66.4595 71.2404 65.7041 68.7581 64.7046 66.3649C63.5455 63.587 62.5883 60.8138 63.0575 57.7497C63.1748 56.9895 63.0669 56.6141 62.1566 56.6C60.3828 56.5672 59.3224 55.4926 58.6044 53.5218L58.5997 53.5171ZM59.496 34.2547C58.351 33.2364 57.3844 32.4622 56.5163 31.5941C51.8192 26.9016 49.0694 21.252 48.2952 14.6497C48.1778 13.6737 48.0324 12.6179 49.3697 12.5147C50.5757 12.4208 50.9088 13.3546 50.9605 14.3916C50.9745 14.6263 50.998 14.8609 51.0355 15.0908C52.1946 21.9371 55.4699 27.4882 60.96 31.8005C62.593 33.0816 63.2546 32.6921 63.9538 31.0028C64.4887 29.7124 65.019 28.2578 65.995 27.3568C67.4496 26.0101 67.3511 24.7056 66.6801 23.1993C62.6634 14.1992 56.6336 7.06204 47.5631 2.806C45.0433 1.62351 44.7946 1.81121 44.4004 4.61259C43.0396 14.2978 45.6533 23.0351 50.8854 31.0873C53.8463 35.6389 53.9167 35.5967 59.496 34.2547ZM73.7656 29.9611C76.1682 25.9632 79.0305 22.6925 82.5874 20.0695C83.3429 19.5111 84.1969 18.4412 85.1682 19.6706C86.1724 20.9423 85.0603 21.6367 84.1875 22.2984C81.0905 24.6258 78.5519 27.4553 76.5576 30.7729C75.1452 33.1285 75.1968 33.2364 77.9701 33.776C80.457 34.2547 83.188 34.0623 84.9852 36.3991C85.4545 37.0091 85.8533 36.4554 86.1302 36.1973C93.5677 29.215 98.9874 21.1581 99.7288 10.6095C99.8133 9.38479 99.5411 9.01408 98.2038 9.1924C88.04 10.5579 80.2412 15.9401 73.7187 23.4902C71.213 26.3902 71.2646 26.4371 73.761 29.9658L73.7656 29.9611ZM76.7923 56.4921C86.4915 63.2351 96.4911 66.1538 107.753 63.8967C109.583 63.5307 109.803 62.7987 108.959 61.2361C103.91 51.8747 96.0547 46.0233 86.1255 42.64C84.0561 41.9362 82.6859 42.3773 81.2266 43.9539C79.7954 45.5024 80.2506 45.8825 81.9727 46.4315C86.576 47.9002 90.6255 50.3685 94.0932 53.7376C94.8206 54.4462 96.0969 55.1735 94.9801 56.4217C93.8586 57.6699 93.0609 56.5296 92.2773 55.8023C88.8002 52.588 84.9055 50.101 80.1333 48.7824C80.0347 51.7246 81.3111 55.1031 76.7923 56.4921ZM86.3367 39.8058C87.0734 40.2234 87.5379 39.7823 88.0259 39.6181C94.0792 37.5628 100.128 35.4982 106.176 33.4241C111.413 31.6269 116.673 29.8954 121.863 27.9668C125.528 26.606 127.165 23.0539 126.199 19.1873C125.429 16.1138 121.825 13.9083 118.278 14.4526C117.138 14.6263 116.021 15.0533 114.928 15.4615C114.055 15.79 113.421 16.4235 113.886 17.4558C114.294 18.3614 115.054 18.6571 116.021 18.338C117.203 17.9532 118.334 17.3901 119.634 17.4558C121.849 17.5684 123.05 18.8541 123.501 20.8813C123.909 22.7207 122.675 24.654 120.821 25.2781C112.328 28.1404 103.877 31.1248 95.3226 33.7948C91.6907 34.9257 88.7204 36.7229 86.3367 39.8058ZM48.6752 58.8711C45.1372 59.3357 41.4724 58.8711 38.0187 60.0114C27.1229 63.5964 16.3773 67.6413 5.3923 70.9588C4.48666 71.231 3.07894 71.4187 3.45902 72.8076C3.87665 74.3233 5.12014 73.7884 6.17594 73.427C10.9012 71.8035 15.6265 70.194 20.3518 68.5751C29.7929 65.342 39.2341 62.1042 48.6752 58.8711ZM91.6626 41.6781C93.0609 42.6119 94.1073 43.4096 95.7168 42.8465C103.45 40.1343 111.211 37.5112 118.958 34.8365C119.822 34.5409 121.028 34.2875 120.582 33.0159C120.141 31.7536 119.057 32.2979 118.184 32.5936C112.417 34.5456 106.645 36.4977 100.883 38.4685C97.8753 39.4961 94.8769 40.5613 91.6626 41.6781ZM73.7422 37.2437C70.7766 39.2474 68.3787 38.3887 65.7463 36.4977C66.3281 39.8715 65.5304 42.0863 62.288 43.7803C65.8214 44.2402 67.581 45.737 68.1723 48.7355C69.6363 45.6854 72.2781 45.4649 75.0701 45.4977C73.5748 42.8762 73.1322 40.1249 73.7422 37.2437ZM31.5244 58.8758C29.1876 58.369 27.7564 57.0176 25.8137 57.684C20.8069 59.4014 15.7813 61.0625 10.7745 62.7752C9.77972 63.1131 8.75208 63.6246 9.26825 64.9384C9.74218 66.1397 10.7886 66.0881 11.8444 65.7221C15.5233 64.4457 19.2068 63.1788 22.8857 61.9024C25.5744 60.9687 28.2585 60.0208 31.5244 58.8758ZM77.6791 43.907C78.4065 43.0999 79.1479 42.3069 79.8658 41.4904C80.8512 40.3689 82.9863 39.3741 82.2777 37.9242C81.5645 36.4507 79.2464 36.7933 77.5806 36.5258C77.4257 36.5023 77.2709 36.507 77.116 36.507C76.6796 36.5023 76.3606 36.6525 76.3183 37.1405C76.1119 39.5008 74.6431 42.0723 77.6791 43.9117V43.907ZM73.165 34.7802C72.1421 33.0487 71.1003 31.2421 70.0117 29.4684C69.6551 28.8818 69.1342 28.0747 68.3787 28.8162C67.0742 30.0972 66.6144 31.9038 65.8261 33.5086C65.7697 33.6212 65.934 33.9825 66.056 34.0201C68.3694 34.6723 70.4716 37.1546 73.1603 34.7802H73.165ZM59.9558 43.2547C61.509 41.0118 64.4653 39.6932 63.1373 36.3381C62.5648 36.4695 61.9454 36.5493 61.3683 36.7557C59.679 37.3658 56.9058 36.7276 56.5163 38.6702C56.1503 40.4956 58.595 41.6875 59.9511 43.2547H59.9558ZM70.2369 50.7485C71.349 51.2131 72.4846 51.6964 73.6296 52.1563C74.7417 52.6021 75.8913 53.9159 77.0175 53.0525C78.0545 52.2595 77.407 50.7532 77.2615 49.5473C77.2146 49.1625 77.1442 48.7777 77.0879 48.3976C77.0316 48.0082 76.98 47.5577 76.4216 47.7313C74.2114 48.4164 71.1613 47.2668 70.2322 50.7532L70.2369 50.7485ZM61.3542 51.5979C61.509 52.3815 60.9976 53.6766 62.6587 53.6625C63.5596 53.6532 66.9429 51.626 66.8584 51.1568C66.8349 51.0254 66.6942 50.894 66.5722 50.8002C65.6571 50.0822 65.3944 49.0077 65.0612 47.9847C64.6295 46.6708 63.4282 46.4784 62.4381 46.5019C61.1149 46.5348 61.861 47.7876 61.7155 48.4915C61.509 49.4722 61.4762 50.4858 61.3542 51.5979Z" fill="#333333"/>
<path d="M86.3368 39.8058C87.0735 40.2234 87.5381 39.7824 88.0261 39.6181C94.0793 37.5628 100.128 35.4982 106.176 33.4241C111.413 31.6269 116.673 29.8954 121.863 27.9668C125.528 26.606 127.166 23.0539 126.199 19.1873C125.429 16.1138 121.826 13.9083 118.278 14.4526C117.138 14.6263 116.021 15.0533 114.928 15.4615C114.055 15.79 113.422 16.4235 113.886 17.4558C114.294 18.3614 115.054 18.6571 116.021 18.338C117.204 17.9532 118.334 17.3901 119.634 17.4558C121.849 17.5684 123.05 18.8541 123.501 20.8813C123.909 22.7207 122.675 24.654 120.821 25.2781C112.328 28.1404 103.877 31.1248 95.3228 33.7948C91.6909 34.9257 88.7206 36.7229 86.3368 39.8058ZM48.6754 58.8711C45.1373 59.3357 41.4725 58.8711 38.0189 60.0114C27.1231 63.5964 16.3774 67.6413 5.39247 70.9588C4.48683 71.231 3.0791 71.4187 3.45919 72.8077C3.87682 74.3233 5.12031 73.7884 6.1761 73.4271C10.9014 71.8035 15.6267 70.194 20.3519 68.5751C29.7931 65.342 39.2342 62.1042 48.6754 58.8711ZM91.6627 41.6781C93.0611 42.6119 94.1075 43.4096 95.717 42.8465C103.45 40.1343 111.211 37.5112 118.959 34.8365C119.822 34.5409 121.028 34.2875 120.582 33.0159C120.141 31.7536 119.057 32.2979 118.184 32.5936C112.417 34.5456 106.646 36.4977 100.883 38.4685C97.8755 39.4961 94.877 40.5613 91.6627 41.6781ZM31.5293 58.8758C29.1925 58.3691 27.7613 57.0176 25.8186 57.684C20.8118 59.4014 15.7862 61.0625 10.7794 62.7752C9.78458 63.1131 8.75694 63.6246 9.2731 64.9385C9.74704 66.1397 10.7935 66.0881 11.8492 65.7221C15.5281 64.4457 19.2117 63.1788 22.8905 61.9025C25.5793 60.9687 28.2634 60.0208 31.5293 58.8758Z" fill="#604C3F"/>
</g>
</g>
</g>
<defs>
<clipPath id="clip0_626_423">
<rect width="130" height="92" fill="white" transform="translate(0 0.219971)"/>
</clipPath>
</defs>
</svg>
